Space-Mono-Bold.ufo
<glyph name="quotedbl" format="1">
  <advance width="612"/>
  <unicode hex="0022"/>
  <outline>
    <contour>
      <point x="459" y="533" type="line"/>
      <point x="491" y="548"/>
      <point x="514" y="582"/>
      <point x="514" y="620" type="curve" smooth="yes"/>
      <point x="514" y="672"/>
      <point x="471" y="714"/>
      <point x="419" y="714" type="curve" smooth="yes"/>
      <point x="367" y="714"/>
      <point x="324" y="672"/>
      <point x="324" y="620" type="curve" smooth="yes"/>
      <point x="324" y="582"/>
      <point x="347" y="548"/>
      <point x="379" y="533" type="curve"/>
      <point x="379" y="408" type="line"/>
      <point x="459" y="408" type="line"/>
    </contour>
    <contour>
      <point x="233" y="533" type="line"/>
      <point x="265" y="548"/>
      <point x="288" y="582"/>
      <point x="288" y="620" type="curve" smooth="yes"/>
      <point x="288" y="672"/>
      <point x="245" y="714"/>
      <point x="193" y="714" type="curve" smooth="yes"/>
      <point x="141" y="714"/>
      <point x="98" y="672"/>
      <point x="98" y="620" type="curve" smooth="yes"/>
      <point x="98" y="582"/>
      <point x="121" y="548"/>
      <point x="153" y="533" type="curve"/>
      <point x="153" y="408" type="line"/>
      <point x="233" y="408" type="line"/>
    </contour>
  </outline>
</glyph>
<glyph name="dollar" format="1">
  <advance width="612"/>
  <unicode hex="0024"/>
  <outline>
    <contour>
      <point x="354" y="672" type="line"/>
      <point x="258" y="672" type="line"/>
      <point x="258" y="609" type="line"/>
      <point x="178" y="597"/>
      <point x="110" y="550"/>
      <point x="110" y="460" type="curve" smooth="yes"/>
      <point x="110" y="454" type="line" smooth="yes"/>
      <point x="110" y="370"/>
      <point x="166" y="329"/>
      <point x="258" y="313" type="curve"/>
      <point x="258" y="205" type="line"/>
      <point x="229" y="218"/>
      <point x="218" y="242"/>
      <point x="218" y="272" type="curve" smooth="yes"/>
      <point x="218" y="286" type="line"/>
      <point x="104" y="286" type="line"/>
      <point x="104" y="266" type="line" smooth="yes"/>
      <point x="104" y="185"/>
      <point x="150" y="112"/>
      <point x="258" y="93" type="curve"/>
      <point x="258" y="28" type="line"/>
      <point x="354" y="28" type="line"/>
      <point x="354" y="90" type="line"/>
      <point x="451" y="102"/>
      <point x="508" y="161"/>
      <point x="508" y="250" type="curve" smooth="yes"/>
      <point x="508" y="256" type="line" smooth="yes"/>
      <point x="508" y="341"/>
      <point x="455" y="389"/>
      <point x="354" y="403" type="curve"/>
      <point x="354" y="493" type="line"/>
      <point x="374" y="482"/>
      <point x="382" y="466"/>
      <point x="382" y="450" type="curve" smooth="yes"/>
      <point x="382" y="436" type="line"/>
      <point x="496" y="436" type="line"/>
      <point x="496" y="450" type="line" smooth="yes"/>
      <point x="496" y="527"/>
      <point x="444" y="588"/>
      <point x="354" y="606" type="curve"/>
    </contour>
    <contour>
      <point x="394" y="248" type="curve" smooth="yes"/>
      <point x="394" y="230"/>
      <point x="384" y="210"/>
      <point x="354" y="201" type="curve"/>
      <point x="354" y="296" type="line"/>
      <point x="388" y="285"/>
      <point x="394" y="268"/>
    </contour>
    <contour>
      <point x="224" y="460" type="curve" smooth="yes"/>
      <point x="224" y="475"/>
      <point x="234" y="490"/>
      <point x="258" y="498" type="curve"/>
      <point x="258" y="419" type="line"/>
      <point x="229" y="429"/>
      <point x="224" y="442"/>
    </contour>
  </outline>
</glyph>
<glyph name="ampersand" format="1">
  <advance width="612"/>
  <unicode hex="0026"/>
  <outline>
    <contour>
      <point x="373" y="120" type="line"/>
      <point x="262" y="120" type="line" smooth="yes"/>
      <point x="206" y="120"/>
      <point x="168" y="149"/>
      <point x="168" y="204" type="curve" smooth="yes"/>
      <point x="168" y="210" type="line" smooth="yes"/>
      <point x="168" y="265"/>
      <point x="206" y="294"/>
      <point x="262" y="294" type="curve" smooth="yes"/>
      <point x="373" y="294" type="line"/>
    </contour>
    <contour>
      <point x="373" y="496" type="line"/>
      <point x="373" y="414" type="line"/>
      <point x="262" y="414" type="line" smooth="yes"/>
      <point x="206" y="414"/>
      <point x="168" y="438"/>
      <point x="168" y="494" type="curve" smooth="yes"/>
      <point x="168" y="500" type="line" smooth="yes"/>
      <point x="168" y="554"/>
      <point x="206" y="580"/>
      <point x="262" y="580" type="curve" smooth="yes"/>
      <point x="358" y="580" type="line"/>
      <point x="358" y="700" type="line"/>
      <point x="249" y="700" type="line" smooth="yes"/>
      <point x="115" y="700"/>
      <point x="42" y="622"/>
      <point x="42" y="518" type="curve" smooth="yes"/>
      <point x="42" y="506" type="line" smooth="yes"/>
      <point x="42" y="426"/>
      <point x="92" y="378"/>
      <point x="160" y="360" type="curve"/>
      <point x="160" y="342" type="line"/>
      <point x="92" y="324"/>
      <point x="42" y="274"/>
      <point x="42" y="195" type="curve" smooth="yes"/>
      <point x="42" y="183" type="line" smooth="yes"/>
      <point x="42" y="78"/>
      <point x="115" y="0"/>
      <point x="249" y="0" type="curve" smooth="yes"/>
      <point x="499" y="0" type="line"/>
      <point x="499" y="288" type="line"/>
      <point x="591" y="288" type="line"/>
      <point x="591" y="414" type="line"/>
      <point x="499" y="414" type="line"/>
      <point x="499" y="496" type="line"/>
    </contour>
  </outline>
</glyph>
<glyph name="quotesingle" format="1">
  <advance width="612"/>
  <unicode hex="0027"/>
  <outline>
    <contour>
      <point x="267" y="408" type="line"/>
      <point x="345" y="408" type="line"/>
      <point x="345" y="533" type="line"/>
      <point x="377" y="548"/>
      <point x="400" y="582"/>
      <point x="400" y="620" type="curve" smooth="yes"/>
      <point x="400" y="672"/>
      <point x="358" y="714"/>
      <point x="306" y="714" type="curve" smooth="yes"/>
      <point x="254" y="714"/>
      <point x="211" y="672"/>
      <point x="211" y="620" type="curve" smooth="yes"/>
      <point x="211" y="582"/>
      <point x="234" y="548"/>
      <point x="267" y="533" type="curve"/>
    </contour>
  </outline>
</glyph>
<glyph name="slash" format="1">
  <advance width="612"/>
  <unicode hex="002F"/>
  <outline>
    <contour>
      <point x="99" y="-89" type="line"/>
      <point x="214" y="-125" type="line"/>
      <point x="513" y="789" type="line"/>
      <point x="399" y="825" type="line"/>
    </contour>
  </outline>
</glyph>
<glyph name="one" format="1">
  <advance width="612"/>
  <unicode hex="0031"/>
  <outline>
    <contour>
      <point x="66" y="126" type="line"/>
      <point x="66" y="0" type="line"/>
      <point x="570" y="0" type="line"/>
      <point x="570" y="126" type="line"/>
      <point x="396" y="126" type="line"/>
      <point x="396" y="700" type="line"/>
      <point x="138" y="700" type="line"/>
      <point x="54" y="406" type="line"/>
      <point x="54" y="394" type="line"/>
      <point x="180" y="394" type="line"/>
      <point x="246" y="634" type="line"/>
      <point x="264" y="634" type="line"/>
      <point x="264" y="126" type="line"/>
    </contour>
  </outline>
</glyph>
<glyph name="colon" format="1">
  <advance width="612"/>
  <unicode hex="003A"/>
  <outline>
    <contour>
      <point x="401" y="81" type="curve" smooth="yes"/>
      <point x="401" y="134"/>
      <point x="358" y="176"/>
      <point x="306" y="176" type="curve" smooth="yes"/>
      <point x="254" y="176"/>
      <point x="211" y="134"/>
      <point x="211" y="81" type="curve" smooth="yes"/>
      <point x="211" y="28"/>
      <point x="254" y="-14"/>
      <point x="306" y="-14" type="curve" smooth="yes"/>
      <point x="358" y="-14"/>
      <point x="401" y="28"/>
    </contour>
    <contour>
      <point x="401" y="415" type="curve" smooth="yes"/>
      <point x="401" y="468"/>
      <point x="358" y="510"/>
      <point x="306" y="510" type="curve" smooth="yes"/>
      <point x="254" y="510"/>
      <point x="211" y="468"/>
      <point x="211" y="415" type="curve" smooth="yes"/>
      <point x="211" y="362"/>
      <point x="254" y="320"/>
      <point x="306" y="320" type="curve" smooth="yes"/>
      <point x="358" y="320"/>
      <point x="401" y="362"/>
    </contour>
  </outline>
</glyph>
<glyph name="semicolon" format="1">
  <advance width="612"/>
  <unicode hex="003B"/>
  <outline>
    <contour>
      <point x="211" y="81" type="curve"/>
      <point x="211" y="28"/>
      <point x="254" y="-14"/>
      <point x="306" y="-14" type="curve" smooth="yes"/>
      <point x="312" y="-14"/>
      <point x="318" y="-13"/>
      <point x="323" y="-11" type="curve"/>
      <point x="323" y="-23" type="line" smooth="yes"/>
      <point x="323" y="-42"/>
      <point x="315" y="-53"/>
      <point x="296" y="-53" type="curve" smooth="yes"/>
      <point x="248" y="-53" type="line"/>
      <point x="248" y="-131" type="line"/>
      <point x="312" y="-131" type="line" smooth="yes"/>
      <point x="363" y="-131"/>
      <point x="401" y="-92"/>
      <point x="401" y="-41" type="curve" smooth="yes"/>
      <point x="401" y="81" type="line" smooth="yes"/>
      <point x="401" y="134"/>
      <point x="358" y="176"/>
      <point x="306" y="176" type="curve" smooth="yes"/>
      <point x="254" y="176"/>
      <point x="211" y="134"/>
    </contour>
    <contour>
      <point x="401" y="415" type="curve" smooth="yes"/>
      <point x="401" y="468"/>
      <point x="358" y="510"/>
      <point x="306" y="510" type="curve" smooth="yes"/>
      <point x="254" y="510"/>
      <point x="211" y="468"/>
      <point x="211" y="415" type="curve" smooth="yes"/>
      <point x="211" y="362"/>
      <point x="254" y="320"/>
      <point x="306" y="320" type="curve" smooth="yes"/>
      <point x="358" y="320"/>
      <point x="401" y="362"/>
    </contour>
  </outline>
</glyph>
<glyph name="greater" format="1">
  <advance width="612"/>
  <unicode hex="003E"/>
  <outline>
    <contour>
      <point x="515" y="246" type="line"/>
      <point x="515" y="454" type="line"/>
      <point x="97" y="570" type="line"/>
      <point x="97" y="450" type="line"/>
      <point x="437" y="359" type="line"/>
      <point x="437" y="341" type="line"/>
      <point x="97" y="250" type="line"/>
      <point x="97" y="130" type="line"/>
    </contour>
  </outline>
</glyph>
<glyph name="at" format="1">
  <advance width="612"/>
  <unicode hex="0040"/>
  <outline>
    <contour>
      <point x="348" y="510" type="line" smooth="yes"/>
      <point x="429" y="510"/>
      <point x="468" y="471"/>
      <point x="468" y="390" type="curve" smooth="yes"/>
      <point x="468" y="128" type="line" smooth="yes"/>
      <point x="468" y="110"/>
      <point x="459" y="100"/>
      <point x="441" y="100" type="curve"/>
      <point x="435" y="100" type="line" smooth="yes"/>
      <point x="417" y="100"/>
      <point x="408" y="110"/>
      <point x="408" y="128" type="curve" smooth="yes"/>
      <point x="408" y="424" type="line"/>
      <point x="288" y="424" type="line"/>
      <point x="288" y="388" type="line"/>
      <point x="270" y="388" type="line"/>
      <point x="258" y="416"/>
      <point x="232" y="438"/>
      <point x="182" y="438" type="curve" smooth="yes"/>
      <point x="90" y="438"/>
      <point x="14" y="368"/>
      <point x="14" y="215" type="curve" smooth="yes"/>
      <point x="14" y="209" type="line" smooth="yes"/>
      <point x="14" y="57"/>
      <point x="84" y="-14"/>
      <point x="176" y="-14" type="curve" smooth="yes"/>
      <point x="234" y="-14"/>
      <point x="264" y="12"/>
      <point x="276" y="42" type="curve"/>
      <point x="294" y="42" type="line"/>
      <point x="298" y="12"/>
      <point x="320" y="-14"/>
      <point x="370" y="-14" type="curve" smooth="yes"/>
      <point x="493" y="-14" type="line" smooth="yes"/>
      <point x="548" y="-14"/>
      <point x="588" y="26"/>
      <point x="588" y="82" type="curve" smooth="yes"/>
      <point x="588" y="422" type="line" smooth="yes"/>
      <point x="588" y="560"/>
      <point x="504" y="630"/>
      <point x="374" y="630" type="curve" smooth="yes"/>
      <point x="60" y="630" type="line"/>
      <point x="60" y="510" type="line"/>
    </contour>
    <contour>
      <point x="212" y="100" type="curve" smooth="yes"/>
      <point x="162" y="100"/>
      <point x="134" y="146"/>
      <point x="134" y="209" type="curve" smooth="yes"/>
      <point x="134" y="215" type="line" smooth="yes"/>
      <point x="134" y="278"/>
      <point x="162" y="324"/>
      <point x="212" y="324" type="curve" smooth="yes"/>
      <point x="266" y="324"/>
      <point x="288" y="278"/>
      <point x="288" y="215" type="curve" smooth="yes"/>
      <point x="288" y="209" type="line" smooth="yes"/>
      <point x="288" y="146"/>
      <point x="266" y="100"/>
    </contour>
  </outline>
</glyph>
<glyph name="B" format="1">
  <advance width="612"/>
  <unicode hex="0042"/>
  <outline>
    <contour>
      <point x="46" y="0" type="line"/>
      <point x="353" y="0" type="line" smooth="yes"/>
      <point x="487" y="0"/>
      <point x="560" y="78"/>
      <point x="560" y="183" type="curve" smooth="yes"/>
      <point x="560" y="195" type="line" smooth="yes"/>
      <point x="560" y="274"/>
      <point x="510" y="324"/>
      <point x="442" y="342" type="curve"/>
      <point x="442" y="360" type="line"/>
      <point x="510" y="378"/>
      <point x="560" y="426"/>
      <point x="560" y="506" type="curve" smooth="yes"/>
      <point x="560" y="518" type="line" smooth="yes"/>
      <point x="560" y="622"/>
      <point x="487" y="700"/>
      <point x="353" y="700" type="curve" smooth="yes"/>
      <point x="46" y="700" type="line"/>
      <point x="46" y="574" type="line"/>
      <point x="112" y="574" type="line"/>
      <point x="112" y="126" type="line"/>
      <point x="46" y="126" type="line"/>
    </contour>
    <contour>
      <point x="244" y="288" type="line"/>
      <point x="340" y="288" type="line" smooth="yes"/>
      <point x="396" y="288"/>
      <point x="434" y="265"/>
      <point x="434" y="210" type="curve" smooth="yes"/>
      <point x="434" y="204" type="line" smooth="yes"/>
      <point x="434" y="149"/>
      <point x="396" y="126"/>
      <point x="340" y="126" type="curve" smooth="yes"/>
      <point x="244" y="126" type="line"/>
    </contour>
    <contour>
      <point x="244" y="574" type="line"/>
      <point x="340" y="574" type="line" smooth="yes"/>
      <point x="396" y="574"/>
      <point x="434" y="552"/>
      <point x="434" y="497" type="curve" smooth="yes"/>
      <point x="434" y="491" type="line" smooth="yes"/>
      <point x="434" y="436"/>
      <point x="396" y="414"/>
      <point x="340" y="414" type="curve" smooth="yes"/>
      <point x="244" y="414" type="line"/>
    </contour>
  </outline>
</glyph>
<glyph name="C" format="1">
  <advance width="612"/>
  <unicode hex="0043"/>
  <outline>
    <contour>
      <point x="308" y="106" type="curve" smooth="yes"/>
      <point x="214" y="106"/>
      <point x="180" y="171"/>
      <point x="180" y="262" type="curve" smooth="yes"/>
      <point x="180" y="438" type="line" smooth="yes"/>
      <point x="180" y="522"/>
      <point x="220" y="594"/>
      <point x="308" y="594" type="curve" smooth="yes"/>
      <point x="404" y="594"/>
      <point x="432" y="520"/>
      <point x="432" y="454" type="curve" smooth="yes"/>
      <point x="432" y="436" type="line"/>
      <point x="564" y="436" type="line"/>
      <point x="564" y="454" type="line" smooth="yes"/>
      <point x="564" y="614"/>
      <point x="474" y="714"/>
      <point x="308" y="714" type="curve" smooth="yes"/>
      <point x="148" y="714"/>
      <point x="48" y="608"/>
      <point x="48" y="428" type="curve" smooth="yes"/>
      <point x="48" y="272" type="line" smooth="yes"/>
      <point x="48" y="86"/>
      <point x="148" y="-14"/>
      <point x="308" y="-14" type="curve" smooth="yes"/>
      <point x="474" y="-14"/>
      <point x="564" y="80"/>
      <point x="564" y="246" type="curve" smooth="yes"/>
      <point x="564" y="264" type="line"/>
      <point x="432" y="264" type="line"/>
      <point x="432" y="246" type="line" smooth="yes"/>
      <point x="432" y="174"/>
      <point x="410" y="106"/>
    </contour>
  </outline>
</glyph>
<glyph name="F" format="1">
  <advance width="612"/>
  <unicode hex="0046"/>
  <outline>
    <contour>
      <point x="88" y="0" type="line"/>
      <point x="220" y="0" type="line"/>
      <point x="220" y="288" type="line"/>
      <point x="530" y="288" type="line"/>
      <point x="530" y="414" type="line"/>
      <point x="220" y="414" type="line"/>
      <point x="220" y="574" type="line"/>
      <point x="536" y="574" type="line"/>
      <point x="536" y="700" type="line"/>
      <point x="88" y="700" type="line"/>
    </contour>
  </outline>
</glyph>
<glyph name="G" format="1">
  <advance width="612"/>
  <unicode hex="0047"/>
  <outline>
    <contour>
      <point x="260" y="228" type="line"/>
      <point x="428" y="228" type="line"/>
      <point x="428" y="158"/>
      <point x="386" y="112"/>
      <point x="308" y="112" type="curve" smooth="yes"/>
      <point x="220" y="112"/>
      <point x="176" y="166"/>
      <point x="176" y="274" type="curve" smooth="yes"/>
      <point x="176" y="422" type="line" smooth="yes"/>
      <point x="176" y="544"/>
      <point x="230" y="588"/>
      <point x="304" y="588" type="curve" smooth="yes"/>
      <point x="382" y="588"/>
      <point x="428" y="544"/>
      <point x="428" y="460" type="curve" smooth="yes"/>
      <point x="428" y="448" type="line"/>
      <point x="560" y="448" type="line"/>
      <point x="560" y="460" type="line" smooth="yes"/>
      <point x="560" y="602"/>
      <point x="466" y="714"/>
      <point x="306" y="714" type="curve" smooth="yes"/>
      <point x="152" y="714"/>
      <point x="44" y="614"/>
      <point x="44" y="432" type="curve" smooth="yes"/>
      <point x="44" y="268" type="line" smooth="yes"/>
      <point x="44" y="82"/>
      <point x="146" y="-14"/>
      <point x="274" y="-14" type="curve" smooth="yes"/>
      <point x="364" y="-14"/>
      <point x="406" y="26"/>
      <point x="422" y="78" type="curve"/>
      <point x="440" y="78" type="line"/>
      <point x="440" y="0" type="line"/>
      <point x="560" y="0" type="line"/>
      <point x="560" y="354" type="line"/>
      <point x="260" y="354" type="line"/>
    </contour>
  </outline>
</glyph>
<glyph name="J" format="1">
  <advance width="612"/>
  <unicode hex="004A"/>
  <outline>
    <contour>
      <point x="517" y="576" type="line"/>
      <point x="577" y="576" type="line"/>
      <point x="577" y="700" type="line"/>
      <point x="313" y="700" type="line"/>
      <point x="313" y="576" type="line"/>
      <point x="385" y="576" type="line"/>
      <point x="385" y="210" type="line" smooth="yes"/>
      <point x="385" y="146"/>
      <point x="350" y="110"/>
      <point x="292" y="110" type="curve" smooth="yes"/>
      <point x="230" y="110"/>
      <point x="193" y="148"/>
      <point x="193" y="210" type="curve" smooth="yes"/>
      <point x="193" y="276" type="line"/>
      <point x="61" y="276" type="line"/>
      <point x="61" y="210" type="line" smooth="yes"/>
      <point x="61" y="64"/>
      <point x="156" y="-14"/>
      <point x="296" y="-14" type="curve" smooth="yes"/>
      <point x="432" y="-14"/>
      <point x="517" y="66"/>
      <point x="517" y="210" type="curve" smooth="yes"/>
    </contour>
  </outline>
</glyph>
<glyph name="N" format="1">
  <advance width="612"/>
  <unicode hex="004E"/>
  <outline>
    <contour>
      <point x="319" y="700" type="line"/>
      <point x="61" y="700" type="line"/>
      <point x="61" y="0" type="line"/>
      <point x="193" y="0" type="line"/>
      <point x="193" y="634" type="line"/>
      <point x="211" y="634" type="line"/>
      <point x="293" y="0" type="line"/>
      <point x="551" y="0" type="line"/>
      <point x="551" y="700" type="line"/>
      <point x="419" y="700" type="line"/>
      <point x="419" y="66" type="line"/>
      <point x="401" y="66" type="line"/>
    </contour>
  </outline>
</glyph>
<glyph name="P" format="1">
  <advance width="612"/>
  <unicode hex="0050"/>
  <outline>
    <contour>
      <point x="346" y="264" type="line" smooth="yes"/>
      <point x="489" y="264"/>
      <point x="560" y="369"/>
      <point x="560" y="473" type="curve" smooth="yes"/>
      <point x="560" y="497" type="line" smooth="yes"/>
      <point x="560" y="598"/>
      <point x="489" y="700"/>
      <point x="346" y="700" type="curve" smooth="yes"/>
      <point x="72" y="700" type="line"/>
      <point x="72" y="0" type="line"/>
      <point x="204" y="0" type="line"/>
      <point x="204" y="264" type="line"/>
    </contour>
    <contour>
      <point x="204" y="574" type="line"/>
      <point x="333" y="574" type="line" smooth="yes"/>
      <point x="391" y="574"/>
      <point x="428" y="539"/>
      <point x="428" y="488" type="curve" smooth="yes"/>
      <point x="428" y="476" type="line" smooth="yes"/>
      <point x="428" y="425"/>
      <point x="391" y="390"/>
      <point x="333" y="390" type="curve" smooth="yes"/>
      <point x="204" y="390" type="line"/>
    </contour>
  </outline>
</glyph>
<glyph name="U" format="1">
  <advance width="612"/>
  <unicode hex="0055"/>
  <outline>
    <contour>
      <point x="426" y="700" type="line"/>
      <point x="426" y="242" type="line" smooth="yes"/>
      <point x="426" y="160"/>
      <point x="388" y="110"/>
      <point x="306" y="110" type="curve" smooth="yes"/>
      <point x="224" y="110"/>
      <point x="186" y="160"/>
      <point x="186" y="242" type="curve" smooth="yes"/>
      <point x="186" y="700" type="line"/>
      <point x="54" y="700" type="line"/>
      <point x="54" y="242" type="line" smooth="yes"/>
      <point x="54" y="83"/>
      <point x="140" y="-14"/>
      <point x="306" y="-14" type="curve" smooth="yes"/>
      <point x="472" y="-14"/>
      <point x="558" y="83"/>
      <point x="558" y="242" type="curve" smooth="yes"/>
      <point x="558" y="700" type="line"/>
    </contour>
  </outline>
</glyph>
<glyph name="Z" format="1">
  <advance width="612"/>
  <unicode hex="005A"/>
  <outline>
    <contour>
      <point x="53" y="574" type="line"/>
      <point x="443" y="574" type="line"/>
      <point x="443" y="556" type="line"/>
      <point x="47" y="216" type="line"/>
      <point x="47" y="0" type="line"/>
      <point x="563" y="0" type="line"/>
      <point x="563" y="126" type="line"/>
      <point x="155" y="126" type="line"/>
      <point x="155" y="144" type="line"/>
      <point x="551" y="484" type="line"/>
      <point x="551" y="700" type="line"/>
      <point x="53" y="700" type="line"/>
    </contour>
  </outline>
</glyph>
<glyph name="bracketright" format="1">
  <advance width="612"/>
  <unicode hex="005D"/>
  <outline>
    <contour>
      <point x="376" y="754" type="line"/>
      <point x="376" y="814"/>
      <point x="334" y="856"/>
      <point x="274" y="856" type="curve" smooth="yes"/>
      <point x="142" y="856" type="line"/>
      <point x="142" y="736" type="line"/>
      <point x="223" y="736" type="line" smooth="yes"/>
      <point x="242" y="736"/>
      <point x="250" y="725"/>
      <point x="250" y="706" type="curve" smooth="yes"/>
      <point x="250" y="-6" type="line" smooth="yes"/>
      <point x="250" y="-25"/>
      <point x="242" y="-36"/>
      <point x="223" y="-36" type="curve" smooth="yes"/>
      <point x="142" y="-36" type="line"/>
      <point x="142" y="-156" type="line"/>
      <point x="274" y="-156" type="line" smooth="yes"/>
      <point x="334" y="-156"/>
      <point x="376" y="-114"/>
      <point x="376" y="-54" type="curve" smooth="yes"/>
    </contour>
  </outline>
</glyph>
<glyph name="asciicircum" format="1">
  <advance width="612"/>
  <unicode hex="005E"/>
  <outline>
    <contour>
      <point x="412" y="700" type="line"/>
      <point x="200" y="700" type="line"/>
      <point x="66" y="424" type="line"/>
      <point x="206" y="424" type="line"/>
      <point x="297" y="634" type="line"/>
      <point x="315" y="634" type="line"/>
      <point x="406" y="424" type="line"/>
      <point x="546" y="424" type="line"/>
    </contour>
  </outline>
</glyph>
<glyph name="grave" format="1">
  <advance width="612"/>
  <unicode hex="0060"/>
  <outline>
    <contour>
      <point x="345" y="706" type="line"/>
      <point x="211" y="706" type="line"/>
      <point x="295" y="570" type="line"/>
      <point x="397" y="570" type="line"/>
    </contour>
  </outline>
</glyph>
<glyph name="a" format="1">
  <advance width="612"/>
  <unicode hex="0061"/>
  <outline>
    <contour>
      <point x="417" y="72" type="line"/>
      <point x="417" y="30"/>
      <point x="449" y="0"/>
      <point x="494" y="0" type="curve" smooth="yes"/>
      <point x="580" y="0" type="line"/>
      <point x="580" y="120" type="line"/>
      <point x="561" y="120" type="line" smooth="yes"/>
      <point x="542" y="120"/>
      <point x="534" y="131"/>
      <point x="534" y="150" type="curve" smooth="yes"/>
      <point x="534" y="496" type="line"/>
      <point x="408" y="496" type="line"/>
      <point x="408" y="436" type="line"/>
      <point x="390" y="436" type="line"/>
      <point x="365" y="486"/>
      <point x="323" y="510"/>
      <point x="253" y="510" type="curve" smooth="yes"/>
      <point x="136" y="510"/>
      <point x="40" y="414"/>
      <point x="40" y="256" type="curve" smooth="yes"/>
      <point x="40" y="240" type="line" smooth="yes"/>
      <point x="40" y="80"/>
      <point x="140" y="-14"/>
      <point x="259" y="-14" type="curve" smooth="yes"/>
      <point x="323" y="-14"/>
      <point x="373" y="10"/>
      <point x="399" y="72" type="curve"/>
    </contour>
    <contour>
      <point x="287" y="106" type="curve"/>
      <point x="214" y="106"/>
      <point x="166" y="158"/>
      <point x="166" y="242" type="curve" smooth="yes"/>
      <point x="166" y="254" type="line" smooth="yes"/>
      <point x="166" y="338"/>
      <point x="214" y="390"/>
      <point x="287" y="390" type="curve" smooth="yes"/>
      <point x="360" y="390"/>
      <point x="408" y="338"/>
      <point x="408" y="254" type="curve" smooth="yes"/>
      <point x="408" y="242" type="line" smooth="yes"/>
      <point x="408" y="158"/>
      <point x="360" y="106"/>
    </contour>
  </outline>
</glyph>
<glyph name="c" format="1">
  <advance width="612"/>
  <unicode hex="0063"/>
  <outline>
    <contour>
      <point x="438" y="213" type="line"/>
      <point x="426" y="148"/>
      <point x="387" y="106"/>
      <point x="310" y="106" type="curve" smooth="yes"/>
      <point x="238" y="106"/>
      <point x="178" y="152"/>
      <point x="178" y="241" type="curve" smooth="yes"/>
      <point x="178" y="247" type="line" smooth="yes"/>
      <point x="178" y="336"/>
      <point x="238" y="390"/>
      <point x="310" y="390" type="curve" smooth="yes"/>
      <point x="387" y="390"/>
      <point x="430" y="341"/>
      <point x="438" y="282" type="curve"/>
      <point x="562" y="314" type="line"/>
      <point x="540" y="431"/>
      <point x="450" y="510"/>
      <point x="312" y="510" type="curve" smooth="yes"/>
      <point x="167" y="510"/>
      <point x="52" y="410"/>
      <point x="52" y="250" type="curve" smooth="yes"/>
      <point x="52" y="238" type="line" smooth="yes"/>
      <point x="52" y="78"/>
      <point x="166" y="-14"/>
      <point x="312" y="-14" type="curve" smooth="yes"/>
      <point x="453" y="-14"/>
      <point x="540" y="65"/>
      <point x="562" y="182" type="curve"/>
    </contour>
  </outline>
</glyph>
<glyph name="e" format="1">
  <advance width="612"/>
  <unicode hex="0065"/>
  <outline>
    <contour>
      <point x="553" y="207" type="line"/>
      <point x="553" y="274" type="line" smooth="yes"/>
      <point x="553" y="378"/>
      <point x="479" y="510"/>
      <point x="309" y="510" type="curve" smooth="yes"/>
      <point x="171" y="510"/>
      <point x="59" y="408"/>
      <point x="59" y="256" type="curve" smooth="yes"/>
      <point x="59" y="250" type="line" smooth="yes"/>
      <point x="59" y="84"/>
      <point x="163" y="-14"/>
      <point x="311" y="-14" type="curve" smooth="yes"/>
      <point x="443" y="-14"/>
      <point x="502" y="52"/>
      <point x="525" y="102" type="curve"/>
      <point x="417" y="162" type="line"/>
      <point x="403" y="132"/>
      <point x="371" y="106"/>
      <point x="309" y="106" type="curve" smooth="yes"/>
      <point x="245" y="106"/>
      <point x="191" y="148"/>
      <point x="189" y="207" type="curve"/>
    </contour>
    <contour>
      <point x="308" y="396" type="curve"/>
      <point x="372" y="396"/>
      <point x="417" y="362"/>
      <point x="425" y="315" type="curve"/>
      <point x="191" y="315" type="line"/>
      <point x="203" y="358"/>
      <point x="245" y="396"/>
    </contour>
  </outline>
</glyph>
<glyph name="f" format="1">
  <advance width="612"/>
  <unicode hex="0066"/>
  <outline>
    <contour>
      <point x="74" y="376" type="line"/>
      <point x="215" y="376" type="line"/>
      <point x="215" y="0" type="line"/>
      <point x="341" y="0" type="line"/>
      <point x="341" y="376" type="line"/>
      <point x="536" y="376" type="line"/>
      <point x="536" y="496" type="line"/>
      <point x="341" y="496" type="line"/>
      <point x="341" y="550" type="line" smooth="yes"/>
      <point x="341" y="569"/>
      <point x="349" y="580"/>
      <point x="368" y="580" type="curve" smooth="yes"/>
      <point x="518" y="580" type="line"/>
      <point x="518" y="700" type="line"/>
      <point x="316" y="700" type="line" smooth="yes"/>
      <point x="259" y="700"/>
      <point x="215" y="655"/>
      <point x="215" y="598" type="curve" smooth="yes"/>
      <point x="215" y="496" type="line"/>
      <point x="74" y="496" type="line"/>
    </contour>
  </outline>
</glyph>
<glyph name="g" format="1">
  <advance width="612"/>
  <unicode hex="0067"/>
  <outline>
    <contour>
      <point x="432" y="-50" type="line" smooth="yes"/>
      <point x="432" y="-69"/>
      <point x="424" y="-80"/>
      <point x="405" y="-80" type="curve" smooth="yes"/>
      <point x="147" y="-80" type="line"/>
      <point x="147" y="-200" type="line"/>
      <point x="481" y="-200" type="line" smooth="yes"/>
      <point x="526" y="-200"/>
      <point x="558" y="-167"/>
      <point x="558" y="-122" type="curve" smooth="yes"/>
      <point x="558" y="496" type="line"/>
      <point x="432" y="496" type="line"/>
      <point x="432" y="424" type="line"/>
      <point x="414" y="424" type="line"/>
      <point x="388" y="478"/>
      <point x="344" y="510"/>
      <point x="264" y="510" type="curve" smooth="yes"/>
      <point x="143" y="510"/>
      <point x="42" y="416"/>
      <point x="42" y="257" type="curve" smooth="yes"/>
      <point x="42" y="239" type="line" smooth="yes"/>
      <point x="42" y="76"/>
      <point x="137" y="-14"/>
      <point x="259" y="-14" type="curve" smooth="yes"/>
      <point x="354" y="-14"/>
      <point x="394" y="28"/>
      <point x="414" y="72" type="curve"/>
      <point x="432" y="72" type="line"/>
    </contour>
    <contour>
      <point x="300" y="106" type="curve" smooth="yes"/>
      <point x="222" y="106"/>
      <point x="168" y="159"/>
      <point x="168" y="242" type="curve" smooth="yes"/>
      <point x="168" y="254" type="line" smooth="yes"/>
      <point x="168" y="337"/>
      <point x="222" y="390"/>
      <point x="300" y="390" type="curve" smooth="yes"/>
      <point x="378" y="390"/>
      <point x="432" y="335"/>
      <point x="432" y="254" type="curve" smooth="yes"/>
      <point x="432" y="242" type="line" smooth="yes"/>
      <point x="432" y="161"/>
      <point x="378" y="106"/>
    </contour>
  </outline>
</glyph>
<glyph name="m" format="1">
  <advance width="612"/>
  <unicode hex="006D"/>
  <outline>
    <contour>
      <point x="576" y="384" type="line" smooth="yes"/>
      <point x="576" y="462"/>
      <point x="532" y="510"/>
      <point x="466" y="510" type="curve" smooth="yes"/>
      <point x="416" y="510"/>
      <point x="380" y="484"/>
      <point x="369" y="448" type="curve"/>
      <point x="351" y="448" type="line"/>
      <point x="341" y="484"/>
      <point x="308" y="510"/>
      <point x="264" y="510" type="curve" smooth="yes"/>
      <point x="218" y="510"/>
      <point x="188" y="484"/>
      <point x="180" y="448" type="curve"/>
      <point x="162" y="448" type="line"/>
      <point x="162" y="496" type="line"/>
      <point x="36" y="496" type="line"/>
      <point x="36" y="0" type="line"/>
      <point x="162" y="0" type="line"/>
      <point x="162" y="342" type="line" smooth="yes"/>
      <point x="162" y="374"/>
      <point x="180" y="390"/>
      <point x="204" y="390" type="curve" smooth="yes"/>
      <point x="225" y="390"/>
      <point x="243" y="376"/>
      <point x="243" y="348" type="curve" smooth="yes"/>
      <point x="243" y="0" type="line"/>
      <point x="369" y="0" type="line"/>
      <point x="369" y="342" type="line" smooth="yes"/>
      <point x="369" y="374"/>
      <point x="386" y="390"/>
      <point x="412" y="390" type="curve" smooth="yes"/>
      <point x="434" y="390"/>
      <point x="450" y="376"/>
      <point x="450" y="348" type="curve" smooth="yes"/>
      <point x="450" y="0" type="line"/>
      <point x="576" y="0" type="line"/>
    </contour>
  </outline>
</glyph>
<glyph name="n" format="1">
  <advance width="612"/>
  <unicode hex="006E"/>
  <outline>
    <contour>
      <point x="204" y="258" type="line" smooth="yes"/>
      <point x="204" y="342"/>
      <point x="241" y="396"/>
      <point x="315" y="396" type="curve" smooth="yes"/>
      <point x="379" y="396"/>
      <point x="414" y="352"/>
      <point x="414" y="282" type="curve" smooth="yes"/>
      <point x="414" y="0" type="line"/>
      <point x="540" y="0" type="line"/>
      <point x="540" y="314" type="line" smooth="yes"/>
      <point x="540" y="450"/>
      <point x="462" y="510"/>
      <point x="366" y="510" type="curve" smooth="yes"/>
      <point x="298" y="510"/>
      <point x="244" y="478"/>
      <point x="222" y="422" type="curve"/>
      <point x="204" y="422" type="line"/>
      <point x="204" y="496" type="line"/>
      <point x="78" y="496" type="line"/>
      <point x="78" y="0" type="line"/>
      <point x="204" y="0" type="line"/>
    </contour>
  </outline>
</glyph>
<glyph name="o" format="1">
  <advance width="612"/>
  <unicode hex="006F"/>
  <outline>
    <contour>
      <point x="564" y="254" type="line" smooth="yes"/>
      <point x="564" y="416"/>
      <point x="442" y="510"/>
      <point x="306" y="510" type="curve" smooth="yes"/>
      <point x="170" y="510"/>
      <point x="48" y="416"/>
      <point x="48" y="254" type="curve" smooth="yes"/>
      <point x="48" y="242" type="line" smooth="yes"/>
      <point x="48" y="78"/>
      <point x="170" y="-14"/>
      <point x="306" y="-14" type="curve" smooth="yes"/>
      <point x="442" y="-14"/>
      <point x="564" y="78"/>
      <point x="564" y="242" type="curve" smooth="yes"/>
    </contour>
    <contour>
      <point x="306" y="106" type="curve" smooth="yes"/>
      <point x="233" y="106"/>
      <point x="174" y="156"/>
      <point x="174" y="238" type="curve" smooth="yes"/>
      <point x="174" y="258" type="line" smooth="yes"/>
      <point x="174" y="340"/>
      <point x="233" y="390"/>
      <point x="306" y="390" type="curve" smooth="yes"/>
      <point x="379" y="390"/>
      <point x="438" y="340"/>
      <point x="438" y="258" type="curve" smooth="yes"/>
      <point x="438" y="238" type="line" smooth="yes"/>
      <point x="438" y="156"/>
      <point x="379" y="106"/>
    </contour>
  </outline>
</glyph>
<glyph name="s" format="1">
  <advance width="612"/>
  <unicode hex="0073"/>
  <outline>
    <contour>
      <point x="236" y="356" type="curve" smooth="yes"/>
      <point x="236" y="378"/>
      <point x="258" y="396"/>
      <point x="300" y="396" type="curve" smooth="yes"/>
      <point x="346" y="396"/>
      <point x="376" y="374"/>
      <point x="388" y="338" type="curve"/>
      <point x="502" y="384" type="line"/>
      <point x="481" y="441"/>
      <point x="426" y="510"/>
      <point x="300" y="510" type="curve" smooth="yes"/>
      <point x="204" y="510"/>
      <point x="112" y="456"/>
      <point x="112" y="358" type="curve" smooth="yes"/>
      <point x="112" y="352" type="line" smooth="yes"/>
      <point x="112" y="258"/>
      <point x="184" y="210"/>
      <point x="295" y="201" type="curve" smooth="yes"/>
      <point x="379" y="194"/>
      <point x="400" y="172"/>
      <point x="400" y="146" type="curve" smooth="yes"/>
      <point x="400" y="123"/>
      <point x="380" y="100"/>
      <point x="318" y="100" type="curve" smooth="yes"/>
      <point x="248" y="100"/>
      <point x="216" y="138"/>
      <point x="206" y="180" type="curve"/>
      <point x="90" y="142" type="line"/>
      <point x="104" y="74"/>
      <point x="164" y="-14"/>
      <point x="318" y="-14" type="curve" smooth="yes"/>
      <point x="448" y="-14"/>
      <point x="524" y="50"/>
      <point x="524" y="148" type="curve" smooth="yes"/>
      <point x="524" y="154" type="line" smooth="yes"/>
      <point x="524" y="243"/>
      <point x="453" y="293"/>
      <point x="352" y="304" type="curve" smooth="yes"/>
      <point x="264" y="314"/>
      <point x="236" y="324"/>
    </contour>
  </outline>
</glyph>
<glyph name="t" format="1">
  <advance width="612"/>
  <unicode hex="0074"/>
  <outline>
    <contour>
      <point x="64" y="376" type="line"/>
      <point x="211" y="376" type="line"/>
      <point x="211" y="78" type="line" smooth="yes"/>
      <point x="211" y="33"/>
      <point x="243" y="0"/>
      <point x="288" y="0" type="curve" smooth="yes"/>
      <point x="498" y="0" type="line"/>
      <point x="498" y="120" type="line"/>
      <point x="364" y="120" type="line" smooth="yes"/>
      <point x="345" y="120"/>
      <point x="337" y="131"/>
      <point x="337" y="150" type="curve" smooth="yes"/>
      <point x="337" y="376" type="line"/>
      <point x="516" y="376" type="line"/>
      <point x="516" y="496" type="line"/>
      <point x="337" y="496" type="line"/>
      <point x="337" y="700" type="line"/>
      <point x="211" y="700" type="line"/>
      <point x="211" y="496" type="line"/>
      <point x="64" y="496" type="line"/>
    </contour>
  </outline>
</glyph>
<glyph name="bar" format="1">
  <advance width="612"/>
  <unicode hex="007C"/>
  <outline>
    <contour>
      <point x="366" y="856" type="line"/>
      <point x="246" y="856" type="line"/>
      <point x="246" y="-156" type="line"/>
      <point x="366" y="-156" type="line"/>
    </contour>
  </outline>
</glyph>
<glyph name="braceright" format="1">
  <advance width="612"/>
  <unicode hex="007D"/>
  <outline>
    <contour>
      <point x="356" y="754" type="line"/>
      <point x="356" y="814"/>
      <point x="314" y="856"/>
      <point x="254" y="856" type="curve" smooth="yes"/>
      <point x="122" y="856" type="line"/>
      <point x="122" y="736" type="line"/>
      <point x="203" y="736" type="line" smooth="yes"/>
      <point x="222" y="736"/>
      <point x="230" y="725"/>
      <point x="230" y="706" type="curve" smooth="yes"/>
      <point x="230" y="437" type="line" smooth="yes"/>
      <point x="230" y="392"/>
      <point x="261" y="359"/>
      <point x="308" y="359" type="curve" smooth="yes"/>
      <point x="314" y="359" type="line"/>
      <point x="314" y="341" type="line"/>
      <point x="308" y="341" type="line" smooth="yes"/>
      <point x="261" y="341"/>
      <point x="230" y="308"/>
      <point x="230" y="263" type="curve" smooth="yes"/>
      <point x="230" y="-6" type="line" smooth="yes"/>
      <point x="230" y="-25"/>
      <point x="222" y="-36"/>
      <point x="203" y="-36" type="curve" smooth="yes"/>
      <point x="122" y="-36" type="line"/>
      <point x="122" y="-156" type="line"/>
      <point x="254" y="-156" type="line" smooth="yes"/>
      <point x="314" y="-156"/>
      <point x="356" y="-114"/>
      <point x="356" y="-54" type="curve" smooth="yes"/>
      <point x="356" y="249" type="line" smooth="yes"/>
      <point x="356" y="268"/>
      <point x="364" y="278"/>
      <point x="383" y="278" type="curve" smooth="yes"/>
      <point x="446" y="278" type="line"/>
      <point x="446" y="422" type="line"/>
      <point x="383" y="422" type="line" smooth="yes"/>
      <point x="364" y="422"/>
      <point x="356" y="432"/>
      <point x="356" y="451" type="curve" smooth="yes"/>
    </contour>
  </outline>
</glyph>
<glyph name="cent" format="1">
  <advance width="612"/>
  <unicode hex="00A2"/>
  <outline>
    <contour>
      <point x="360" y="672" type="line"/>
      <point x="264" y="672" type="line"/>
      <point x="264" y="607" type="line"/>
      <point x="147" y="587"/>
      <point x="56" y="494"/>
      <point x="56" y="354" type="curve" smooth="yes"/>
      <point x="56" y="342" type="line" smooth="yes"/>
      <point x="56" y="199"/>
      <point x="146" y="110"/>
      <point x="264" y="91" type="curve"/>
      <point x="264" y="28" type="line"/>
      <point x="360" y="28" type="line"/>
      <point x="360" y="91" type="line"/>
      <point x="466" y="108"/>
      <point x="538" y="180"/>
      <point x="556" y="278" type="curve"/>
      <point x="444" y="304" type="line"/>
      <point x="434" y="261"/>
      <point x="411" y="217"/>
      <point x="360" y="202" type="curve"/>
      <point x="360" y="498" type="line"/>
      <point x="410" y="483"/>
      <point x="434" y="442"/>
      <point x="442" y="396" type="curve"/>
      <point x="554" y="422" type="line"/>
      <point x="538" y="520"/>
      <point x="464" y="592"/>
      <point x="360" y="608" type="curve"/>
    </contour>
    <contour>
      <point x="170" y="345" type="curve"/>
      <point x="170" y="351" type="line" smooth="yes"/>
      <point x="170" y="422"/>
      <point x="209" y="475"/>
      <point x="264" y="495" type="curve"/>
      <point x="264" y="204" type="line"/>
      <point x="208" y="222"/>
      <point x="170" y="271"/>
    </contour>
  </outline>
</glyph>
<glyph name="sterling" format="1">
  <advance width="612"/>
  <unicode hex="00A3"/>
  <outline>
    <contour>
      <point x="278" y="442" type="line" smooth="yes"/>
      <point x="278" y="474"/>
      <point x="294" y="504"/>
      <point x="336" y="504" type="curve" smooth="yes"/>
      <point x="378" y="504"/>
      <point x="394" y="474"/>
      <point x="394" y="442" type="curve" smooth="yes"/>
      <point x="394" y="422" type="line"/>
      <point x="508" y="422" type="line"/>
      <point x="508" y="440" type="line" smooth="yes"/>
      <point x="508" y="550"/>
      <point x="436" y="612"/>
      <point x="336" y="612" type="curve" smooth="yes"/>
      <point x="234" y="612"/>
      <point x="164" y="550"/>
      <point x="164" y="438" type="curve" smooth="yes"/>
      <point x="164" y="378" type="line"/>
      <point x="104" y="378" type="line"/>
      <point x="104" y="282" type="line"/>
      <point x="164" y="282" type="line"/>
      <point x="164" y="210" type="line"/>
      <point x="104" y="210" type="line"/>
      <point x="104" y="102" type="line"/>
      <point x="496" y="102" type="line"/>
      <point x="496" y="210" type="line"/>
      <point x="278" y="210" type="line"/>
      <point x="278" y="282" type="line"/>
      <point x="350" y="282" type="line"/>
      <point x="350" y="378" type="line"/>
      <point x="278" y="378" type="line"/>
    </contour>
  </outline>
</glyph>
<glyph name="section" format="1">
  <advance width="612"/>
  <unicode hex="00A7"/>
  <outline>
    <contour>
      <point x="352" y="594" type="line"/>
      <point x="442" y="594" type="line"/>
      <point x="442" y="600" type="line" smooth="yes"/>
      <point x="442" y="662"/>
      <point x="396" y="714"/>
      <point x="310" y="714" type="curve" smooth="yes"/>
      <point x="239" y="714"/>
      <point x="184" y="676"/>
      <point x="184" y="606" type="curve" smooth="yes"/>
      <point x="184" y="582"/>
      <point x="189" y="567"/>
      <point x="197" y="551" type="curve"/>
      <point x="186" y="536"/>
      <point x="178" y="514"/>
      <point x="178" y="486" type="curve" smooth="yes"/>
      <point x="178" y="412"/>
      <point x="235" y="382"/>
      <point x="294" y="371" type="curve" smooth="yes"/>
      <point x="350" y="361"/>
      <point x="356" y="348"/>
      <point x="356" y="332" type="curve" smooth="yes"/>
      <point x="356" y="316"/>
      <point x="344" y="302"/>
      <point x="312" y="302" type="curve" smooth="yes"/>
      <point x="280" y="302"/>
      <point x="258" y="318"/>
      <point x="258" y="347" type="curve" smooth="yes"/>
      <point x="258" y="353" type="line"/>
      <point x="168" y="353" type="line"/>
      <point x="168" y="347" type="line" smooth="yes"/>
      <point x="168" y="274"/>
      <point x="218" y="218"/>
      <point x="312" y="218" type="curve" smooth="yes"/>
      <point x="396" y="218"/>
      <point x="446" y="268"/>
      <point x="446" y="336" type="curve" smooth="yes"/>
      <point x="446" y="358"/>
      <point x="441" y="376"/>
      <point x="434" y="388" type="curve"/>
      <point x="447" y="406"/>
      <point x="452" y="431"/>
      <point x="452" y="452" type="curve" smooth="yes"/>
      <point x="452" y="520"/>
      <point x="411" y="556"/>
      <point x="340" y="569" type="curve" smooth="yes"/>
      <point x="284" y="579"/>
      <point x="274" y="588"/>
      <point x="274" y="606" type="curve" smooth="yes"/>
      <point x="274" y="619"/>
      <point x="286" y="630"/>
      <point x="310" y="630" type="curve" smooth="yes"/>
      <point x="340" y="630"/>
      <point x="352" y="616"/>
      <point x="352" y="598" type="curve" smooth="yes"/>
    </contour>
    <contour>
      <point x="320" y="450" type="line" smooth="yes"/>
      <point x="278" y="461"/>
      <point x="272" y="474"/>
      <point x="272" y="487" type="curve" smooth="yes"/>
      <point x="272" y="491"/>
      <point x="273" y="496"/>
      <point x="275" y="499" type="curve"/>
      <point x="311" y="491" type="line" smooth="yes"/>
      <point x="350" y="482"/>
      <point x="358" y="470"/>
      <point x="358" y="451" type="curve" smooth="yes"/>
      <point x="358" y="447"/>
      <point x="357" y="443"/>
      <point x="356" y="441" type="curve"/>
    </contour>
  </outline>
</glyph>
<glyph name="ordfeminine" format="1">
  <advance width="612"/>
  <unicode hex="00AA"/>
  <outline>
    <contour>
      <point x="356" y="446" type="line"/>
      <point x="358" y="426"/>
      <point x="372" y="412"/>
      <point x="396" y="412" type="curve" smooth="yes"/>
      <point x="472" y="412" type="line"/>
      <point x="472" y="490" type="line"/>
      <point x="452" y="490" type="line" smooth="yes"/>
      <point x="441" y="490"/>
      <point x="436" y="497"/>
      <point x="436" y="507" type="curve" smooth="yes"/>
      <point x="436" y="700" type="line"/>
      <point x="356" y="700" type="line"/>
      <point x="356" y="672" type="line"/>
      <point x="347" y="672" type="line"/>
      <point x="332" y="692"/>
      <point x="312" y="706"/>
      <point x="272" y="706" type="curve" smooth="yes"/>
      <point x="198" y="706"/>
      <point x="138" y="651"/>
      <point x="138" y="556" type="curve" smooth="yes"/>
      <point x="138" y="459"/>
      <point x="198" y="406"/>
      <point x="270" y="406" type="curve" smooth="yes"/>
      <point x="308" y="406"/>
      <point x="334" y="422"/>
      <point x="347" y="446" type="curve"/>
    </contour>
    <contour>
      <point x="287" y="484" type="curve"/>
      <point x="247" y="484"/>
      <point x="222" y="512"/>
      <point x="222" y="556" type="curve" smooth="yes"/>
      <point x="222" y="600"/>
      <point x="247" y="628"/>
      <point x="287" y="628" type="curve" smooth="yes"/>
      <point x="327" y="628"/>
      <point x="352" y="600"/>
      <point x="352" y="556" type="curve" smooth="yes"/>
      <point x="352" y="512"/>
      <point x="327" y="484"/>
    </contour>
  </outline>
</glyph>
<glyph name="twosuperior" format="1">
  <advance width="612"/>
  <unicode hex="00B2"/>
  <outline>
    <contour>
      <point x="278" y="484" type="line"/>
      <point x="278" y="504"/>
      <point x="292" y="510"/>
      <point x="344" y="524" type="curve" smooth="yes"/>
      <point x="386" y="535"/>
      <point x="416" y="562"/>
      <point x="416" y="616" type="curve" smooth="yes"/>
      <point x="416" y="664"/>
      <point x="375" y="706"/>
      <point x="313" y="706" type="curve" smooth="yes"/>
      <point x="243" y="706"/>
      <point x="200" y="666"/>
      <point x="200" y="604" type="curve" smooth="yes"/>
      <point x="200" y="598" type="line"/>
      <point x="278" y="598" type="line"/>
      <point x="278" y="622"/>
      <point x="290" y="634"/>
      <point x="309" y="634" type="curve" smooth="yes"/>
      <point x="328" y="634"/>
      <point x="338" y="622"/>
      <point x="338" y="608" type="curve" smooth="yes"/>
      <point x="338" y="593"/>
      <point x="332" y="585"/>
      <point x="288" y="574" type="curve" smooth="yes"/>
      <point x="244" y="563"/>
      <point x="200" y="538"/>
      <point x="200" y="478" type="curve" smooth="yes"/>
      <point x="200" y="412" type="line"/>
      <point x="413" y="412" type="line"/>
      <point x="413" y="484" type="line"/>
    </contour>
  </outline>
</glyph>
<glyph name="threesuperior" format="1">
  <advance width="612"/>
  <unicode hex="00B3"/>
  <outline>
    <contour>
      <point x="200" y="512" type="line"/>
      <point x="278" y="512" type="line"/>
      <point x="278" y="506" type="line" smooth="yes"/>
      <point x="278" y="488"/>
      <point x="290" y="478"/>
      <point x="308" y="478" type="curve" smooth="yes"/>
      <point x="326" y="478"/>
      <point x="338" y="488"/>
      <point x="338" y="506" type="curve" smooth="yes"/>
      <point x="338" y="525"/>
      <point x="326" y="536"/>
      <point x="304" y="536" type="curve" smooth="yes"/>
      <point x="278" y="536" type="line"/>
      <point x="278" y="606" type="line"/>
      <point x="324" y="621" type="line"/>
      <point x="324" y="630" type="line"/>
      <point x="209" y="630" type="line"/>
      <point x="209" y="700" type="line"/>
      <point x="402" y="700" type="line"/>
      <point x="402" y="602" type="line"/>
      <point x="356" y="585" type="line"/>
      <point x="356" y="576" type="line"/>
      <point x="386" y="570"/>
      <point x="416" y="546"/>
      <point x="416" y="502" type="curve" smooth="yes"/>
      <point x="416" y="445"/>
      <point x="376" y="406"/>
      <point x="312" y="406" type="curve" smooth="yes"/>
      <point x="236" y="406"/>
      <point x="200" y="452"/>
      <point x="200" y="500" type="curve" smooth="yes"/>
    </contour>
  </outline>
</glyph>
<glyph name="mu" format="1">
  <advance width="612"/>
  <unicode hex="00B5"/>
  <outline>
    <contour>
      <point x="411" y="0" type="line"/>
      <point x="537" y="0" type="line"/>
      <point x="537" y="496" type="line"/>
      <point x="411" y="496" type="line"/>
      <point x="411" y="220" type="line" smooth="yes"/>
      <point x="411" y="154"/>
      <point x="386" y="100"/>
      <point x="306" y="100" type="curve" smooth="yes"/>
      <point x="226" y="100"/>
      <point x="201" y="154"/>
      <point x="201" y="220" type="curve" smooth="yes"/>
      <point x="201" y="496" type="line"/>
      <point x="75" y="496" type="line"/>
      <point x="75" y="-200" type="line"/>
      <point x="201" y="-200" type="line"/>
      <point x="201" y="30" type="line"/>
      <point x="219" y="30" type="line"/>
      <point x="232" y="4"/>
      <point x="259" y="-14"/>
      <point x="306" y="-14" type="curve" smooth="yes"/>
      <point x="353" y="-14"/>
      <point x="380" y="4"/>
      <point x="393" y="30" type="curve"/>
      <point x="411" y="30" type="line"/>
    </contour>
  </outline>
</glyph>
<glyph name="onesuperior" format="1">
  <advance width="612"/>
  <unicode hex="00B9"/>
  <outline>
    <contour>
      <point x="204" y="484" type="line"/>
      <point x="204" y="412" type="line"/>
      <point x="432" y="412" type="line"/>
      <point x="432" y="484" type="line"/>
      <point x="360" y="484" type="line"/>
      <point x="360" y="700" type="line"/>
      <point x="270" y="700" type="line"/>
      <point x="198" y="646" type="line"/>
      <point x="198" y="556" type="line"/>
      <point x="204" y="556" type="line"/>
      <point x="276" y="616" type="line"/>
      <point x="282" y="616" type="line"/>
      <point x="282" y="484" type="line"/>
    </contour>
  </outline>
</glyph>
<glyph name="multiply" format="1">
  <advance width="612"/>
  <unicode hex="00D7"/>
  <outline>
    <contour>
      <point x="439" y="562" type="line"/>
      <point x="306" y="431" type="line"/>
      <point x="173" y="562" type="line"/>
      <point x="92" y="481" type="line"/>
      <point x="224" y="350" type="line"/>
      <point x="92" y="219" type="line"/>
      <point x="173" y="138" type="line"/>
      <point x="306" y="269" type="line"/>
      <point x="439" y="138" type="line"/>
      <point x="520" y="219" type="line"/>
      <point x="388" y="350" type="line"/>
      <point x="520" y="481" type="line"/>
    </contour>
  </outline>
</glyph>
<glyph name="germandbls" format="1">
  <advance width="612"/>
  <unicode hex="00DF"/>
  <outline>
    <contour>
      <point x="350" y="364" type="line"/>
      <point x="434" y="368"/>
      <point x="500" y="423"/>
      <point x="500" y="526" type="curve" smooth="yes"/>
      <point x="500" y="532" type="line" smooth="yes"/>
      <point x="500" y="644"/>
      <point x="406" y="714"/>
      <point x="290" y="714" type="curve" smooth="yes"/>
      <point x="174" y="714"/>
      <point x="74" y="646"/>
      <point x="74" y="514" type="curve" smooth="yes"/>
      <point x="74" y="496" type="line"/>
      <point x="14" y="496" type="line"/>
      <point x="14" y="376" type="line"/>
      <point x="74" y="376" type="line"/>
      <point x="74" y="0" type="line"/>
      <point x="200" y="0" type="line"/>
      <point x="200" y="496" type="line" smooth="yes"/>
      <point x="200" y="560"/>
      <point x="238" y="594"/>
      <point x="294" y="594" type="curve" smooth="yes"/>
      <point x="342" y="594"/>
      <point x="374" y="566"/>
      <point x="374" y="528" type="curve" smooth="yes"/>
      <point x="374" y="486"/>
      <point x="344" y="466"/>
      <point x="304" y="466" type="curve" smooth="yes"/>
      <point x="266" y="466" type="line"/>
      <point x="266" y="238" type="line"/>
      <point x="360" y="238" type="line" smooth="yes"/>
      <point x="419" y="238"/>
      <point x="456" y="216"/>
      <point x="456" y="164" type="curve" smooth="yes"/>
      <point x="456" y="130"/>
      <point x="438" y="106"/>
      <point x="404" y="106" type="curve" smooth="yes"/>
      <point x="370" y="106"/>
      <point x="354" y="128"/>
      <point x="352" y="156" type="curve"/>
      <point x="230" y="132" type="line"/>
      <point x="238" y="56"/>
      <point x="294" y="-14"/>
      <point x="400" y="-14" type="curve" smooth="yes"/>
      <point x="518" y="-14"/>
      <point x="582" y="60"/>
      <point x="582" y="160" type="curve" smooth="yes"/>
      <point x="582" y="166" type="line" smooth="yes"/>
      <point x="582" y="294"/>
      <point x="488" y="346"/>
      <point x="394" y="346" type="curve" smooth="yes"/>
      <point x="350" y="346" type="line"/>
    </contour>
  </outline>
</glyph>
<glyph name="eth" format="1">
  <advance width="612"/>
  <unicode hex="00F0"/>
  <outline>
    <contour>
      <point x="260" y="752" type="line"/>
      <point x="248" y="714" type="line"/>
      <point x="222" y="720"/>
      <point x="195" y="725"/>
      <point x="167" y="728" type="curve"/>
      <point x="147" y="614" type="line"/>
      <point x="170" y="611"/>
      <point x="192" y="608"/>
      <point x="213" y="603" type="curve"/>
      <point x="200" y="561" type="line"/>
      <point x="298" y="532" type="line"/>
      <point x="310" y="570" type="line"/>
      <point x="356" y="545"/>
      <point x="390" y="511"/>
      <point x="409" y="464" type="curve"/>
      <point x="391" y="464" type="line"/>
      <point x="365" y="496"/>
      <point x="329" y="510"/>
      <point x="267" y="510" type="curve" smooth="yes"/>
      <point x="151" y="510"/>
      <point x="47" y="416"/>
      <point x="47" y="254" type="curve" smooth="yes"/>
      <point x="47" y="242" type="line" smooth="yes"/>
      <point x="47" y="82"/>
      <point x="163" y="-14"/>
      <point x="301" y="-14" type="curve" smooth="yes"/>
      <point x="453" y="-14"/>
      <point x="565" y="88"/>
      <point x="565" y="291" type="curve" smooth="yes"/>
      <point x="565" y="461"/>
      <point x="501" y="607"/>
      <point x="345" y="681" type="curve"/>
      <point x="358" y="723" type="line"/>
    </contour>
    <contour>
      <point x="302" y="106" type="curve" smooth="yes"/>
      <point x="225" y="106"/>
      <point x="173" y="157"/>
      <point x="173" y="245" type="curve" smooth="yes"/>
      <point x="173" y="251" type="line" smooth="yes"/>
      <point x="173" y="335"/>
      <point x="225" y="390"/>
      <point x="302" y="390" type="curve" smooth="yes"/>
      <point x="379" y="390"/>
      <point x="432" y="338"/>
      <point x="432" y="254" type="curve" smooth="yes"/>
      <point x="432" y="154"/>
      <point x="379" y="106"/>
    </contour>
  </outline>
</glyph>
<glyph name="oslash" format="1">
  <advance width="612"/>
  <unicode hex="00F8"/>
  <outline>
    <contour>
      <point x="564" y="254" type="line" smooth="yes"/>
      <point x="564" y="358"/>
      <point x="513" y="434"/>
      <point x="441" y="475" type="curve"/>
      <point x="460" y="531" type="line"/>
      <point x="351" y="565" type="line"/>
      <point x="332" y="509" type="line"/>
      <point x="324" y="510"/>
      <point x="315" y="510"/>
      <point x="306" y="510" type="curve" smooth="yes"/>
      <point x="170" y="510"/>
      <point x="48" y="416"/>
      <point x="48" y="254" type="curve" smooth="yes"/>
      <point x="48" y="242" type="line" smooth="yes"/>
      <point x="48" y="136"/>
      <point x="99" y="60"/>
      <point x="171" y="20" type="curve"/>
      <point x="152" y="-39" type="line"/>
      <point x="262" y="-73" type="line"/>
      <point x="281" y="-13" type="line"/>
      <point x="289" y="-13"/>
      <point x="298" y="-14"/>
      <point x="306" y="-14" type="curve" smooth="yes"/>
      <point x="442" y="-14"/>
      <point x="564" y="78"/>
      <point x="564" y="242" type="curve" smooth="yes"/>
    </contour>
    <contour>
      <point x="174" y="238" type="curve"/>
      <point x="174" y="258" type="line" smooth="yes"/>
      <point x="174" y="335"/>
      <point x="226" y="384"/>
      <point x="293" y="389" type="curve"/>
      <point x="212" y="142" type="line"/>
      <point x="189" y="164"/>
      <point x="174" y="197"/>
    </contour>
    <contour>
      <point x="438" y="258" type="curve"/>
      <point x="438" y="238" type="line" smooth="yes"/>
      <point x="438" y="161"/>
      <point x="387" y="113"/>
      <point x="321" y="107" type="curve"/>
      <point x="402" y="352" type="line"/>
      <point x="425" y="329"/>
      <point x="438" y="298"/>
    </contour>
  </outline>
</glyph>
<glyph name="thorn" format="1">
  <advance width="612"/>
  <unicode hex="00FE"/>
  <outline>
    <contour>
      <point x="306" y="106" type="curve"/>
      <point x="228" y="106"/>
      <point x="174" y="161"/>
      <point x="174" y="242" type="curve" smooth="yes"/>
      <point x="174" y="254" type="line" smooth="yes"/>
      <point x="174" y="335"/>
      <point x="228" y="390"/>
      <point x="306" y="390" type="curve" smooth="yes"/>
      <point x="384" y="390"/>
      <point x="438" y="337"/>
      <point x="438" y="254" type="curve" smooth="yes"/>
      <point x="438" y="242" type="line" smooth="yes"/>
      <point x="438" y="159"/>
      <point x="384" y="106"/>
    </contour>
    <contour>
      <point x="174" y="72" type="line"/>
      <point x="192" y="72" type="line"/>
      <point x="215" y="28"/>
      <point x="257" y="-14"/>
      <point x="347" y="-14" type="curve" smooth="yes"/>
      <point x="469" y="-14"/>
      <point x="564" y="76"/>
      <point x="564" y="239" type="curve" smooth="yes"/>
      <point x="564" y="257" type="line" smooth="yes"/>
      <point x="564" y="416"/>
      <point x="464" y="510"/>
      <point x="347" y="510" type="curve" smooth="yes"/>
      <point x="269" y="510"/>
      <point x="219" y="478"/>
      <point x="192" y="424" type="curve"/>
      <point x="174" y="424" type="line"/>
      <point x="174" y="700" type="line"/>
      <point x="48" y="700" type="line"/>
      <point x="48" y="-212" type="line"/>
      <point x="174" y="-212" type="line"/>
    </contour>
  </outline>
</glyph>
<glyph name="Aogonek" format="1">
  <advance width="612"/>
  <unicode hex="0104"/>
  <outline>
    <contour>
      <point x="459" y="0" type="line"/>
      <point x="443" y="-72" type="line" smooth="yes"/>
      <point x="441" y="-81"/>
      <point x="440" y="-88"/>
      <point x="440" y="-95" type="curve" smooth="yes"/>
      <point x="440" y="-144"/>
      <point x="480" y="-170"/>
      <point x="520" y="-170" type="curve" smooth="yes"/>
      <point x="600" y="-170" type="line"/>
      <point x="600" y="-86" type="line"/>
      <point x="554" y="-86" type="line" smooth="yes"/>
      <point x="540" y="-86"/>
      <point x="531" y="-78"/>
      <point x="531" y="-64" type="curve" smooth="yes"/>
      <point x="531" y="-62"/>
      <point x="531" y="-61"/>
      <point x="532" y="-56" type="curve" smooth="yes"/>
      <point x="545" y="0" type="line"/>
      <point x="597" y="0" type="line"/>
      <point x="430" y="700" type="line"/>
      <point x="182" y="700" type="line"/>
      <point x="15" y="0" type="line"/>
      <point x="153" y="0" type="line"/>
      <point x="187" y="150" type="line"/>
      <point x="425" y="150" type="line"/>
    </contour>
    <contour>
      <point x="297" y="634" type="line"/>
      <point x="315" y="634" type="line"/>
      <point x="396" y="276" type="line"/>
      <point x="215" y="276" type="line"/>
    </contour>
  </outline>
</glyph>
<glyph name="aogonek" format="1">
  <advance width="612"/>
  <unicode hex="0105"/>
  <outline>
    <contour>
      <point x="417" y="72" type="line"/>
      <point x="417" y="49"/>
      <point x="427" y="29"/>
      <point x="443" y="16" type="curve"/>
      <point x="423" y="-72" type="line" smooth="yes"/>
      <point x="421" y="-81"/>
      <point x="420" y="-88"/>
      <point x="420" y="-95" type="curve" smooth="yes"/>
      <point x="420" y="-144"/>
      <point x="460" y="-170"/>
      <point x="500" y="-170" type="curve" smooth="yes"/>
      <point x="580" y="-170" type="line"/>
      <point x="580" y="-86" type="line"/>
      <point x="534" y="-86" type="line" smooth="yes"/>
      <point x="520" y="-86"/>
      <point x="511" y="-78"/>
      <point x="511" y="-64" type="curve" smooth="yes"/>
      <point x="511" y="-62"/>
      <point x="511" y="-61"/>
      <point x="512" y="-56" type="curve" smooth="yes"/>
      <point x="525" y="0" type="line"/>
      <point x="580" y="0" type="line"/>
      <point x="580" y="120" type="line"/>
      <point x="561" y="120" type="line" smooth="yes"/>
      <point x="542" y="120"/>
      <point x="534" y="131"/>
      <point x="534" y="150" type="curve" smooth="yes"/>
      <point x="534" y="496" type="line"/>
      <point x="408" y="496" type="line"/>
      <point x="408" y="436" type="line"/>
      <point x="390" y="436" type="line"/>
      <point x="365" y="486"/>
      <point x="323" y="510"/>
      <point x="253" y="510" type="curve" smooth="yes"/>
      <point x="136" y="510"/>
      <point x="40" y="414"/>
      <point x="40" y="256" type="curve" smooth="yes"/>
      <point x="40" y="240" type="line" smooth="yes"/>
      <point x="40" y="80"/>
      <point x="140" y="-14"/>
      <point x="259" y="-14" type="curve" smooth="yes"/>
      <point x="323" y="-14"/>
      <point x="373" y="10"/>
      <point x="399" y="72" type="curve"/>
    </contour>
    <contour>
      <point x="287" y="106" type="curve" smooth="yes"/>
      <point x="214" y="106"/>
      <point x="166" y="158"/>
      <point x="166" y="242" type="curve" smooth="yes"/>
      <point x="166" y="254" type="line" smooth="yes"/>
      <point x="166" y="338"/>
      <point x="214" y="390"/>
      <point x="287" y="390" type="curve" smooth="yes"/>
      <point x="360" y="390"/>
      <point x="408" y="338"/>
      <point x="408" y="254" type="curve" smooth="yes"/>
      <point x="408" y="242" type="line" smooth="yes"/>
      <point x="408" y="158"/>
      <point x="360" y="106"/>
    </contour>
  </outline>
</glyph>
<glyph name="Dcroat" format="1">
  <advance width="612"/>
  <unicode hex="0110"/>
  <outline>
    <contour>
      <point x="46" y="290" type="line"/>
      <point x="112" y="290" type="line"/>
      <point x="112" y="126" type="line"/>
      <point x="46" y="126" type="line"/>
      <point x="46" y="0" type="line"/>
      <point x="300" y="0" type="line" smooth="yes"/>
      <point x="472" y="0"/>
      <point x="556" y="80"/>
      <point x="556" y="248" type="curve" smooth="yes"/>
      <point x="556" y="452" type="line" smooth="yes"/>
      <point x="556" y="620"/>
      <point x="472" y="700"/>
      <point x="300" y="700" type="curve" smooth="yes"/>
      <point x="46" y="700" type="line"/>
      <point x="46" y="574" type="line"/>
      <point x="112" y="574" type="line"/>
      <point x="112" y="410" type="line"/>
      <point x="46" y="410" type="line"/>
    </contour>
    <contour>
      <point x="300" y="126" type="curve"/>
      <point x="244" y="126" type="line"/>
      <point x="244" y="290" type="line"/>
      <point x="342" y="290" type="line"/>
      <point x="342" y="410" type="line"/>
      <point x="244" y="410" type="line"/>
      <point x="244" y="574" type="line"/>
      <point x="300" y="574" type="line" smooth="yes"/>
      <point x="392" y="574"/>
      <point x="424" y="532"/>
      <point x="424" y="452" type="curve" smooth="yes"/>
      <point x="424" y="260" type="line" smooth="yes"/>
      <point x="424" y="168"/>
      <point x="392" y="126"/>
    </contour>
  </outline>
</glyph>
<glyph name="dcroat" format="1">
  <advance width="612"/>
  <unicode hex="0111"/>
  <outline>
    <contour>
      <point x="426" y="0" type="line"/>
      <point x="552" y="0" type="line"/>
      <point x="552" y="538" type="line"/>
      <point x="612" y="538" type="line"/>
      <point x="612" y="652" type="line"/>
      <point x="552" y="652" type="line"/>
      <point x="552" y="700" type="line"/>
      <point x="426" y="700" type="line"/>
      <point x="426" y="652" type="line"/>
      <point x="270" y="652" type="line"/>
      <point x="270" y="538" type="line"/>
      <point x="426" y="538" type="line"/>
      <point x="426" y="424" type="line"/>
      <point x="408" y="424" type="line"/>
      <point x="382" y="478"/>
      <point x="338" y="510"/>
      <point x="258" y="510" type="curve" smooth="yes"/>
      <point x="137" y="510"/>
      <point x="36" y="416"/>
      <point x="36" y="257" type="curve" smooth="yes"/>
      <point x="36" y="239" type="line" smooth="yes"/>
      <point x="36" y="76"/>
      <point x="131" y="-14"/>
      <point x="253" y="-14" type="curve" smooth="yes"/>
      <point x="348" y="-14"/>
      <point x="388" y="28"/>
      <point x="408" y="72" type="curve"/>
      <point x="426" y="72" type="line"/>
    </contour>
    <contour>
      <point x="294" y="106" type="curve" smooth="yes"/>
      <point x="216" y="106"/>
      <point x="162" y="159"/>
      <point x="162" y="242" type="curve" smooth="yes"/>
      <point x="162" y="254" type="line" smooth="yes"/>
      <point x="162" y="337"/>
      <point x="216" y="390"/>
      <point x="294" y="390" type="curve" smooth="yes"/>
      <point x="372" y="390"/>
      <point x="426" y="335"/>
      <point x="426" y="254" type="curve" smooth="yes"/>
      <point x="426" y="242" type="line" smooth="yes"/>
      <point x="426" y="161"/>
      <point x="372" y="106"/>
    </contour>
  </outline>
</glyph>
<glyph name="Eogonek" format="1">
  <advance width="612"/>
  <unicode hex="0118"/>
  <outline>
    <contour>
      <point x="82" y="0" type="line"/>
      <point x="450" y="0" type="line"/>
      <point x="434" y="-72" type="line" smooth="yes"/>
      <point x="432" y="-81"/>
      <point x="431" y="-88"/>
      <point x="431" y="-95" type="curve" smooth="yes"/>
      <point x="431" y="-144"/>
      <point x="471" y="-170"/>
      <point x="511" y="-170" type="curve" smooth="yes"/>
      <point x="591" y="-170" type="line"/>
      <point x="591" y="-86" type="line"/>
      <point x="545" y="-86" type="line" smooth="yes"/>
      <point x="531" y="-86"/>
      <point x="522" y="-78"/>
      <point x="522" y="-64" type="curve" smooth="yes"/>
      <point x="522" y="-62"/>
      <point x="522" y="-61"/>
      <point x="523" y="-56" type="curve" smooth="yes"/>
      <point x="536" y="0" type="line"/>
      <point x="536" y="126" type="line"/>
      <point x="214" y="126" type="line"/>
      <point x="214" y="288" type="line"/>
      <point x="512" y="288" type="line"/>
      <point x="512" y="414" type="line"/>
      <point x="214" y="414" type="line"/>
      <point x="214" y="574" type="line"/>
      <point x="524" y="574" type="line"/>
      <point x="524" y="700" type="line"/>
      <point x="82" y="700" type="line"/>
    </contour>
  </outline>
</glyph>
<glyph name="eogonek" format="1">
  <advance width="612"/>
  <unicode hex="0119"/>
  <outline>
    <contour>
      <point x="553" y="207" type="line"/>
      <point x="553" y="274" type="line" smooth="yes"/>
      <point x="553" y="378"/>
      <point x="479" y="510"/>
      <point x="309" y="510" type="curve" smooth="yes"/>
      <point x="171" y="510"/>
      <point x="59" y="408"/>
      <point x="59" y="256" type="curve" smooth="yes"/>
      <point x="59" y="250" type="line" smooth="yes"/>
      <point x="59" y="103"/>
      <point x="140" y="10"/>
      <point x="261" y="-10" type="curve"/>
      <point x="247" y="-72" type="line" smooth="yes"/>
      <point x="245" y="-81"/>
      <point x="244" y="-88"/>
      <point x="244" y="-95" type="curve" smooth="yes"/>
      <point x="244" y="-144"/>
      <point x="284" y="-170"/>
      <point x="324" y="-170" type="curve" smooth="yes"/>
      <point x="404" y="-170" type="line"/>
      <point x="404" y="-86" type="line"/>
      <point x="358" y="-86" type="line" smooth="yes"/>
      <point x="344" y="-86"/>
      <point x="335" y="-78"/>
      <point x="335" y="-64" type="curve" smooth="yes"/>
      <point x="335" y="-62"/>
      <point x="335" y="-61"/>
      <point x="336" y="-56" type="curve" smooth="yes"/>
      <point x="346" y="-12" type="line"/>
      <point x="453" y="-2"/>
      <point x="504" y="56"/>
      <point x="525" y="102" type="curve"/>
      <point x="417" y="162" type="line"/>
      <point x="403" y="132"/>
      <point x="371" y="106"/>
      <point x="309" y="106" type="curve" smooth="yes"/>
      <point x="245" y="106"/>
      <point x="191" y="148"/>
      <point x="189" y="207" type="curve"/>
    </contour>
    <contour>
      <point x="308" y="396" type="curve" smooth="yes"/>
      <point x="372" y="396"/>
      <point x="417" y="362"/>
      <point x="425" y="315" type="curve"/>
      <point x="191" y="315" type="line"/>
      <point x="203" y="358"/>
      <point x="245" y="396"/>
    </contour>
  </outline>
</glyph>
<glyph name="Hbar" format="1">
  <advance width="612"/>
  <unicode hex="0126"/>
  <outline>
    <contour>
      <point x="73" y="0" type="line"/>
      <point x="205" y="0" type="line"/>
      <point x="205" y="288" type="line"/>
      <point x="407" y="288" type="line"/>
      <point x="407" y="0" type="line"/>
      <point x="539" y="0" type="line"/>
      <point x="539" y="496" type="line"/>
      <point x="599" y="496" type="line"/>
      <point x="599" y="616" type="line"/>
      <point x="539" y="616" type="line"/>
      <point x="539" y="700" type="line"/>
      <point x="407" y="700" type="line"/>
      <point x="407" y="616" type="line"/>
      <point x="205" y="616" type="line"/>
      <point x="205" y="700" type="line"/>
      <point x="73" y="700" type="line"/>
      <point x="73" y="616" type="line"/>
      <point x="13" y="616" type="line"/>
      <point x="13" y="496" type="line"/>
      <point x="73" y="496" type="line"/>
    </contour>
    <contour>
      <point x="205" y="414" type="line"/>
      <point x="205" y="496" type="line"/>
      <point x="407" y="496" type="line"/>
      <point x="407" y="414" type="line"/>
    </contour>
  </outline>
</glyph>
<glyph name="IJ" format="1">
  <advance width="612"/>
  <unicode hex="0132"/>
  <outline>
    <contour>
      <point x="58" y="700" type="line"/>
      <point x="58" y="342" type="line"/>
      <point x="190" y="342" type="line"/>
      <point x="190" y="700" type="line"/>
    </contour>
    <contour>
      <point x="514" y="576" type="line"/>
      <point x="574" y="576" type="line"/>
      <point x="574" y="700" type="line"/>
      <point x="310" y="700" type="line"/>
      <point x="310" y="576" type="line"/>
      <point x="382" y="576" type="line"/>
      <point x="382" y="210" type="line" smooth="yes"/>
      <point x="382" y="146"/>
      <point x="347" y="110"/>
      <point x="289" y="110" type="curve" smooth="yes"/>
      <point x="227" y="110"/>
      <point x="190" y="148"/>
      <point x="190" y="210" type="curve" smooth="yes"/>
      <point x="190" y="276" type="line"/>
      <point x="58" y="276" type="line"/>
      <point x="58" y="210" type="line" smooth="yes"/>
      <point x="58" y="64"/>
      <point x="153" y="-14"/>
      <point x="293" y="-14" type="curve" smooth="yes"/>
      <point x="429" y="-14"/>
      <point x="514" y="66"/>
      <point x="514" y="210" type="curve" smooth="yes"/>
    </contour>
  </outline>
</glyph>
<glyph name="ij" format="1">
  <advance width="612"/>
  <unicode hex="0133"/>
  <outline>
    <contour>
      <point x="411" y="236" type="line" smooth="yes"/>
      <point x="411" y="152"/>
      <point x="377" y="100"/>
      <point x="301" y="100" type="curve" smooth="yes"/>
      <point x="235" y="100"/>
      <point x="201" y="142"/>
      <point x="201" y="212" type="curve" smooth="yes"/>
      <point x="201" y="496" type="line"/>
      <point x="75" y="496" type="line"/>
      <point x="75" y="186" type="line" smooth="yes"/>
      <point x="75" y="50"/>
      <point x="153" y="-14"/>
      <point x="251" y="-14" type="curve" smooth="yes"/>
      <point x="325" y="-14"/>
      <point x="371" y="14"/>
      <point x="393" y="72" type="curve"/>
      <point x="411" y="72" type="line"/>
      <point x="411" y="-50" type="line" smooth="yes"/>
      <point x="411" y="-69"/>
      <point x="403" y="-80"/>
      <point x="384" y="-80" type="curve" smooth="yes"/>
      <point x="201" y="-80" type="line"/>
      <point x="201" y="-200" type="line"/>
      <point x="460" y="-200" type="line" smooth="yes"/>
      <point x="505" y="-200"/>
      <point x="537" y="-167"/>
      <point x="537" y="-122" type="curve" smooth="yes"/>
      <point x="537" y="496" type="line"/>
      <point x="411" y="496" type="line"/>
    </contour>
    <contour>
      <point x="569" y="643" type="curve" smooth="yes"/>
      <point x="569" y="696"/>
      <point x="526" y="738"/>
      <point x="474" y="738" type="curve" smooth="yes"/>
      <point x="422" y="738"/>
      <point x="379" y="696"/>
      <point x="379" y="643" type="curve" smooth="yes"/>
      <point x="379" y="590"/>
      <point x="422" y="548"/>
      <point x="474" y="548" type="curve" smooth="yes"/>
      <point x="526" y="548"/>
      <point x="569" y="590"/>
    </contour>
    <contour>
      <point x="233" y="643" type="curve" smooth="yes"/>
      <point x="233" y="696"/>
      <point x="190" y="738"/>
      <point x="138" y="738" type="curve" smooth="yes"/>
      <point x="86" y="738"/>
      <point x="43" y="696"/>
      <point x="43" y="643" type="curve" smooth="yes"/>
      <point x="43" y="590"/>
      <point x="86" y="548"/>
      <point x="138" y="548" type="curve" smooth="yes"/>
      <point x="190" y="548"/>
      <point x="233" y="590"/>
    </contour>
  </outline>
</glyph>
<glyph name="uni0136" format="1">
  <advance width="612"/>
  <unicode hex="0136"/>
  <outline>
    <contour>
      <point x="408" y="-131" type="line" smooth="yes"/>
      <point x="408" y="-84"/>
      <point x="368" y="-44"/>
      <point x="321" y="-44" type="curve" smooth="yes"/>
      <point x="274" y="-44"/>
      <point x="234" y="-84"/>
      <point x="234" y="-131" type="curve" smooth="yes"/>
      <point x="234" y="-178"/>
      <point x="274" y="-218"/>
      <point x="321" y="-218" type="curve" smooth="yes"/>
      <point x="330" y="-218" type="line"/>
      <point x="330" y="-230" type="line" smooth="yes"/>
      <point x="330" y="-249"/>
      <point x="322" y="-260"/>
      <point x="303" y="-260" type="curve" smooth="yes"/>
      <point x="258" y="-260" type="line"/>
      <point x="258" y="-338" type="line"/>
      <point x="318" y="-338" type="line" smooth="yes"/>
      <point x="369" y="-338"/>
      <point x="408" y="-299"/>
      <point x="408" y="-248" type="curve" smooth="yes"/>
    </contour>
    <component base="K"/>
  </outline>
</glyph>
<glyph name="kgreenlandic" format="1">
  <advance width="612"/>
  <unicode hex="0138"/>
  <outline>
    <contour>
      <point x="118" y="496" type="line"/>
      <point x="118" y="0" type="line"/>
      <point x="244" y="0" type="line"/>
      <point x="244" y="194" type="line"/>
      <point x="268" y="194" type="line"/>
      <point x="410" y="0" type="line"/>
      <point x="554" y="0" type="line"/>
      <point x="554" y="6" type="line"/>
      <point x="378" y="245" type="line"/>
      <point x="378" y="263" type="line"/>
      <point x="538" y="490" type="line"/>
      <point x="538" y="496" type="line"/>
      <point x="400" y="496" type="line"/>
      <point x="268" y="314" type="line"/>
      <point x="244" y="314" type="line"/>
      <point x="244" y="496" type="line"/>
    </contour>
  </outline>
</glyph>
<glyph name="uni013C" format="1">
  <advance width="612"/>
  <unicode hex="013C"/>
  <outline>
    <contour>
      <point x="399" y="-131" type="line" smooth="yes"/>
      <point x="399" y="-84"/>
      <point x="359" y="-44"/>
      <point x="312" y="-44" type="curve" smooth="yes"/>
      <point x="265" y="-44"/>
      <point x="225" y="-84"/>
      <point x="225" y="-131" type="curve" smooth="yes"/>
      <point x="225" y="-178"/>
      <point x="265" y="-218"/>
      <point x="312" y="-218" type="curve" smooth="yes"/>
      <point x="321" y="-218" type="line"/>
      <point x="321" y="-230" type="line" smooth="yes"/>
      <point x="321" y="-249"/>
      <point x="313" y="-260"/>
      <point x="294" y="-260" type="curve" smooth="yes"/>
      <point x="249" y="-260" type="line"/>
      <point x="249" y="-338" type="line"/>
      <point x="309" y="-338" type="line" smooth="yes"/>
      <point x="360" y="-338"/>
      <point x="399" y="-299"/>
      <point x="399" y="-248" type="curve" smooth="yes"/>
    </contour>
    <component base="l"/>
  </outline>
</glyph>
<glyph name="lcaron" format="1">
  <advance width="612"/>
  <unicode hex="013E"/>
  <outline>
    <contour>
      <point x="547" y="613" type="line" smooth="yes"/>
      <point x="547" y="660"/>
      <point x="507" y="700"/>
      <point x="460" y="700" type="curve" smooth="yes"/>
      <point x="413" y="700"/>
      <point x="373" y="660"/>
      <point x="373" y="613" type="curve" smooth="yes"/>
      <point x="373" y="566"/>
      <point x="413" y="526"/>
      <point x="460" y="526" type="curve" smooth="yes"/>
      <point x="469" y="526" type="line"/>
      <point x="469" y="514" type="line" smooth="yes"/>
      <point x="469" y="495"/>
      <point x="461" y="484"/>
      <point x="442" y="484" type="curve" smooth="yes"/>
      <point x="397" y="484" type="line"/>
      <point x="397" y="406" type="line"/>
      <point x="457" y="406" type="line" smooth="yes"/>
      <point x="508" y="406"/>
      <point x="547" y="445"/>
      <point x="547" y="496" type="curve" smooth="yes"/>
    </contour>
    <component base="l" xOffset="-32"/>
  </outline>
</glyph>
<glyph name="Lslash" format="1">
  <advance width="612"/>
  <unicode hex="0141"/>
  <outline>
    <contour>
      <point x="92" y="0" type="line"/>
      <point x="542" y="0" type="line"/>
      <point x="542" y="126" type="line"/>
      <point x="224" y="126" type="line"/>
      <point x="224" y="301" type="line"/>
      <point x="331" y="355" type="line"/>
      <point x="277" y="462" type="line"/>
      <point x="224" y="435" type="line"/>
      <point x="224" y="700" type="line"/>
      <point x="92" y="700" type="line"/>
      <point x="92" y="368" type="line"/>
      <point x="0" y="322" type="line"/>
      <point x="54" y="215" type="line"/>
      <point x="92" y="234" type="line"/>
    </contour>
  </outline>
</glyph>
<glyph name="uni0146" format="1">
  <advance width="612"/>
  <unicode hex="0146"/>
  <outline>
    <contour>
      <point x="402" y="-131" type="line" smooth="yes"/>
      <point x="402" y="-84"/>
      <point x="362" y="-44"/>
      <point x="315" y="-44" type="curve" smooth="yes"/>
      <point x="268" y="-44"/>
      <point x="228" y="-84"/>
      <point x="228" y="-131" type="curve" smooth="yes"/>
      <point x="228" y="-178"/>
      <point x="268" y="-218"/>
      <point x="315" y="-218" type="curve" smooth="yes"/>
      <point x="324" y="-218" type="line"/>
      <point x="324" y="-230" type="line" smooth="yes"/>
      <point x="324" y="-249"/>
      <point x="316" y="-260"/>
      <point x="297" y="-260" type="curve" smooth="yes"/>
      <point x="252" y="-260" type="line"/>
      <point x="252" y="-338" type="line"/>
      <point x="312" y="-338" type="line" smooth="yes"/>
      <point x="363" y="-338"/>
      <point x="402" y="-299"/>
      <point x="402" y="-248" type="curve" smooth="yes"/>
    </contour>
    <component base="n"/>
  </outline>
</glyph>
<glyph name="napostrophe" format="1">
  <advance width="612"/>
  <unicode hex="0149"/>
  <outline>
    <contour>
      <point x="228" y="739" type="line" smooth="yes"/>
      <point x="228" y="786"/>
      <point x="188" y="826"/>
      <point x="141" y="826" type="curve" smooth="yes"/>
      <point x="94" y="826"/>
      <point x="54" y="786"/>
      <point x="54" y="739" type="curve" smooth="yes"/>
      <point x="54" y="692"/>
      <point x="94" y="652"/>
      <point x="141" y="652" type="curve" smooth="yes"/>
      <point x="150" y="652" type="line"/>
      <point x="150" y="646" type="line" smooth="yes"/>
      <point x="150" y="627"/>
      <point x="142" y="616"/>
      <point x="123" y="616" type="curve" smooth="yes"/>
      <point x="78" y="616" type="line"/>
      <point x="78" y="538" type="line"/>
      <point x="138" y="538" type="line" smooth="yes"/>
      <point x="189" y="538"/>
      <point x="228" y="577"/>
      <point x="228" y="628" type="curve" smooth="yes"/>
    </contour>
    <component base="n"/>
  </outline>
</glyph>
<glyph name="eng" format="1">
  <advance width="612"/>
  <unicode hex="014B"/>
  <outline>
    <contour>
      <point x="201" y="258" type="line" smooth="yes"/>
      <point x="201" y="342"/>
      <point x="238" y="396"/>
      <point x="312" y="396" type="curve" smooth="yes"/>
      <point x="376" y="396"/>
      <point x="411" y="352"/>
      <point x="411" y="282" type="curve" smooth="yes"/>
      <point x="411" y="-47" type="line" smooth="yes"/>
      <point x="411" y="-68"/>
      <point x="402" y="-80"/>
      <point x="381" y="-80" type="curve" smooth="yes"/>
      <point x="312" y="-80" type="line"/>
      <point x="312" y="-200" type="line"/>
      <point x="436" y="-200" type="line" smooth="yes"/>
      <point x="496" y="-200"/>
      <point x="537" y="-167"/>
      <point x="537" y="-98" type="curve" smooth="yes"/>
      <point x="537" y="314" type="line" smooth="yes"/>
      <point x="537" y="450"/>
      <point x="459" y="510"/>
      <point x="363" y="510" type="curve" smooth="yes"/>
      <point x="295" y="510"/>
      <point x="241" y="478"/>
      <point x="219" y="422" type="curve"/>
      <point x="201" y="422" type="line"/>
      <point x="201" y="496" type="line"/>
      <point x="75" y="496" type="line"/>
      <point x="75" y="0" type="line"/>
      <point x="201" y="0" type="line"/>
    </contour>
  </outline>
</glyph>
<glyph name="OE" format="1">
  <advance width="612"/>
  <unicode hex="0152"/>
  <outline>
    <contour>
      <point x="282" y="0" type="curve"/>
      <point x="592" y="0" type="line"/>
      <point x="592" y="126" type="line"/>
      <point x="414" y="126" type="line"/>
      <point x="414" y="288" type="line"/>
      <point x="580" y="288" type="line"/>
      <point x="580" y="414" type="line"/>
      <point x="414" y="414" type="line"/>
      <point x="414" y="574" type="line"/>
      <point x="586" y="574" type="line"/>
      <point x="586" y="700" type="line"/>
      <point x="282" y="700" type="line" smooth="yes"/>
      <point x="122" y="700"/>
      <point x="24" y="594"/>
      <point x="24" y="414" type="curve" smooth="yes"/>
      <point x="24" y="286" type="line" smooth="yes"/>
      <point x="24" y="100"/>
      <point x="122" y="0"/>
    </contour>
    <contour>
      <point x="282" y="126" type="line"/>
      <point x="186" y="126"/>
      <point x="156" y="184"/>
      <point x="156" y="278" type="curve" smooth="yes"/>
      <point x="156" y="422" type="line" smooth="yes"/>
      <point x="156" y="510"/>
      <point x="192" y="574"/>
      <point x="282" y="574" type="curve"/>
    </contour>
  </outline>
</glyph>
<glyph name="uni0157" format="1">
  <advance width="612"/>
  <unicode hex="0157"/>
  <outline>
    <contour>
      <point x="294" y="-131" type="line" smooth="yes"/>
      <point x="294" y="-84"/>
      <point x="254" y="-44"/>
      <point x="207" y="-44" type="curve" smooth="yes"/>
      <point x="160" y="-44"/>
      <point x="120" y="-84"/>
      <point x="120" y="-131" type="curve" smooth="yes"/>
      <point x="120" y="-178"/>
      <point x="160" y="-218"/>
      <point x="207" y="-218" type="curve" smooth="yes"/>
      <point x="216" y="-218" type="line"/>
      <point x="216" y="-230" type="line" smooth="yes"/>
      <point x="216" y="-249"/>
      <point x="208" y="-260"/>
      <point x="189" y="-260" type="curve" smooth="yes"/>
      <point x="144" y="-260" type="line"/>
      <point x="144" y="-338" type="line"/>
      <point x="204" y="-338" type="line" smooth="yes"/>
      <point x="255" y="-338"/>
      <point x="294" y="-299"/>
      <point x="294" y="-248" type="curve" smooth="yes"/>
    </contour>
    <component base="r"/>
  </outline>
</glyph>
<glyph name="Scedilla" format="1">
  <advance width="612"/>
  <unicode hex="015E"/>
  <outline>
    <contour>
      <point x="426" y="462" type="line"/>
      <point x="558" y="462" type="line"/>
      <point x="558" y="498" type="line" smooth="yes"/>
      <point x="558" y="612"/>
      <point x="468" y="714"/>
      <point x="302" y="714" type="curve" smooth="yes"/>
      <point x="156" y="714"/>
      <point x="60" y="628"/>
      <point x="60" y="514" type="curve" smooth="yes"/>
      <point x="60" y="508" type="line" smooth="yes"/>
      <point x="60" y="370"/>
      <point x="162" y="322"/>
      <point x="302" y="298" type="curve" smooth="yes"/>
      <point x="410" y="280"/>
      <point x="436" y="244"/>
      <point x="436" y="198" type="curve" smooth="yes"/>
      <point x="436" y="150"/>
      <point x="398" y="110"/>
      <point x="318" y="110" type="curve" smooth="yes"/>
      <point x="216" y="110"/>
      <point x="168" y="164"/>
      <point x="168" y="248" type="curve" smooth="yes"/>
      <point x="168" y="272" type="line"/>
      <point x="36" y="272" type="line"/>
      <point x="36" y="242" type="line" smooth="yes"/>
      <point x="36" y="118"/>
      <point x="104" y="20"/>
      <point x="237" y="-6" type="curve"/>
      <point x="219" y="-92" type="line"/>
      <point x="219" y="-104" type="line"/>
      <point x="316" y="-104" type="line"/>
      <point x="318" y="-96"/>
      <point x="325" y="-90"/>
      <point x="336" y="-90" type="curve" smooth="yes"/>
      <point x="349" y="-90"/>
      <point x="356" y="-100"/>
      <point x="356" y="-112" type="curve" smooth="yes"/>
      <point x="356" y="-128"/>
      <point x="342" y="-138"/>
      <point x="322" y="-138" type="curve" smooth="yes"/>
      <point x="304" y="-138"/>
      <point x="287" y="-133"/>
      <point x="272" y="-124" type="curve"/>
      <point x="246" y="-192" type="line"/>
      <point x="268" y="-204"/>
      <point x="292" y="-212"/>
      <point x="330" y="-212" type="curve" smooth="yes"/>
      <point x="392" y="-212"/>
      <point x="440" y="-174"/>
      <point x="440" y="-112" type="curve" smooth="yes"/>
      <point x="440" y="-64"/>
      <point x="412" y="-24"/>
      <point x="357" y="-24" type="curve" smooth="yes"/>
      <point x="332" y="-24"/>
      <point x="318" y="-34"/>
      <point x="311" y="-46" type="curve"/>
      <point x="299" y="-46" type="line"/>
      <point x="306" y="-14" type="line"/>
      <point x="316" y="-14" type="line" smooth="yes"/>
      <point x="473" y="-14"/>
      <point x="570" y="70"/>
      <point x="570" y="200" type="curve" smooth="yes"/>
      <point x="570" y="212" type="line" smooth="yes"/>
      <point x="570" y="334"/>
      <point x="490" y="392"/>
      <point x="344" y="418" type="curve" smooth="yes"/>
      <point x="228" y="439"/>
      <point x="194" y="466"/>
      <point x="194" y="514" type="curve" smooth="yes"/>
      <point x="194" y="560"/>
      <point x="236" y="590"/>
      <point x="302" y="590" type="curve" smooth="yes"/>
      <point x="380" y="590"/>
      <point x="426" y="542"/>
      <point x="426" y="486" type="curve" smooth="yes"/>
    </contour>
  </outline>
</glyph>
<glyph name="uni0162" format="1">
  <advance width="612"/>
  <unicode hex="0162"/>
  <outline>
    <contour>
      <point x="240" y="0" type="line"/>
      <point x="220" y="-92" type="line"/>
      <point x="220" y="-104" type="line"/>
      <point x="317" y="-104" type="line"/>
      <point x="319" y="-96"/>
      <point x="326" y="-90"/>
      <point x="337" y="-90" type="curve" smooth="yes"/>
      <point x="350" y="-90"/>
      <point x="357" y="-100"/>
      <point x="357" y="-112" type="curve" smooth="yes"/>
      <point x="357" y="-128"/>
      <point x="343" y="-138"/>
      <point x="323" y="-138" type="curve" smooth="yes"/>
      <point x="305" y="-138"/>
      <point x="288" y="-133"/>
      <point x="273" y="-124" type="curve"/>
      <point x="247" y="-192" type="line"/>
      <point x="269" y="-204"/>
      <point x="293" y="-212"/>
      <point x="331" y="-212" type="curve" smooth="yes"/>
      <point x="393" y="-212"/>
      <point x="441" y="-174"/>
      <point x="441" y="-112" type="curve" smooth="yes"/>
      <point x="441" y="-64"/>
      <point x="413" y="-24"/>
      <point x="358" y="-24" type="curve" smooth="yes"/>
      <point x="333" y="-24"/>
      <point x="319" y="-34"/>
      <point x="312" y="-46" type="curve"/>
      <point x="300" y="-46" type="line"/>
      <point x="310" y="0" type="line"/>
      <point x="372" y="0" type="line"/>
      <point x="372" y="574" type="line"/>
      <point x="558" y="574" type="line"/>
      <point x="558" y="700" type="line"/>
      <point x="54" y="700" type="line"/>
      <point x="54" y="574" type="line"/>
      <point x="240" y="574" type="line"/>
    </contour>
  </outline>
</glyph>
<glyph name="tcaron" format="1">
  <advance width="612"/>
  <unicode hex="0165"/>
  <outline>
    <contour>
      <point x="45" y="376" type="line"/>
      <point x="190" y="376" type="line"/>
      <point x="190" y="78" type="line" smooth="yes"/>
      <point x="190" y="33"/>
      <point x="222" y="0"/>
      <point x="267" y="0" type="curve" smooth="yes"/>
      <point x="542" y="0" type="line"/>
      <point x="542" y="120" type="line"/>
      <point x="345" y="120" type="line" smooth="yes"/>
      <point x="326" y="120"/>
      <point x="318" y="131"/>
      <point x="318" y="150" type="curve" smooth="yes"/>
      <point x="318" y="376" type="line"/>
      <point x="356" y="376" type="line"/>
      <point x="356" y="496" type="line"/>
      <point x="318" y="496" type="line"/>
      <point x="318" y="700" type="line"/>
      <point x="190" y="700" type="line"/>
      <point x="190" y="496" type="line"/>
      <point x="45" y="496" type="line"/>
    </contour>
    <contour>
      <point x="542" y="613" type="line" smooth="yes"/>
      <point x="542" y="660"/>
      <point x="502" y="700"/>
      <point x="455" y="700" type="curve" smooth="yes"/>
      <point x="408" y="700"/>
      <point x="368" y="660"/>
      <point x="368" y="613" type="curve" smooth="yes"/>
      <point x="368" y="566"/>
      <point x="408" y="526"/>
      <point x="455" y="526" type="curve" smooth="yes"/>
      <point x="464" y="526" type="line"/>
      <point x="464" y="484" type="line" smooth="yes"/>
      <point x="464" y="465"/>
      <point x="456" y="454"/>
      <point x="437" y="454" type="curve" smooth="yes"/>
      <point x="392" y="454" type="line"/>
      <point x="392" y="376" type="line"/>
      <point x="452" y="376" type="line" smooth="yes"/>
      <point x="503" y="376"/>
      <point x="542" y="415"/>
      <point x="542" y="466" type="curve" smooth="yes"/>
    </contour>
  </outline>
</glyph>
<glyph name="tbar" format="1">
  <advance width="612"/>
  <unicode hex="0167"/>
  <outline>
    <contour>
      <point x="64" y="376" type="line"/>
      <point x="211" y="376" type="line"/>
      <point x="211" y="316" type="line"/>
      <point x="103" y="316" type="line"/>
      <point x="103" y="202" type="line"/>
      <point x="211" y="202" type="line"/>
      <point x="211" y="78" type="line" smooth="yes"/>
      <point x="211" y="33"/>
      <point x="243" y="0"/>
      <point x="288" y="0" type="curve" smooth="yes"/>
      <point x="498" y="0" type="line"/>
      <point x="498" y="120" type="line"/>
      <point x="364" y="120" type="line" smooth="yes"/>
      <point x="345" y="120"/>
      <point x="337" y="131"/>
      <point x="337" y="150" type="curve" smooth="yes"/>
      <point x="337" y="202" type="line"/>
      <point x="481" y="202" type="line"/>
      <point x="481" y="316" type="line"/>
      <point x="337" y="316" type="line"/>
      <point x="337" y="376" type="line"/>
      <point x="516" y="376" type="line"/>
      <point x="516" y="496" type="line"/>
      <point x="337" y="496" type="line"/>
      <point x="337" y="700" type="line"/>
      <point x="211" y="700" type="line"/>
      <point x="211" y="496" type="line"/>
      <point x="64" y="496" type="line"/>
    </contour>
  </outline>
</glyph>
<glyph name="utilde" format="1">
  <advance width="612"/>
  <unicode hex="0169"/>
  <outline>
    <contour>
      <point x="414" y="236" type="line"/>
      <point x="414" y="152"/>
      <point x="380" y="100"/>
      <point x="304" y="100" type="curve" smooth="yes"/>
      <point x="238" y="100"/>
      <point x="204" y="142"/>
      <point x="204" y="212" type="curve" smooth="yes"/>
      <point x="204" y="496" type="line"/>
      <point x="78" y="496" type="line"/>
      <point x="78" y="186" type="line" smooth="yes"/>
      <point x="78" y="50"/>
      <point x="156" y="-14"/>
      <point x="254" y="-14" type="curve" smooth="yes"/>
      <point x="328" y="-14"/>
      <point x="374" y="14"/>
      <point x="396" y="72" type="curve"/>
      <point x="414" y="72" type="line"/>
      <point x="414" y="0" type="line"/>
      <point x="540" y="0" type="line"/>
      <point x="540" y="496" type="line"/>
      <point x="414" y="496" type="line"/>
    </contour>
    <component base="tilde" xOffset="-2" yOffset="-6"/>
  </outline>
</glyph>
<glyph name="uogonek" format="1">
  <advance width="612"/>
  <unicode hex="0173"/>
  <outline>
    <contour>
      <point x="414" y="236" type="line" smooth="yes"/>
      <point x="414" y="152"/>
      <point x="380" y="100"/>
      <point x="304" y="100" type="curve" smooth="yes"/>
      <point x="238" y="100"/>
      <point x="204" y="142"/>
      <point x="204" y="212" type="curve" smooth="yes"/>
      <point x="204" y="496" type="line"/>
      <point x="78" y="496" type="line"/>
      <point x="78" y="186" type="line" smooth="yes"/>
      <point x="78" y="50"/>
      <point x="156" y="-14"/>
      <point x="254" y="-14" type="curve" smooth="yes"/>
      <point x="328" y="-14"/>
      <point x="374" y="14"/>
      <point x="396" y="72" type="curve"/>
      <point x="414" y="72" type="line"/>
      <point x="381" y="-72" type="line" smooth="yes"/>
      <point x="379" y="-81"/>
      <point x="378" y="-88"/>
      <point x="378" y="-95" type="curve" smooth="yes"/>
      <point x="378" y="-144"/>
      <point x="418" y="-170"/>
      <point x="458" y="-170" type="curve" smooth="yes"/>
      <point x="540" y="-170" type="line"/>
      <point x="540" y="-86" type="line"/>
      <point x="492" y="-86" type="line" smooth="yes"/>
      <point x="478" y="-86"/>
      <point x="469" y="-78"/>
      <point x="469" y="-64" type="curve" smooth="yes"/>
      <point x="469" y="-62"/>
      <point x="469" y="-61"/>
      <point x="470" y="-56" type="curve" smooth="yes"/>
      <point x="483" y="0" type="line"/>
      <point x="540" y="0" type="line"/>
      <point x="540" y="496" type="line"/>
      <point x="414" y="496" type="line"/>
    </contour>
  </outline>
</glyph>
<glyph name="florin" format="1">
  <advance width="612"/>
  <unicode hex="0192"/>
  <outline>
    <contour>
      <point x="165" y="330" type="line"/>
      <point x="249" y="330" type="line"/>
      <point x="249" y="234" type="line" smooth="yes"/>
      <point x="249" y="215"/>
      <point x="241" y="204"/>
      <point x="222" y="204" type="curve" smooth="yes"/>
      <point x="120" y="204" type="line"/>
      <point x="120" y="96" type="line"/>
      <point x="262" y="96" type="line" smooth="yes"/>
      <point x="319" y="96"/>
      <point x="363" y="141"/>
      <point x="363" y="198" type="curve" smooth="yes"/>
      <point x="363" y="330" type="line"/>
      <point x="447" y="330" type="line"/>
      <point x="447" y="438" type="line"/>
      <point x="363" y="438" type="line"/>
      <point x="363" y="466" type="line" smooth="yes"/>
      <point x="363" y="485"/>
      <point x="371" y="496"/>
      <point x="390" y="496" type="curve" smooth="yes"/>
      <point x="492" y="496" type="line"/>
      <point x="492" y="604" type="line"/>
      <point x="350" y="604" type="line" smooth="yes"/>
      <point x="293" y="604"/>
      <point x="249" y="559"/>
      <point x="249" y="502" type="curve" smooth="yes"/>
      <point x="249" y="438" type="line"/>
      <point x="165" y="438" type="line"/>
    </contour>
  </outline>
</glyph>
<glyph name="uni01A0" format="1">
  <advance width="612"/>
  <unicode hex="01A0"/>
  <outline>
    <contour>
      <point x="606" y="613" type="line" smooth="yes"/>
      <point x="606" y="660"/>
      <point x="566" y="700"/>
      <point x="519" y="700" type="curve" smooth="yes"/>
      <point x="472" y="700"/>
      <point x="432" y="660"/>
      <point x="432" y="613" type="curve" smooth="yes"/>
      <point x="432" y="566"/>
      <point x="472" y="526"/>
      <point x="519" y="526" type="curve" smooth="yes"/>
      <point x="528" y="526" type="line"/>
      <point x="528" y="510" type="line" smooth="yes"/>
      <point x="528" y="491"/>
      <point x="520" y="480"/>
      <point x="501" y="480" type="curve" smooth="yes"/>
      <point x="422" y="480" type="line"/>
      <point x="422" y="490" type="line" smooth="yes"/>
      <point x="422" y="636"/>
      <point x="346" y="714"/>
      <point x="218" y="714" type="curve" smooth="yes"/>
      <point x="90" y="714"/>
      <point x="14" y="636"/>
      <point x="14" y="490" type="curve" smooth="yes"/>
      <point x="14" y="210" type="line" smooth="yes"/>
      <point x="14" y="64"/>
      <point x="90" y="-14"/>
      <point x="218" y="-14" type="curve" smooth="yes"/>
      <point x="346" y="-14"/>
      <point x="422" y="64"/>
      <point x="422" y="210" type="curve" smooth="yes"/>
      <point x="422" y="402" type="line"/>
      <point x="516" y="402" type="line" smooth="yes"/>
      <point x="567" y="402"/>
      <point x="606" y="441"/>
      <point x="606" y="492" type="curve" smooth="yes"/>
    </contour>
    <contour>
      <point x="218" y="112" type="curve" smooth="yes"/>
      <point x="174" y="112"/>
      <point x="146" y="142"/>
      <point x="146" y="202" type="curve" smooth="yes"/>
      <point x="146" y="498" type="line" smooth="yes"/>
      <point x="146" y="558"/>
      <point x="174" y="588"/>
      <point x="218" y="588" type="curve" smooth="yes"/>
      <point x="262" y="588"/>
      <point x="290" y="558"/>
      <point x="290" y="498" type="curve" smooth="yes"/>
      <point x="290" y="202" type="line" smooth="yes"/>
      <point x="290" y="142"/>
      <point x="262" y="112"/>
    </contour>
  </outline>
</glyph>
<glyph name="uni01A1" format="1">
  <advance width="612"/>
  <unicode hex="01A1"/>
  <outline>
    <contour>
      <point x="20" y="242" type="line" smooth="yes"/>
      <point x="20" y="80"/>
      <point x="93" y="-14"/>
      <point x="221" y="-14" type="curve" smooth="yes"/>
      <point x="338" y="-14"/>
      <point x="410" y="65"/>
      <point x="421" y="204" type="curve"/>
      <point x="509" y="204" type="line" smooth="yes"/>
      <point x="560" y="204"/>
      <point x="599" y="243"/>
      <point x="599" y="294" type="curve" smooth="yes"/>
      <point x="599" y="409" type="line" smooth="yes"/>
      <point x="599" y="456"/>
      <point x="559" y="496"/>
      <point x="512" y="496" type="curve" smooth="yes"/>
      <point x="465" y="496"/>
      <point x="425" y="456"/>
      <point x="425" y="409" type="curve" smooth="yes"/>
      <point x="425" y="362"/>
      <point x="465" y="322"/>
      <point x="512" y="322" type="curve" smooth="yes"/>
      <point x="521" y="322" type="line"/>
      <point x="521" y="312" type="line" smooth="yes"/>
      <point x="521" y="293"/>
      <point x="513" y="282"/>
      <point x="494" y="282" type="curve" smooth="yes"/>
      <point x="421" y="282" type="line"/>
      <point x="413" y="425"/>
      <point x="340" y="510"/>
      <point x="221" y="510" type="curve" smooth="yes"/>
      <point x="94" y="510"/>
      <point x="20" y="414"/>
      <point x="20" y="254" type="curve" smooth="yes"/>
    </contour>
    <contour>
      <point x="221" y="106" type="curve" smooth="yes"/>
      <point x="176" y="106"/>
      <point x="146" y="142"/>
      <point x="146" y="230" type="curve" smooth="yes"/>
      <point x="146" y="266" type="line" smooth="yes"/>
      <point x="146" y="354"/>
      <point x="176" y="390"/>
      <point x="221" y="390" type="curve" smooth="yes"/>
      <point x="266" y="390"/>
      <point x="296" y="354"/>
      <point x="296" y="266" type="curve" smooth="yes"/>
      <point x="296" y="230" type="line" smooth="yes"/>
      <point x="296" y="142"/>
      <point x="266" y="106"/>
    </contour>
  </outline>
</glyph>
<glyph name="uni01AF" format="1">
  <advance width="612"/>
  <unicode hex="01AF"/>
  <outline>
    <contour>
      <point x="606" y="613" type="line" smooth="yes"/>
      <point x="606" y="660"/>
      <point x="566" y="700"/>
      <point x="519" y="700" type="curve" smooth="yes"/>
      <point x="472" y="700"/>
      <point x="432" y="660"/>
      <point x="432" y="613" type="curve" smooth="yes"/>
      <point x="432" y="566"/>
      <point x="472" y="526"/>
      <point x="519" y="526" type="curve" smooth="yes"/>
      <point x="528" y="526" type="line"/>
      <point x="528" y="510" type="line" smooth="yes"/>
      <point x="528" y="491"/>
      <point x="520" y="480"/>
      <point x="501" y="480" type="curve" smooth="yes"/>
      <point x="402" y="480" type="line"/>
      <point x="402" y="700" type="line"/>
      <point x="270" y="700" type="line"/>
      <point x="270" y="184" type="line" smooth="yes"/>
      <point x="270" y="138"/>
      <point x="254" y="112"/>
      <point x="210" y="112" type="curve" smooth="yes"/>
      <point x="166" y="112"/>
      <point x="150" y="138"/>
      <point x="150" y="184" type="curve" smooth="yes"/>
      <point x="150" y="700" type="line"/>
      <point x="18" y="700" type="line"/>
      <point x="18" y="198" type="line" smooth="yes"/>
      <point x="18" y="58"/>
      <point x="84" y="-14"/>
      <point x="210" y="-14" type="curve" smooth="yes"/>
      <point x="336" y="-14"/>
      <point x="402" y="58"/>
      <point x="402" y="198" type="curve" smooth="yes"/>
      <point x="402" y="402" type="line"/>
      <point x="516" y="402" type="line" smooth="yes"/>
      <point x="567" y="402"/>
      <point x="606" y="441"/>
      <point x="606" y="492" type="curve" smooth="yes"/>
    </contour>
  </outline>
</glyph>
<glyph name="uni01B0" format="1">
  <advance width="612"/>
  <unicode hex="01B0"/>
  <outline>
    <contour>
      <point x="276" y="180" type="line" smooth="yes"/>
      <point x="276" y="132"/>
      <point x="259" y="100"/>
      <point x="207" y="100" type="curve" smooth="yes"/>
      <point x="165" y="100"/>
      <point x="144" y="128"/>
      <point x="144" y="174" type="curve" smooth="yes"/>
      <point x="144" y="496" type="line"/>
      <point x="18" y="496" type="line"/>
      <point x="18" y="138" type="line" smooth="yes"/>
      <point x="18" y="36"/>
      <point x="69" y="-14"/>
      <point x="149" y="-14" type="curve" smooth="yes"/>
      <point x="213" y="-14"/>
      <point x="246" y="12"/>
      <point x="258" y="48" type="curve"/>
      <point x="276" y="48" type="line"/>
      <point x="276" y="0" type="line"/>
      <point x="402" y="0" type="line"/>
      <point x="402" y="204" type="line"/>
      <point x="516" y="204" type="line" smooth="yes"/>
      <point x="567" y="204"/>
      <point x="606" y="243"/>
      <point x="606" y="294" type="curve" smooth="yes"/>
      <point x="606" y="409" type="line" smooth="yes"/>
      <point x="606" y="456"/>
      <point x="566" y="496"/>
      <point x="519" y="496" type="curve" smooth="yes"/>
      <point x="472" y="496"/>
      <point x="432" y="456"/>
      <point x="432" y="409" type="curve" smooth="yes"/>
      <point x="432" y="362"/>
      <point x="472" y="322"/>
      <point x="519" y="322" type="curve" smooth="yes"/>
      <point x="528" y="322" type="line"/>
      <point x="528" y="312" type="line" smooth="yes"/>
      <point x="528" y="293"/>
      <point x="520" y="282"/>
      <point x="501" y="282" type="curve" smooth="yes"/>
      <point x="402" y="282" type="line"/>
      <point x="402" y="496" type="line"/>
      <point x="276" y="496" type="line"/>
    </contour>
  </outline>
</glyph>
<glyph name="uni01D5" format="1">
  <advance width="612"/>
  <unicode hex="01D5"/>
  <outline>
    <contour>
      <point x="508" y="1058" type="line"/>
      <point x="104" y="1058" type="line"/>
      <point x="104" y="956" type="line"/>
      <point x="508" y="956" type="line"/>
    </contour>
    <component base="U"/>
    <component base="dieresis" yOffset="188"/>
  </outline>
</glyph>
<glyph name="uni01D6" format="1">
  <advance width="612"/>
  <unicode hex="01D6"/>
  <outline>
    <contour>
      <point x="511" y="854" type="line"/>
      <point x="107" y="854" type="line"/>
      <point x="107" y="752" type="line"/>
      <point x="511" y="752" type="line"/>
    </contour>
    <component base="u"/>
    <component base="dieresis" xOffset="3" yOffset="-16"/>
  </outline>
</glyph>
<glyph name="uni01EA" format="1">
  <advance width="612"/>
  <unicode hex="01EA"/>
  <outline>
    <contour>
      <point x="48" y="272" type="line" smooth="yes"/>
      <point x="48" y="104"/>
      <point x="128" y="6"/>
      <point x="261" y="-11" type="curve"/>
      <point x="248" y="-72" type="line" smooth="yes"/>
      <point x="246" y="-81"/>
      <point x="245" y="-88"/>
      <point x="245" y="-95" type="curve" smooth="yes"/>
      <point x="245" y="-144"/>
      <point x="285" y="-170"/>
      <point x="325" y="-170" type="curve" smooth="yes"/>
      <point x="405" y="-170" type="line"/>
      <point x="405" y="-86" type="line"/>
      <point x="359" y="-86" type="line" smooth="yes"/>
      <point x="345" y="-86"/>
      <point x="336" y="-78"/>
      <point x="336" y="-64" type="curve" smooth="yes"/>
      <point x="336" y="-62"/>
      <point x="336" y="-61"/>
      <point x="337" y="-56" type="curve" smooth="yes"/>
      <point x="347" y="-11" type="line"/>
      <point x="482" y="4"/>
      <point x="564" y="102"/>
      <point x="564" y="272" type="curve" smooth="yes"/>
      <point x="564" y="428" type="line" smooth="yes"/>
      <point x="564" y="608"/>
      <point x="466" y="714"/>
      <point x="306" y="714" type="curve" smooth="yes"/>
      <point x="146" y="714"/>
      <point x="48" y="608"/>
      <point x="48" y="428" type="curve" smooth="yes"/>
    </contour>
    <contour>
      <point x="306" y="106" type="curve" smooth="yes"/>
      <point x="210" y="106"/>
      <point x="180" y="170"/>
      <point x="180" y="264" type="curve" smooth="yes"/>
      <point x="180" y="436" type="line" smooth="yes"/>
      <point x="180" y="524"/>
      <point x="216" y="594"/>
      <point x="306" y="594" type="curve" smooth="yes"/>
      <point x="396" y="594"/>
      <point x="432" y="524"/>
      <point x="432" y="436" type="curve" smooth="yes"/>
      <point x="432" y="264" type="line" smooth="yes"/>
      <point x="432" y="170"/>
      <point x="402" y="106"/>
    </contour>
  </outline>
</glyph>
<glyph name="uni01EB" format="1">
  <advance width="612"/>
  <unicode hex="01EB"/>
  <outline>
    <contour>
      <point x="564" y="254" type="line" smooth="yes"/>
      <point x="564" y="416"/>
      <point x="442" y="510"/>
      <point x="306" y="510" type="curve" smooth="yes"/>
      <point x="170" y="510"/>
      <point x="48" y="416"/>
      <point x="48" y="254" type="curve" smooth="yes"/>
      <point x="48" y="242" type="line" smooth="yes"/>
      <point x="48" y="95"/>
      <point x="145" y="6"/>
      <point x="263" y="-11" type="curve"/>
      <point x="249" y="-72" type="line" smooth="yes"/>
      <point x="247" y="-81"/>
      <point x="246" y="-88"/>
      <point x="246" y="-95" type="curve" smooth="yes"/>
      <point x="246" y="-144"/>
      <point x="286" y="-170"/>
      <point x="326" y="-170" type="curve" smooth="yes"/>
      <point x="406" y="-170" type="line"/>
      <point x="406" y="-86" type="line"/>
      <point x="360" y="-86" type="line" smooth="yes"/>
      <point x="346" y="-86"/>
      <point x="337" y="-78"/>
      <point x="337" y="-64" type="curve" smooth="yes"/>
      <point x="337" y="-62"/>
      <point x="337" y="-61"/>
      <point x="338" y="-56" type="curve" smooth="yes"/>
      <point x="348" y="-11" type="line"/>
      <point x="466" y="6"/>
      <point x="564" y="95"/>
      <point x="564" y="242" type="curve" smooth="yes"/>
    </contour>
    <contour>
      <point x="306" y="106" type="curve" smooth="yes"/>
      <point x="233" y="106"/>
      <point x="174" y="156"/>
      <point x="174" y="238" type="curve" smooth="yes"/>
      <point x="174" y="258" type="line" smooth="yes"/>
      <point x="174" y="340"/>
      <point x="233" y="390"/>
      <point x="306" y="390" type="curve" smooth="yes"/>
      <point x="379" y="390"/>
      <point x="438" y="340"/>
      <point x="438" y="258" type="curve" smooth="yes"/>
      <point x="438" y="238" type="line" smooth="yes"/>
      <point x="438" y="156"/>
      <point x="379" y="106"/>
    </contour>
  </outline>
</glyph>
<glyph name="uni0219" format="1">
  <advance width="612"/>
  <unicode hex="0219"/>
  <outline>
    <contour>
      <point x="405" y="-131" type="line" smooth="yes"/>
      <point x="405" y="-84"/>
      <point x="365" y="-44"/>
      <point x="318" y="-44" type="curve" smooth="yes"/>
      <point x="271" y="-44"/>
      <point x="231" y="-84"/>
      <point x="231" y="-131" type="curve" smooth="yes"/>
      <point x="231" y="-178"/>
      <point x="271" y="-218"/>
      <point x="318" y="-218" type="curve" smooth="yes"/>
      <point x="327" y="-218" type="line"/>
      <point x="327" y="-230" type="line" smooth="yes"/>
      <point x="327" y="-249"/>
      <point x="319" y="-260"/>
      <point x="300" y="-260" type="curve" smooth="yes"/>
      <point x="255" y="-260" type="line"/>
      <point x="255" y="-338" type="line"/>
      <point x="315" y="-338" type="line" smooth="yes"/>
      <point x="366" y="-338"/>
      <point x="405" y="-299"/>
      <point x="405" y="-248" type="curve" smooth="yes"/>
    </contour>
    <component base="s"/>
  </outline>
</glyph>
<glyph name="uni0258" format="1">
  <advance width="612"/>
  <unicode hex="0258"/>
  <outline>
    <contour>
      <point x="62" y="207" type="line"/>
      <point x="62" y="274" type="line" smooth="yes"/>
      <point x="62" y="378"/>
      <point x="136" y="510"/>
      <point x="306" y="510" type="curve" smooth="yes"/>
      <point x="444" y="510"/>
      <point x="556" y="408"/>
      <point x="556" y="256" type="curve" smooth="yes"/>
      <point x="556" y="250" type="line" smooth="yes"/>
      <point x="556" y="84"/>
      <point x="452" y="-14"/>
      <point x="304" y="-14" type="curve" smooth="yes"/>
      <point x="172" y="-14"/>
      <point x="113" y="52"/>
      <point x="90" y="102" type="curve"/>
      <point x="198" y="162" type="line"/>
      <point x="212" y="132"/>
      <point x="244" y="106"/>
      <point x="306" y="106" type="curve" smooth="yes"/>
      <point x="370" y="106"/>
      <point x="424" y="148"/>
      <point x="426" y="207" type="curve"/>
    </contour>
    <contour>
      <point x="307" y="396" type="curve"/>
      <point x="243" y="396"/>
      <point x="198" y="362"/>
      <point x="190" y="315" type="curve"/>
      <point x="424" y="315" type="line"/>
      <point x="412" y="358"/>
      <point x="370" y="396"/>
    </contour>
  </outline>
</glyph>
<glyph name="uni0259" format="1">
  <advance width="612"/>
  <unicode hex="0259"/>
  <outline>
    <contour>
      <point x="60" y="289" type="line"/>
      <point x="60" y="222" type="line" smooth="yes"/>
      <point x="60" y="118"/>
      <point x="134" y="-14"/>
      <point x="304" y="-14" type="curve" smooth="yes"/>
      <point x="442" y="-14"/>
      <point x="554" y="88"/>
      <point x="554" y="240" type="curve" smooth="yes"/>
      <point x="554" y="246" type="line" smooth="yes"/>
      <point x="554" y="414"/>
      <point x="446" y="510"/>
      <point x="302" y="510" type="curve" smooth="yes"/>
      <point x="200" y="510"/>
      <point x="132" y="457"/>
      <point x="98" y="402" type="curve"/>
      <point x="192" y="330" type="line"/>
      <point x="210" y="362"/>
      <point x="246" y="390"/>
      <point x="304" y="390" type="curve" smooth="yes"/>
      <point x="368" y="390"/>
      <point x="422" y="348"/>
      <point x="424" y="289" type="curve"/>
    </contour>
    <contour>
      <point x="305" y="100" type="curve"/>
      <point x="241" y="100"/>
      <point x="196" y="134"/>
      <point x="188" y="181" type="curve"/>
      <point x="422" y="181" type="line"/>
      <point x="410" y="138"/>
      <point x="368" y="100"/>
    </contour>
  </outline>
</glyph>
<glyph name="uni0265" format="1">
  <advance width="612"/>
  <unicode hex="0265"/>
  <outline>
    <contour>
      <point x="416" y="238" type="line" smooth="yes"/>
      <point x="416" y="154"/>
      <point x="379" y="100"/>
      <point x="305" y="100" type="curve" smooth="yes"/>
      <point x="241" y="100"/>
      <point x="206" y="144"/>
      <point x="206" y="214" type="curve" smooth="yes"/>
      <point x="206" y="496" type="line"/>
      <point x="80" y="496" type="line"/>
      <point x="80" y="184" type="line" smooth="yes"/>
      <point x="80" y="48"/>
      <point x="153" y="-14"/>
      <point x="251" y="-14" type="curve" smooth="yes"/>
      <point x="323" y="-14"/>
      <point x="373" y="20"/>
      <point x="398" y="80" type="curve"/>
      <point x="416" y="80" type="line"/>
      <point x="416" y="-200" type="line"/>
      <point x="542" y="-200" type="line"/>
      <point x="542" y="496" type="line"/>
      <point x="416" y="496" type="line"/>
    </contour>
  </outline>
</glyph>
<glyph name="uni0287" format="1">
  <advance width="612"/>
  <unicode hex="0287"/>
  <outline>
    <contour>
      <point x="536" y="120" type="line"/>
      <point x="389" y="120" type="line"/>
      <point x="389" y="418" type="line" smooth="yes"/>
      <point x="389" y="463"/>
      <point x="357" y="496"/>
      <point x="312" y="496" type="curve" smooth="yes"/>
      <point x="102" y="496" type="line"/>
      <point x="102" y="376" type="line"/>
      <point x="236" y="376" type="line" smooth="yes"/>
      <point x="255" y="376"/>
      <point x="263" y="365"/>
      <point x="263" y="346" type="curve" smooth="yes"/>
      <point x="263" y="120" type="line"/>
      <point x="84" y="120" type="line"/>
      <point x="84" y="0" type="line"/>
      <point x="263" y="0" type="line"/>
      <point x="263" y="-200" type="line"/>
      <point x="389" y="-200" type="line"/>
      <point x="389" y="0" type="line"/>
      <point x="536" y="0" type="line"/>
    </contour>
  </outline>
</glyph>
<glyph name="uni028E" format="1">
  <advance width="612"/>
  <unicode hex="028E"/>
  <outline>
    <contour>
      <point x="411" y="496" type="line"/>
      <point x="369" y="496" type="line"/>
      <point x="369" y="550" type="line" smooth="yes"/>
      <point x="369" y="569"/>
      <point x="377" y="580"/>
      <point x="396" y="580" type="curve" smooth="yes"/>
      <point x="537" y="580" type="line"/>
      <point x="537" y="700" type="line"/>
      <point x="333" y="700" type="line" smooth="yes"/>
      <point x="279" y="700"/>
      <point x="243" y="664"/>
      <point x="243" y="610" type="curve" smooth="yes"/>
      <point x="243" y="496" type="line"/>
      <point x="201" y="496" type="line"/>
      <point x="37" y="0" type="line"/>
      <point x="173" y="0" type="line"/>
      <point x="297" y="400" type="line"/>
      <point x="315" y="400" type="line"/>
      <point x="439" y="0" type="line"/>
      <point x="575" y="0" type="line"/>
    </contour>
  </outline>
</glyph>
<glyph name="breve" format="1">
  <advance width="612"/>
  <unicode hex="02D8"/>
  <outline>
    <contour>
      <point x="348" y="700" type="line"/>
      <point x="348" y="694" type="line" smooth="yes"/>
      <point x="348" y="670"/>
      <point x="334" y="652"/>
      <point x="306" y="652" type="curve" smooth="yes"/>
      <point x="278" y="652"/>
      <point x="264" y="670"/>
      <point x="264" y="694" type="curve" smooth="yes"/>
      <point x="264" y="700" type="line"/>
      <point x="174" y="700" type="line"/>
      <point x="174" y="686" type="line" smooth="yes"/>
      <point x="174" y="610"/>
      <point x="228" y="564"/>
      <point x="306" y="564" type="curve" smooth="yes"/>
      <point x="384" y="564"/>
      <point x="438" y="610"/>
      <point x="438" y="686" type="curve" smooth="yes"/>
      <point x="438" y="700" type="line"/>
    </contour>
  </outline>
</glyph>
<glyph name="dotaccent" format="1">
  <advance width="612"/>
  <unicode hex="02D9"/>
  <outline>
    <contour>
      <point x="401" y="643" type="curve" smooth="yes"/>
      <point x="401" y="696"/>
      <point x="358" y="738"/>
      <point x="306" y="738" type="curve" smooth="yes"/>
      <point x="254" y="738"/>
      <point x="211" y="696"/>
      <point x="211" y="643" type="curve" smooth="yes"/>
      <point x="211" y="590"/>
      <point x="254" y="548"/>
      <point x="306" y="548" type="curve" smooth="yes"/>
      <point x="358" y="548"/>
      <point x="401" y="590"/>
    </contour>
  </outline>
</glyph>
<glyph name="tilde" format="1">
  <advance width="612"/>
  <unicode hex="02DC"/>
  <outline>
    <contour>
      <point x="322" y="695" type="curve" smooth="yes"/>
      <point x="299" y="722"/>
      <point x="275" y="733"/>
      <point x="248" y="733" type="curve" smooth="yes"/>
      <point x="215" y="733"/>
      <point x="187" y="721"/>
      <point x="162" y="689" type="curve" smooth="yes"/>
      <point x="106" y="617" type="line"/>
      <point x="183" y="556" type="line"/>
      <point x="213" y="594" type="line" smooth="yes"/>
      <point x="224" y="608"/>
      <point x="234" y="618"/>
      <point x="252" y="618" type="curve" smooth="yes"/>
      <point x="270" y="618"/>
      <point x="280" y="606"/>
      <point x="290" y="594" type="curve" smooth="yes"/>
      <point x="313" y="567"/>
      <point x="337" y="556"/>
      <point x="364" y="556" type="curve" smooth="yes"/>
      <point x="398" y="556"/>
      <point x="426" y="569"/>
      <point x="450" y="600" type="curve" smooth="yes"/>
      <point x="506" y="672" type="line"/>
      <point x="429" y="733" type="line"/>
      <point x="399" y="695" type="line" smooth="yes"/>
      <point x="388" y="681"/>
      <point x="378" y="671"/>
      <point x="360" y="671" type="curve" smooth="yes"/>
      <point x="342" y="671"/>
      <point x="332" y="683"/>
    </contour>
  </outline>
</glyph>
<glyph name="uni031B" format="1">
  <advance width="612"/>
  <unicode hex="031B"/>
  <outline>
    <contour>
      <point x="408" y="613" type="line" smooth="yes"/>
      <point x="408" y="660"/>
      <point x="368" y="700"/>
      <point x="321" y="700" type="curve" smooth="yes"/>
      <point x="274" y="700"/>
      <point x="234" y="660"/>
      <point x="234" y="613" type="curve" smooth="yes"/>
      <point x="234" y="566"/>
      <point x="274" y="526"/>
      <point x="321" y="526" type="curve" smooth="yes"/>
      <point x="330" y="526" type="line"/>
      <point x="330" y="510" type="line" smooth="yes"/>
      <point x="330" y="491"/>
      <point x="322" y="480"/>
      <point x="303" y="480" type="curve" smooth="yes"/>
      <point x="204" y="480" type="line"/>
      <point x="204" y="402" type="line"/>
      <point x="318" y="402" type="line" smooth="yes"/>
      <point x="369" y="402"/>
      <point x="408" y="441"/>
      <point x="408" y="492" type="curve" smooth="yes"/>
    </contour>
  </outline>
</glyph>
<glyph name="uni1E9E" format="1">
  <advance width="612"/>
  <unicode hex="1E9E"/>
  <outline>
    <contour>
      <point x="314" y="700" type="line" smooth="yes"/>
      <point x="196" y="700"/>
      <point x="94" y="632"/>
      <point x="94" y="500" type="curve" smooth="yes"/>
      <point x="94" y="496" type="line"/>
      <point x="34" y="496" type="line"/>
      <point x="34" y="376" type="line"/>
      <point x="94" y="376" type="line"/>
      <point x="94" y="0" type="line"/>
      <point x="226" y="0" type="line"/>
      <point x="226" y="490" type="line" smooth="yes"/>
      <point x="226" y="554"/>
      <point x="264" y="574"/>
      <point x="320" y="574" type="curve" smooth="yes"/>
      <point x="438" y="574" type="line"/>
      <point x="438" y="556" type="line"/>
      <point x="282" y="502" type="line"/>
      <point x="282" y="288" type="line"/>
      <point x="366" y="288" type="line" smooth="yes"/>
      <point x="424" y="288"/>
      <point x="456" y="256"/>
      <point x="456" y="207" type="curve" smooth="yes"/>
      <point x="456" y="158"/>
      <point x="424" y="126"/>
      <point x="366" y="126" type="curve" smooth="yes"/>
      <point x="282" y="126" type="line"/>
      <point x="282" y="0" type="line"/>
      <point x="371" y="0" type="line" smooth="yes"/>
      <point x="509" y="0"/>
      <point x="588" y="88"/>
      <point x="588" y="204" type="curve" smooth="yes"/>
      <point x="588" y="210" type="line" smooth="yes"/>
      <point x="588" y="326"/>
      <point x="506" y="400"/>
      <point x="396" y="400" type="curve" smooth="yes"/>
      <point x="378" y="400" type="line"/>
      <point x="378" y="418" type="line"/>
      <point x="534" y="472" type="line"/>
      <point x="534" y="700" type="line"/>
    </contour>
  </outline>
</glyph>
<glyph name="quotedblleft" format="1">
  <advance width="612"/>
  <unicode hex="201C"/>
  <outline>
    <contour>
      <point x="514" y="502" type="curve"/>
      <point x="514" y="558"/>
      <point x="476" y="597"/>
      <point x="421" y="597" type="curve" smooth="yes"/>
      <point x="415" y="597"/>
      <point x="407" y="596"/>
      <point x="402" y="594" type="curve"/>
      <point x="402" y="606" type="line" smooth="yes"/>
      <point x="402" y="625"/>
      <point x="410" y="636"/>
      <point x="429" y="636" type="curve" smooth="yes"/>
      <point x="477" y="636" type="line"/>
      <point x="477" y="714" type="line"/>
      <point x="413" y="714" type="line" smooth="yes"/>
      <point x="362" y="714"/>
      <point x="324" y="675"/>
      <point x="324" y="624" type="curve" smooth="yes"/>
      <point x="324" y="502" type="line" smooth="yes"/>
      <point x="324" y="450"/>
      <point x="367" y="408"/>
      <point x="419" y="408" type="curve" smooth="yes"/>
      <point x="471" y="408"/>
      <point x="514" y="450"/>
    </contour>
    <contour>
      <point x="288" y="502" type="curve" smooth="yes"/>
      <point x="288" y="558"/>
      <point x="250" y="597"/>
      <point x="195" y="597" type="curve" smooth="yes"/>
      <point x="189" y="597"/>
      <point x="181" y="596"/>
      <point x="176" y="594" type="curve"/>
      <point x="176" y="606" type="line" smooth="yes"/>
      <point x="176" y="625"/>
      <point x="184" y="636"/>
      <point x="203" y="636" type="curve" smooth="yes"/>
      <point x="251" y="636" type="line"/>
      <point x="251" y="714" type="line"/>
      <point x="187" y="714" type="line" smooth="yes"/>
      <point x="136" y="714"/>
      <point x="98" y="675"/>
      <point x="98" y="624" type="curve" smooth="yes"/>
      <point x="98" y="502" type="line" smooth="yes"/>
      <point x="98" y="450"/>
      <point x="141" y="408"/>
      <point x="193" y="408" type="curve" smooth="yes"/>
      <point x="245" y="408"/>
      <point x="288" y="450"/>
    </contour>
  </outline>
</glyph>
<glyph name="quotedblright" format="1">
  <advance width="612"/>
  <unicode hex="201D"/>
  <outline>
    <contour>
      <point x="98" y="620" type="curve" smooth="yes"/>
      <point x="98" y="568"/>
      <point x="141" y="525"/>
      <point x="193" y="525" type="curve" smooth="yes"/>
      <point x="199" y="525"/>
      <point x="205" y="526"/>
      <point x="210" y="528" type="curve"/>
      <point x="210" y="516" type="line" smooth="yes"/>
      <point x="210" y="497"/>
      <point x="202" y="486"/>
      <point x="183" y="486" type="curve" smooth="yes"/>
      <point x="135" y="486" type="line"/>
      <point x="135" y="408" type="line"/>
      <point x="199" y="408" type="line" smooth="yes"/>
      <point x="250" y="408"/>
      <point x="288" y="447"/>
      <point x="288" y="498" type="curve" smooth="yes"/>
      <point x="288" y="620" type="line" smooth="yes"/>
      <point x="288" y="672"/>
      <point x="245" y="714"/>
      <point x="193" y="714" type="curve" smooth="yes"/>
      <point x="141" y="714"/>
      <point x="98" y="672"/>
    </contour>
    <contour>
      <point x="324" y="620" type="curve" smooth="yes"/>
      <point x="324" y="568"/>
      <point x="367" y="525"/>
      <point x="419" y="525" type="curve" smooth="yes"/>
      <point x="425" y="525"/>
      <point x="431" y="526"/>
      <point x="436" y="528" type="curve"/>
      <point x="436" y="516" type="line" smooth="yes"/>
      <point x="436" y="497"/>
      <point x="428" y="486"/>
      <point x="409" y="486" type="curve" smooth="yes"/>
      <point x="361" y="486" type="line"/>
      <point x="361" y="408" type="line"/>
      <point x="425" y="408" type="line" smooth="yes"/>
      <point x="476" y="408"/>
      <point x="514" y="447"/>
      <point x="514" y="498" type="curve" smooth="yes"/>
      <point x="514" y="620" type="line" smooth="yes"/>
      <point x="514" y="672"/>
      <point x="471" y="714"/>
      <point x="419" y="714" type="curve" smooth="yes"/>
      <point x="367" y="714"/>
      <point x="324" y="672"/>
    </contour>
  </outline>
</glyph>
<glyph name="dagger" format="1">
  <advance width="612"/>
  <unicode hex="2020"/>
  <outline>
    <contour>
      <point x="144" y="498" type="line"/>
      <point x="252" y="498" type="line"/>
      <point x="252" y="218" type="line"/>
      <point x="360" y="218" type="line"/>
      <point x="360" y="498" type="line"/>
      <point x="468" y="498" type="line"/>
      <point x="468" y="604" type="line"/>
      <point x="360" y="604" type="line"/>
      <point x="360" y="714" type="line"/>
      <point x="252" y="714" type="line"/>
      <point x="252" y="604" type="line"/>
      <point x="144" y="604" type="line"/>
    </contour>
  </outline>
</glyph>
<glyph name="uni2074" format="1">
  <advance width="612"/>
  <unicode hex="2074"/>
  <outline>
    <contour>
      <point x="260" y="700" type="line"/>
      <point x="398" y="700" type="line"/>
      <point x="398" y="530" type="line"/>
      <point x="440" y="530" type="line"/>
      <point x="440" y="460" type="line"/>
      <point x="398" y="460" type="line"/>
      <point x="398" y="412" type="line"/>
      <point x="320" y="412" type="line"/>
      <point x="320" y="460" type="line"/>
      <point x="190" y="460" type="line"/>
      <point x="190" y="557" type="line"/>
    </contour>
    <contour>
      <point x="260" y="539" type="line"/>
      <point x="260" y="530" type="line"/>
      <point x="320" y="530" type="line"/>
      <point x="320" y="648" type="line"/>
      <point x="311" y="648" type="line"/>
    </contour>
  </outline>
</glyph>
<glyph name="uni2075" format="1">
  <advance width="612"/>
  <unicode hex="2075"/>
  <outline>
    <contour>
      <point x="282" y="500" type="line"/>
      <point x="283" y="488"/>
      <point x="293" y="476"/>
      <point x="313" y="476" type="curve" smooth="yes"/>
      <point x="335" y="476"/>
      <point x="344" y="491"/>
      <point x="344" y="508" type="curve" smooth="yes"/>
      <point x="344" y="524"/>
      <point x="335" y="537"/>
      <point x="317" y="537" type="curve" smooth="yes"/>
      <point x="307" y="537"/>
      <point x="299" y="532"/>
      <point x="296" y="526" type="curve"/>
      <point x="204" y="526" type="line"/>
      <point x="204" y="700" type="line"/>
      <point x="404" y="700" type="line"/>
      <point x="404" y="630" type="line"/>
      <point x="282" y="630" type="line"/>
      <point x="282" y="584" type="line"/>
      <point x="291" y="584" type="line"/>
      <point x="302" y="600"/>
      <point x="318" y="608"/>
      <point x="344" y="608" type="curve" smooth="yes"/>
      <point x="386" y="608"/>
      <point x="422" y="576"/>
      <point x="422" y="516" type="curve" smooth="yes"/>
      <point x="422" y="452"/>
      <point x="386" y="406"/>
      <point x="314" y="406" type="curve" smooth="yes"/>
      <point x="238" y="406"/>
      <point x="204" y="452"/>
      <point x="204" y="500" type="curve"/>
    </contour>
  </outline>
</glyph>
<glyph name="uni2077" format="1">
  <advance width="612"/>
  <unicode hex="2077"/>
  <outline>
    <contour>
      <point x="217" y="628" type="line"/>
      <point x="346" y="628" type="line"/>
      <point x="346" y="619" type="line"/>
      <point x="258" y="486" type="line" smooth="yes"/>
      <point x="242" y="462"/>
      <point x="233" y="448"/>
      <point x="233" y="427" type="curve" smooth="yes"/>
      <point x="233" y="412" type="line"/>
      <point x="313" y="412" type="line"/>
      <point x="313" y="424" type="line" smooth="yes"/>
      <point x="313" y="438"/>
      <point x="319" y="448"/>
      <point x="329" y="463" type="curve" smooth="yes"/>
      <point x="415" y="595" type="line"/>
      <point x="415" y="700" type="line"/>
      <point x="217" y="700" type="line"/>
    </contour>
  </outline>
</glyph>
<glyph name="uni207E" format="1">
  <advance width="612"/>
  <unicode hex="207E"/>
  <outline>
    <contour>
      <point x="199" y="375" type="line"/>
      <point x="199" y="303" type="line"/>
      <point x="235" y="303" type="line" smooth="yes"/>
      <point x="339" y="303"/>
      <point x="413" y="374"/>
      <point x="413" y="490" type="curve" smooth="yes"/>
      <point x="413" y="622" type="line" smooth="yes"/>
      <point x="413" y="738"/>
      <point x="339" y="809"/>
      <point x="235" y="809" type="curve" smooth="yes"/>
      <point x="199" y="809" type="line"/>
      <point x="199" y="737" type="line"/>
      <point x="231" y="737" type="line" smooth="yes"/>
      <point x="297" y="737"/>
      <point x="341" y="690"/>
      <point x="341" y="624" type="curve" smooth="yes"/>
      <point x="341" y="488" type="line" smooth="yes"/>
      <point x="341" y="422"/>
      <point x="297" y="375"/>
      <point x="231" y="375" type="curve"/>
    </contour>
  </outline>
</glyph>
<glyph name="uni207F" format="1">
  <advance width="612"/>
  <unicode hex="207F"/>
  <outline>
    <contour>
      <point x="259" y="572" type="line" smooth="yes"/>
      <point x="259" y="614"/>
      <point x="281" y="634"/>
      <point x="313" y="634" type="curve" smooth="yes"/>
      <point x="345" y="634"/>
      <point x="367" y="614"/>
      <point x="367" y="574" type="curve" smooth="yes"/>
      <point x="367" y="412" type="line"/>
      <point x="445" y="412" type="line"/>
      <point x="445" y="598" type="line" smooth="yes"/>
      <point x="445" y="660"/>
      <point x="411" y="706"/>
      <point x="347" y="706" type="curve" smooth="yes"/>
      <point x="303" y="706"/>
      <point x="277" y="686"/>
      <point x="265" y="661" type="curve"/>
      <point x="259" y="661" type="line"/>
      <point x="259" y="700" type="line"/>
      <point x="181" y="700" type="line"/>
      <point x="181" y="412" type="line"/>
      <point x="259" y="412" type="line"/>
    </contour>
  </outline>
</glyph>
<glyph name="uni208D" format="1">
  <advance width="612"/>
  <unicode hex="208D"/>
  <outline>
    <contour>
      <point x="381" y="-237" type="line"/>
      <point x="315" y="-237"/>
      <point x="271" y="-190"/>
      <point x="271" y="-124" type="curve" smooth="yes"/>
      <point x="271" y="12" type="line" smooth="yes"/>
      <point x="271" y="78"/>
      <point x="315" y="125"/>
      <point x="381" y="125" type="curve" smooth="yes"/>
      <point x="413" y="125" type="line"/>
      <point x="413" y="197" type="line"/>
      <point x="377" y="197" type="line" smooth="yes"/>
      <point x="273" y="197"/>
      <point x="199" y="126"/>
      <point x="199" y="10" type="curve" smooth="yes"/>
      <point x="199" y="-122" type="line" smooth="yes"/>
      <point x="199" y="-238"/>
      <point x="273" y="-309"/>
      <point x="377" y="-309" type="curve" smooth="yes"/>
      <point x="413" y="-309" type="line"/>
      <point x="413" y="-237" type="line"/>
    </contour>
  </outline>
</glyph>
<glyph name="uni208E" format="1">
  <advance width="612"/>
  <unicode hex="208E"/>
  <outline>
    <contour>
      <point x="199" y="-237" type="line"/>
      <point x="199" y="-309" type="line"/>
      <point x="235" y="-309" type="line" smooth="yes"/>
      <point x="339" y="-309"/>
      <point x="413" y="-238"/>
      <point x="413" y="-122" type="curve" smooth="yes"/>
      <point x="413" y="10" type="line" smooth="yes"/>
      <point x="413" y="126"/>
      <point x="339" y="197"/>
      <point x="235" y="197" type="curve" smooth="yes"/>
      <point x="199" y="197" type="line"/>
      <point x="199" y="125" type="line"/>
      <point x="231" y="125" type="line" smooth="yes"/>
      <point x="297" y="125"/>
      <point x="341" y="78"/>
      <point x="341" y="12" type="curve" smooth="yes"/>
      <point x="341" y="-124" type="line" smooth="yes"/>
      <point x="341" y="-190"/>
      <point x="297" y="-237"/>
      <point x="231" y="-237" type="curve" smooth="yes"/>
    </contour>
  </outline>
</glyph>
<glyph name="uni2094" format="1">
  <advance width="612"/>
  <unicode hex="2094"/>
  <outline>
    <contour>
      <point x="169" y="-34" type="line"/>
      <point x="169" y="-74" type="line" smooth="yes"/>
      <point x="169" y="-130"/>
      <point x="209" y="-206"/>
      <point x="303" y="-206" type="curve" smooth="yes"/>
      <point x="385" y="-206"/>
      <point x="443" y="-146"/>
      <point x="443" y="-64" type="curve" smooth="yes"/>
      <point x="443" y="-50" type="line" smooth="yes"/>
      <point x="443" y="39"/>
      <point x="384" y="94"/>
      <point x="303" y="94" type="curve" smooth="yes"/>
      <point x="244" y="94"/>
      <point x="204" y="64"/>
      <point x="184" y="24" type="curve"/>
      <point x="246" y="-12" type="line"/>
      <point x="256" y="6"/>
      <point x="273" y="22"/>
      <point x="304" y="22" type="curve" smooth="yes"/>
      <point x="337" y="22"/>
      <point x="363" y="4"/>
      <point x="365" y="-34" type="curve"/>
    </contour>
    <contour>
      <point x="305" y="-136" type="curve" smooth="yes"/>
      <point x="270" y="-136"/>
      <point x="250" y="-120"/>
      <point x="247" y="-96" type="curve"/>
      <point x="364" y="-96" type="line"/>
      <point x="359" y="-119"/>
      <point x="342" y="-136"/>
    </contour>
  </outline>
</glyph>
<glyph name="uni20A4" format="1">
  <advance width="612"/>
  <unicode hex="20A4"/>
  <outline>
    <contour>
      <point x="104" y="242" type="line"/>
      <point x="164" y="242" type="line"/>
      <point x="164" y="210" type="line"/>
      <point x="104" y="210" type="line"/>
      <point x="104" y="102" type="line"/>
      <point x="496" y="102" type="line"/>
      <point x="496" y="210" type="line"/>
      <point x="278" y="210" type="line"/>
      <point x="278" y="242" type="line"/>
      <point x="350" y="242" type="line"/>
      <point x="350" y="320" type="line"/>
      <point x="278" y="320" type="line"/>
      <point x="278" y="350" type="line"/>
      <point x="350" y="350" type="line"/>
      <point x="350" y="428" type="line"/>
      <point x="278" y="428" type="line"/>
      <point x="278" y="442" type="line" smooth="yes"/>
      <point x="278" y="474"/>
      <point x="294" y="504"/>
      <point x="336" y="504" type="curve" smooth="yes"/>
      <point x="378" y="504"/>
      <point x="394" y="474"/>
      <point x="394" y="442" type="curve" smooth="yes"/>
      <point x="394" y="428" type="line"/>
      <point x="508" y="428" type="line"/>
      <point x="508" y="440" type="line" smooth="yes"/>
      <point x="508" y="550"/>
      <point x="436" y="612"/>
      <point x="336" y="612" type="curve" smooth="yes"/>
      <point x="234" y="612"/>
      <point x="164" y="550"/>
      <point x="164" y="438" type="curve" smooth="yes"/>
      <point x="164" y="428" type="line"/>
      <point x="104" y="428" type="line"/>
      <point x="104" y="350" type="line"/>
      <point x="164" y="350" type="line"/>
      <point x="164" y="320" type="line"/>
      <point x="104" y="320" type="line"/>
    </contour>
  </outline>
</glyph>
<glyph name="uni20A7" format="1">
  <advance width="612"/>
  <unicode hex="20A7"/>
  <outline>
    <contour>
      <point x="70" y="383" type="line"/>
      <point x="130" y="383" type="line"/>
      <point x="130" y="102" type="line"/>
      <point x="244" y="102" type="line"/>
      <point x="244" y="252" type="line"/>
      <point x="326" y="252" type="line" smooth="yes"/>
      <point x="410" y="252"/>
      <point x="461" y="316"/>
      <point x="477" y="383" type="curve"/>
      <point x="542" y="383" type="line"/>
      <point x="542" y="467" type="line"/>
      <point x="479" y="467" type="line"/>
      <point x="468" y="535"/>
      <point x="416" y="598"/>
      <point x="324" y="598" type="curve" smooth="yes"/>
      <point x="130" y="598" type="line"/>
      <point x="130" y="467" type="line"/>
      <point x="70" y="467" type="line"/>
    </contour>
    <contour>
      <point x="244" y="490" type="line"/>
      <point x="306" y="490" type="line" smooth="yes"/>
      <point x="328" y="490"/>
      <point x="345" y="481"/>
      <point x="355" y="467" type="curve"/>
      <point x="244" y="467" type="line"/>
    </contour>
    <contour>
      <point x="306" y="360" type="curve"/>
      <point x="244" y="360" type="line"/>
      <point x="244" y="383" type="line"/>
      <point x="355" y="383" type="line"/>
      <point x="345" y="369"/>
      <point x="328" y="360"/>
    </contour>
  </outline>
</glyph>
<glyph name="uni20AB" format="1">
  <advance width="612"/>
  <unicode hex="20AB"/>
  <outline>
    <contour>
      <point x="252" y="484" type="line"/>
      <point x="356" y="484" type="line"/>
      <point x="356" y="420" type="line"/>
      <point x="344" y="420" type="line"/>
      <point x="330" y="444"/>
      <point x="300" y="464"/>
      <point x="252" y="464" type="curve" smooth="yes"/>
      <point x="168" y="464"/>
      <point x="90" y="398"/>
      <point x="90" y="283" type="curve" smooth="yes"/>
      <point x="90" y="270" type="line" smooth="yes"/>
      <point x="90" y="154"/>
      <point x="166" y="90"/>
      <point x="248" y="90" type="curve" smooth="yes"/>
      <point x="301" y="90"/>
      <point x="333" y="110"/>
      <point x="344" y="139" type="curve"/>
      <point x="356" y="139" type="line"/>
      <point x="356" y="102" type="line"/>
      <point x="470" y="102" type="line"/>
      <point x="470" y="484" type="line"/>
      <point x="518" y="484" type="line"/>
      <point x="518" y="574" type="line"/>
      <point x="470" y="574" type="line"/>
      <point x="470" y="606" type="line"/>
      <point x="356" y="606" type="line"/>
      <point x="356" y="574" type="line"/>
      <point x="252" y="574" type="line"/>
    </contour>
    <contour>
      <point x="192" y="-30" type="line"/>
      <point x="470" y="-30" type="line"/>
      <point x="470" y="66" type="line"/>
      <point x="192" y="66" type="line"/>
    </contour>
    <contour>
      <point x="282" y="198" type="curve" smooth="yes"/>
      <point x="240" y="198"/>
      <point x="204" y="224"/>
      <point x="204" y="277" type="curve" smooth="yes"/>
      <point x="204" y="326"/>
      <point x="240" y="356"/>
      <point x="282" y="356" type="curve" smooth="yes"/>
      <point x="322" y="356"/>
      <point x="356" y="326"/>
      <point x="356" y="277" type="curve" smooth="yes"/>
      <point x="356" y="224"/>
      <point x="322" y="198"/>
    </contour>
  </outline>
</glyph>
<glyph name="uni20B1" format="1">
  <advance width="612"/>
  <unicode hex="20B1"/>
  <outline>
    <contour>
      <point x="70" y="371" type="line"/>
      <point x="130" y="371" type="line"/>
      <point x="130" y="336" type="line"/>
      <point x="70" y="336" type="line"/>
      <point x="70" y="252" type="line"/>
      <point x="130" y="252" type="line"/>
      <point x="130" y="102" type="line"/>
      <point x="244" y="102" type="line"/>
      <point x="244" y="252" type="line"/>
      <point x="542" y="252" type="line"/>
      <point x="542" y="336" type="line"/>
      <point x="456" y="336" type="line"/>
      <point x="456" y="342" type="line"/>
      <point x="466" y="350"/>
      <point x="472" y="361"/>
      <point x="474" y="371" type="curve"/>
      <point x="542" y="371" type="line"/>
      <point x="542" y="455" type="line"/>
      <point x="480" y="455" type="line"/>
      <point x="472" y="526"/>
      <point x="420" y="598"/>
      <point x="324" y="598" type="curve" smooth="yes"/>
      <point x="130" y="598" type="line"/>
      <point x="130" y="455" type="line"/>
      <point x="70" y="455" type="line"/>
    </contour>
    <contour>
      <point x="296" y="336" type="curve"/>
      <point x="244" y="336" type="line"/>
      <point x="244" y="371" type="line"/>
      <point x="357" y="371" type="line"/>
      <point x="346" y="350"/>
      <point x="325" y="336"/>
    </contour>
    <contour>
      <point x="244" y="490" type="line"/>
      <point x="296" y="490" type="line" smooth="yes"/>
      <point x="325" y="490"/>
      <point x="346" y="476"/>
      <point x="357" y="455" type="curve"/>
      <point x="244" y="455" type="line"/>
    </contour>
  </outline>
</glyph>
<glyph name="uni20B2" format="1">
  <advance width="612"/>
  <unicode hex="20B2"/>
  <outline>
    <contour>
      <point x="348" y="672" type="line"/>
      <point x="264" y="672" type="line"/>
      <point x="264" y="608" type="line"/>
      <point x="175" y="592"/>
      <point x="118" y="523"/>
      <point x="118" y="408" type="curve" smooth="yes"/>
      <point x="118" y="284" type="line" smooth="yes"/>
      <point x="118" y="160"/>
      <point x="183" y="94"/>
      <point x="264" y="88" type="curve"/>
      <point x="264" y="28" type="line"/>
      <point x="348" y="28" type="line"/>
      <point x="348" y="104" type="line"/>
      <point x="361" y="113"/>
      <point x="369" y="124"/>
      <point x="374" y="136" type="curve"/>
      <point x="386" y="136" type="line"/>
      <point x="386" y="98" type="line"/>
      <point x="488" y="98" type="line"/>
      <point x="488" y="358" type="line"/>
      <point x="348" y="358" type="line"/>
      <point x="348" y="491" type="line"/>
      <point x="365" y="478"/>
      <point x="374" y="455"/>
      <point x="374" y="428" type="curve" smooth="yes"/>
      <point x="374" y="420" type="line"/>
      <point x="488" y="420" type="line"/>
      <point x="488" y="432" type="line" smooth="yes"/>
      <point x="488" y="519"/>
      <point x="438" y="591"/>
      <point x="348" y="608" type="curve"/>
    </contour>
    <contour>
      <point x="232" y="284" type="curve"/>
      <point x="232" y="410" type="line" smooth="yes"/>
      <point x="232" y="450"/>
      <point x="244" y="477"/>
      <point x="264" y="491" type="curve"/>
      <point x="264" y="207" type="line"/>
      <point x="243" y="221"/>
      <point x="232" y="246"/>
    </contour>
    <contour>
      <point x="380" y="262" type="line"/>
      <point x="380" y="233"/>
      <point x="368" y="214"/>
      <point x="348" y="204" type="curve"/>
      <point x="348" y="262" type="line"/>
    </contour>
  </outline>
</glyph>
<glyph name="uni20B5" format="1">
  <advance width="612"/>
  <unicode hex="20B5"/>
  <outline>
    <contour>
      <point x="350" y="672" type="line"/>
      <point x="266" y="672" type="line"/>
      <point x="266" y="608" type="line"/>
      <point x="177" y="592"/>
      <point x="120" y="522"/>
      <point x="120" y="412" type="curve" smooth="yes"/>
      <point x="120" y="294" type="line" smooth="yes"/>
      <point x="120" y="176"/>
      <point x="174" y="106"/>
      <point x="266" y="91" type="curve"/>
      <point x="266" y="28" type="line"/>
      <point x="350" y="28" type="line"/>
      <point x="350" y="91" type="line"/>
      <point x="442" y="106"/>
      <point x="492" y="170"/>
      <point x="492" y="274" type="curve" smooth="yes"/>
      <point x="492" y="288" type="line"/>
      <point x="378" y="288" type="line"/>
      <point x="378" y="274" type="line" smooth="yes"/>
      <point x="378" y="242"/>
      <point x="369" y="219"/>
      <point x="350" y="207" type="curve"/>
      <point x="350" y="492" type="line"/>
      <point x="369" y="479"/>
      <point x="378" y="455"/>
      <point x="378" y="426" type="curve" smooth="yes"/>
      <point x="378" y="412" type="line"/>
      <point x="492" y="412" type="line"/>
      <point x="492" y="425" type="line" smooth="yes"/>
      <point x="492" y="525"/>
      <point x="442" y="592"/>
      <point x="350" y="608" type="curve"/>
    </contour>
    <contour>
      <point x="234" y="281" type="curve"/>
      <point x="234" y="420" type="line" smooth="yes"/>
      <point x="234" y="455"/>
      <point x="245" y="479"/>
      <point x="266" y="492" type="curve"/>
      <point x="266" y="206" type="line"/>
      <point x="245" y="218"/>
      <point x="234" y="242"/>
    </contour>
  </outline>
</glyph>
<glyph name="uni20B9" format="1">
  <advance width="612"/>
  <unicode hex="20B9"/>
  <outline>
    <contour>
      <point x="114" y="401" type="line"/>
      <point x="311" y="401" type="line"/>
      <point x="301" y="382"/>
      <point x="281" y="372"/>
      <point x="255" y="372" type="curve" smooth="yes"/>
      <point x="114" y="372" type="line"/>
      <point x="114" y="270" type="line"/>
      <point x="280" y="270" type="line" smooth="yes"/>
      <point x="307" y="270"/>
      <point x="318" y="254"/>
      <point x="318" y="232" type="curve" smooth="yes"/>
      <point x="318" y="102" type="line"/>
      <point x="426" y="102" type="line"/>
      <point x="426" y="252" type="line" smooth="yes"/>
      <point x="426" y="288"/>
      <point x="408" y="312"/>
      <point x="372" y="316" type="curve"/>
      <point x="372" y="328" type="line"/>
      <point x="401" y="341"/>
      <point x="420" y="370"/>
      <point x="430" y="401" type="curve"/>
      <point x="498" y="401" type="line"/>
      <point x="498" y="485" type="line"/>
      <point x="434" y="485" type="line"/>
      <point x="432" y="494"/>
      <point x="428" y="502"/>
      <point x="423" y="508" type="curve"/>
      <point x="423" y="514" type="line"/>
      <point x="498" y="514" type="line"/>
      <point x="498" y="598" type="line"/>
      <point x="114" y="598" type="line"/>
      <point x="114" y="514" type="line"/>
      <point x="255" y="514" type="line" smooth="yes"/>
      <point x="283" y="514"/>
      <point x="304" y="503"/>
      <point x="314" y="485" type="curve"/>
      <point x="114" y="485" type="line"/>
    </contour>
  </outline>
</glyph>
<glyph name="arrowboth" format="1">
  <advance width="612"/>
  <unicode hex="2194"/>
  <outline>
    <contour>
      <point x="443" y="606" type="line"/>
      <point x="362" y="525" type="line"/>
      <point x="459" y="428" type="line"/>
      <point x="528" y="400" type="line"/>
      <point x="521" y="383" type="line"/>
      <point x="459" y="407" type="line"/>
      <point x="153" y="407" type="line"/>
      <point x="91" y="383" type="line"/>
      <point x="84" y="400" type="line"/>
      <point x="153" y="428" type="line"/>
      <point x="250" y="525" type="line"/>
      <point x="169" y="606" type="line"/>
      <point x="12" y="450" type="line"/>
      <point x="12" y="250" type="line"/>
      <point x="169" y="94" type="line"/>
      <point x="250" y="175" type="line"/>
      <point x="153" y="272" type="line"/>
      <point x="84" y="300" type="line"/>
      <point x="91" y="317" type="line"/>
      <point x="153" y="293" type="line"/>
      <point x="459" y="293" type="line"/>
      <point x="521" y="317" type="line"/>
      <point x="528" y="300" type="line"/>
      <point x="459" y="272" type="line"/>
      <point x="362" y="175" type="line"/>
      <point x="443" y="94" type="line"/>
      <point x="600" y="250" type="line"/>
      <point x="600" y="450" type="line"/>
    </contour>
  </outline>
</glyph>
<glyph name="summation" format="1">
  <advance width="612"/>
  <unicode hex="2211"/>
  <outline>
    <contour>
      <point x="292" y="341" type="line"/>
      <point x="60" y="222" type="line"/>
      <point x="60" y="0" type="line"/>
      <point x="552" y="0" type="line"/>
      <point x="552" y="126" type="line"/>
      <point x="180" y="126" type="line"/>
      <point x="180" y="144" type="line"/>
      <point x="412" y="266" type="line"/>
      <point x="412" y="434" type="line"/>
      <point x="180" y="556" type="line"/>
      <point x="180" y="574" type="line"/>
      <point x="552" y="574" type="line"/>
      <point x="552" y="700" type="line"/>
      <point x="60" y="700" type="line"/>
      <point x="60" y="478" type="line"/>
      <point x="292" y="359" type="line"/>
    </contour>
  </outline>
</glyph>
<glyph name="infinity" format="1">
  <advance width="612"/>
  <unicode hex="221E"/>
  <outline>
    <contour>
      <point x="34" y="350" type="curve"/>
      <point x="34" y="440"/>
      <point x="106" y="513"/>
      <point x="192" y="513" type="curve" smooth="yes"/>
      <point x="236" y="513"/>
      <point x="274" y="498"/>
      <point x="297" y="465" type="curve"/>
      <point x="315" y="465" type="line"/>
      <point x="338" y="498"/>
      <point x="376" y="513"/>
      <point x="420" y="513" type="curve" smooth="yes"/>
      <point x="506" y="513"/>
      <point x="578" y="440"/>
      <point x="578" y="350" type="curve" smooth="yes"/>
      <point x="578" y="260"/>
      <point x="506" y="187"/>
      <point x="420" y="187" type="curve" smooth="yes"/>
      <point x="376" y="187"/>
      <point x="338" y="202"/>
      <point x="315" y="235" type="curve"/>
      <point x="297" y="235" type="line"/>
      <point x="274" y="202"/>
      <point x="236" y="187"/>
      <point x="192" y="187" type="curve" smooth="yes"/>
      <point x="106" y="187"/>
      <point x="34" y="260"/>
    </contour>
    <contour>
      <point x="252" y="350" type="curve"/>
      <point x="252" y="380"/>
      <point x="227" y="405"/>
      <point x="197" y="405" type="curve" smooth="yes"/>
      <point x="167" y="405"/>
      <point x="142" y="380"/>
      <point x="142" y="350" type="curve" smooth="yes"/>
      <point x="142" y="320"/>
      <point x="167" y="295"/>
      <point x="197" y="295" type="curve" smooth="yes"/>
      <point x="227" y="295"/>
      <point x="252" y="320"/>
    </contour>
    <contour>
      <point x="360" y="350" type="curve"/>
      <point x="360" y="320"/>
      <point x="385" y="295"/>
      <point x="415" y="295" type="curve" smooth="yes"/>
      <point x="445" y="295"/>
      <point x="470" y="320"/>
      <point x="470" y="350" type="curve" smooth="yes"/>
      <point x="470" y="380"/>
      <point x="445" y="405"/>
      <point x="415" y="405" type="curve" smooth="yes"/>
      <point x="385" y="405"/>
      <point x="360" y="380"/>
    </contour>
  </outline>
</glyph>
<glyph name="integral" format="1">
  <advance width="612"/>
  <unicode hex="222B"/>
  <outline>
    <contour>
      <point x="369" y="550" type="line" smooth="yes"/>
      <point x="369" y="569"/>
      <point x="377" y="580"/>
      <point x="396" y="580" type="curve" smooth="yes"/>
      <point x="483" y="580" type="line"/>
      <point x="483" y="700" type="line"/>
      <point x="344" y="700" type="line" smooth="yes"/>
      <point x="287" y="700"/>
      <point x="243" y="655"/>
      <point x="243" y="598" type="curve" smooth="yes"/>
      <point x="243" y="-50" type="line" smooth="yes"/>
      <point x="243" y="-69"/>
      <point x="235" y="-80"/>
      <point x="216" y="-80" type="curve" smooth="yes"/>
      <point x="129" y="-80" type="line"/>
      <point x="129" y="-200" type="line"/>
      <point x="268" y="-200" type="line" smooth="yes"/>
      <point x="325" y="-200"/>
      <point x="369" y="-155"/>
      <point x="369" y="-98" type="curve" smooth="yes"/>
    </contour>
  </outline>
</glyph>
<glyph name="fi" format="1">
  <advance width="612"/>
  <unicode hex="FB01"/>
  <outline>
    <contour>
      <point x="384" y="644" type="curve" smooth="yes"/>
      <point x="384" y="592"/>
      <point x="427" y="549"/>
      <point x="479" y="549" type="curve" smooth="yes"/>
      <point x="531" y="549"/>
      <point x="573" y="592"/>
      <point x="573" y="644" type="curve" smooth="yes"/>
      <point x="573" y="696"/>
      <point x="531" y="738"/>
      <point x="479" y="738" type="curve" smooth="yes"/>
      <point x="427" y="738"/>
      <point x="384" y="696"/>
    </contour>
    <contour>
      <point x="24" y="376" type="line"/>
      <point x="141" y="376" type="line"/>
      <point x="141" y="0" type="line"/>
      <point x="267" y="0" type="line"/>
      <point x="267" y="376" type="line"/>
      <point x="416" y="376" type="line"/>
      <point x="416" y="0" type="line"/>
      <point x="542" y="0" type="line"/>
      <point x="542" y="496" type="line"/>
      <point x="267" y="496" type="line"/>
      <point x="267" y="550" type="line" smooth="yes"/>
      <point x="267" y="569"/>
      <point x="275" y="580"/>
      <point x="294" y="580" type="curve" smooth="yes"/>
      <point x="336" y="580" type="line"/>
      <point x="336" y="700" type="line"/>
      <point x="242" y="700" type="line" smooth="yes"/>
      <point x="185" y="700"/>
      <point x="141" y="655"/>
      <point x="141" y="598" type="curve" smooth="yes"/>
      <point x="141" y="496" type="line"/>
      <point x="24" y="496" type="line"/>
    </contour>
  </outline>
</glyph>
<glyph name="B.alt" format="1">
  <advance width="612"/>
  <outline>
    <contour>
      <point x="88" y="0" type="line"/>
      <point x="347" y="0" type="line" smooth="yes"/>
      <point x="481" y="0"/>
      <point x="554" y="78"/>
      <point x="554" y="183" type="curve" smooth="yes"/>
      <point x="554" y="195" type="line" smooth="yes"/>
      <point x="554" y="274"/>
      <point x="504" y="324"/>
      <point x="436" y="342" type="curve"/>
      <point x="436" y="360" type="line"/>
      <point x="504" y="378"/>
      <point x="554" y="426"/>
      <point x="554" y="506" type="curve" smooth="yes"/>
      <point x="554" y="518" type="line" smooth="yes"/>
      <point x="554" y="622"/>
      <point x="481" y="700"/>
      <point x="347" y="700" type="curve" smooth="yes"/>
      <point x="88" y="700" type="line"/>
    </contour>
    <contour>
      <point x="220" y="288" type="line"/>
      <point x="334" y="288" type="line" smooth="yes"/>
      <point x="390" y="288"/>
      <point x="428" y="265"/>
      <point x="428" y="210" type="curve" smooth="yes"/>
      <point x="428" y="204" type="line" smooth="yes"/>
      <point x="428" y="149"/>
      <point x="390" y="126"/>
      <point x="334" y="126" type="curve" smooth="yes"/>
      <point x="220" y="126" type="line"/>
    </contour>
    <contour>
      <point x="220" y="574" type="line"/>
      <point x="334" y="574" type="line" smooth="yes"/>
      <point x="390" y="574"/>
      <point x="428" y="552"/>
      <point x="428" y="497" type="curve" smooth="yes"/>
      <point x="428" y="491" type="line" smooth="yes"/>
      <point x="428" y="436"/>
      <point x="390" y="414"/>
      <point x="334" y="414" type="curve" smooth="yes"/>
      <point x="220" y="414" type="line"/>
    </contour>
  </outline>
</glyph>
<glyph name="D.alt" format="1">
  <advance width="612"/>
  <outline>
    <contour>
      <point x="82" y="0" type="line"/>
      <point x="282" y="0" type="line" smooth="yes"/>
      <point x="454" y="0"/>
      <point x="538" y="80"/>
      <point x="538" y="248" type="curve" smooth="yes"/>
      <point x="538" y="452" type="line" smooth="yes"/>
      <point x="538" y="620"/>
      <point x="454" y="700"/>
      <point x="282" y="700" type="curve" smooth="yes"/>
      <point x="82" y="700" type="line"/>
    </contour>
    <contour>
      <point x="282" y="126" type="curve"/>
      <point x="214" y="126" type="line"/>
      <point x="214" y="574" type="line"/>
      <point x="282" y="574" type="line" smooth="yes"/>
      <point x="374" y="574"/>
      <point x="406" y="532"/>
      <point x="406" y="452" type="curve" smooth="yes"/>
      <point x="406" y="260" type="line" smooth="yes"/>
      <point x="406" y="168"/>
      <point x="374" y="126"/>
    </contour>
  </outline>
</glyph>
<glyph name="Eth.alt" format="1">
  <advance width="612"/>
  <outline>
    <contour>
      <point x="32" y="290" type="line"/>
      <point x="98" y="290" type="line"/>
      <point x="98" y="0" type="line"/>
      <point x="298" y="0" type="line" smooth="yes"/>
      <point x="470" y="0"/>
      <point x="554" y="80"/>
      <point x="554" y="248" type="curve" smooth="yes"/>
      <point x="554" y="452" type="line" smooth="yes"/>
      <point x="554" y="620"/>
      <point x="470" y="700"/>
      <point x="298" y="700" type="curve" smooth="yes"/>
      <point x="98" y="700" type="line"/>
      <point x="98" y="410" type="line"/>
      <point x="32" y="410" type="line"/>
    </contour>
    <contour>
      <point x="298" y="126" type="curve"/>
      <point x="230" y="126" type="line"/>
      <point x="230" y="290" type="line"/>
      <point x="328" y="290" type="line"/>
      <point x="328" y="410" type="line"/>
      <point x="230" y="410" type="line"/>
      <point x="230" y="574" type="line"/>
      <point x="298" y="574" type="line" smooth="yes"/>
      <point x="390" y="574"/>
      <point x="422" y="532"/>
      <point x="422" y="452" type="curve" smooth="yes"/>
      <point x="422" y="260" type="line" smooth="yes"/>
      <point x="422" y="168"/>
      <point x="390" y="126"/>
    </contour>
  </outline>
</glyph>
<glyph name="IJ.alt" format="1">
  <advance width="612"/>
  <outline>
    <contour>
      <point x="78" y="700" type="line"/>
      <point x="78" y="342" type="line"/>
      <point x="210" y="342" type="line"/>
      <point x="210" y="700" type="line"/>
    </contour>
    <contour>
      <point x="534" y="700" type="line"/>
      <point x="402" y="700" type="line"/>
      <point x="402" y="210" type="line" smooth="yes"/>
      <point x="402" y="146"/>
      <point x="367" y="110"/>
      <point x="309" y="110" type="curve" smooth="yes"/>
      <point x="247" y="110"/>
      <point x="210" y="148"/>
      <point x="210" y="210" type="curve" smooth="yes"/>
      <point x="210" y="276" type="line"/>
      <point x="78" y="276" type="line"/>
      <point x="78" y="210" type="line" smooth="yes"/>
      <point x="78" y="64"/>
      <point x="173" y="-14"/>
      <point x="313" y="-14" type="curve" smooth="yes"/>
      <point x="449" y="-14"/>
      <point x="534" y="66"/>
      <point x="534" y="210" type="curve" smooth="yes"/>
    </contour>
  </outline>
</glyph>
<glyph name="J.alt" format="1">
  <advance width="612"/>
  <outline>
    <contour>
      <point x="532" y="700" type="line"/>
      <point x="400" y="700" type="line"/>
      <point x="400" y="210" type="line" smooth="yes"/>
      <point x="400" y="146"/>
      <point x="365" y="110"/>
      <point x="307" y="110" type="curve" smooth="yes"/>
      <point x="245" y="110"/>
      <point x="208" y="148"/>
      <point x="208" y="210" type="curve" smooth="yes"/>
      <point x="208" y="276" type="line"/>
      <point x="76" y="276" type="line"/>
      <point x="76" y="210" type="line" smooth="yes"/>
      <point x="76" y="64"/>
      <point x="171" y="-14"/>
      <point x="311" y="-14" type="curve" smooth="yes"/>
      <point x="447" y="-14"/>
      <point x="532" y="66"/>
      <point x="532" y="210" type="curve" smooth="yes"/>
    </contour>
  </outline>
</glyph>
<glyph name="Omega" format="1">
  <advance width="612"/>
  <outline>
    <contour>
      <point x="36" y="0" type="line"/>
      <point x="270" y="0" type="line"/>
      <point x="270" y="138" type="line"/>
      <point x="190" y="164"/>
      <point x="180" y="218"/>
      <point x="180" y="344" type="curve" smooth="yes"/>
      <point x="180" y="426" type="line" smooth="yes"/>
      <point x="180" y="536"/>
      <point x="228" y="588"/>
      <point x="306" y="588" type="curve" smooth="yes"/>
      <point x="384" y="588"/>
      <point x="432" y="536"/>
      <point x="432" y="426" type="curve" smooth="yes"/>
      <point x="432" y="344" type="line" smooth="yes"/>
      <point x="432" y="218"/>
      <point x="422" y="164"/>
      <point x="342" y="138" type="curve"/>
      <point x="342" y="0" type="line"/>
      <point x="576" y="0" type="line"/>
      <point x="576" y="126" type="line"/>
      <point x="472" y="126" type="line"/>
      <point x="472" y="144" type="line"/>
      <point x="526" y="172"/>
      <point x="564" y="224"/>
      <point x="564" y="326" type="curve" smooth="yes"/>
      <point x="564" y="434" type="line" smooth="yes"/>
      <point x="564" y="608"/>
      <point x="466" y="714"/>
      <point x="306" y="714" type="curve" smooth="yes"/>
      <point x="146" y="714"/>
      <point x="48" y="608"/>
      <point x="48" y="434" type="curve" smooth="yes"/>
      <point x="48" y="326" type="line" smooth="yes"/>
      <point x="48" y="224"/>
      <point x="86" y="172"/>
      <point x="140" y="144" type="curve"/>
      <point x="140" y="126" type="line"/>
      <point x="36" y="126" type="line"/>
    </contour>
  </outline>
</glyph>
<glyph name="a.alt" format="1">
  <advance width="612"/>
  <outline>
    <contour>
      <point x="388" y="66" type="line"/>
      <point x="390" y="20"/>
      <point x="428" y="0"/>
      <point x="476" y="0" type="curve" smooth="yes"/>
      <point x="554" y="0" type="line"/>
      <point x="554" y="120" type="line"/>
      <point x="523" y="120" type="line" smooth="yes"/>
      <point x="504" y="120"/>
      <point x="496" y="131"/>
      <point x="496" y="150" type="curve" smooth="yes"/>
      <point x="496" y="318" type="line" smooth="yes"/>
      <point x="496" y="432"/>
      <point x="405" y="510"/>
      <point x="289" y="510" type="curve" smooth="yes"/>
      <point x="179" y="510"/>
      <point x="114" y="452"/>
      <point x="84" y="392" type="curve"/>
      <point x="186" y="330" type="line"/>
      <point x="200" y="366"/>
      <point x="236" y="390"/>
      <point x="280" y="390" type="curve" smooth="yes"/>
      <point x="338" y="390"/>
      <point x="370" y="354"/>
      <point x="370" y="312" type="curve" smooth="yes"/>
      <point x="370" y="306" type="line"/>
      <point x="236" y="306" type="line" smooth="yes"/>
      <point x="142" y="306"/>
      <point x="66" y="244"/>
      <point x="66" y="148" type="curve" smooth="yes"/>
      <point x="66" y="142" type="line" smooth="yes"/>
      <point x="66" y="54"/>
      <point x="126" y="-14"/>
      <point x="240" y="-14" type="curve" smooth="yes"/>
      <point x="316" y="-14"/>
      <point x="354" y="18"/>
      <point x="370" y="66" type="curve"/>
    </contour>
    <contour>
      <point x="264" y="106" type="curve" smooth="yes"/>
      <point x="218" y="106"/>
      <point x="198" y="126"/>
      <point x="198" y="154" type="curve" smooth="yes"/>
      <point x="198" y="178"/>
      <point x="216" y="198"/>
      <point x="252" y="198" type="curve" smooth="yes"/>
      <point x="370" y="198" type="line"/>
      <point x="370" y="146"/>
      <point x="330" y="106"/>
    </contour>
  </outline>
</glyph>
<glyph name="copyright.cap" format="1">
  <advance width="612"/>
  <outline>
    <contour>
      <point x="268" y="436" type="line"/>
      <point x="268" y="462"/>
      <point x="278" y="480"/>
      <point x="306" y="480" type="curve" smooth="yes"/>
      <point x="334" y="480"/>
      <point x="344" y="462"/>
      <point x="344" y="436" type="curve" smooth="yes"/>
      <point x="344" y="390" type="line"/>
      <point x="440" y="390" type="line"/>
      <point x="440" y="430" type="line" smooth="yes"/>
      <point x="440" y="518"/>
      <point x="404" y="570"/>
      <point x="306" y="570" type="curve" smooth="yes"/>
      <point x="220" y="570"/>
      <point x="172" y="520"/>
      <point x="172" y="420" type="curve" smooth="yes"/>
      <point x="172" y="280" type="line" smooth="yes"/>
      <point x="172" y="180"/>
      <point x="220" y="130"/>
      <point x="306" y="130" type="curve" smooth="yes"/>
      <point x="404" y="130"/>
      <point x="440" y="182"/>
      <point x="440" y="270" type="curve" smooth="yes"/>
      <point x="440" y="310" type="line"/>
      <point x="344" y="310" type="line"/>
      <point x="344" y="264" type="line" smooth="yes"/>
      <point x="344" y="238"/>
      <point x="334" y="220"/>
      <point x="306" y="220" type="curve" smooth="yes"/>
      <point x="278" y="220"/>
      <point x="268" y="238"/>
      <point x="268" y="264" type="curve"/>
    </contour>
    <contour>
      <point x="30" y="186" type="line"/>
      <point x="30" y="56"/>
      <point x="106" y="-14"/>
      <point x="224" y="-14" type="curve" smooth="yes"/>
      <point x="388" y="-14" type="line" smooth="yes"/>
      <point x="506" y="-14"/>
      <point x="582" y="56"/>
      <point x="582" y="186" type="curve" smooth="yes"/>
      <point x="582" y="514" type="line" smooth="yes"/>
      <point x="582" y="644"/>
      <point x="506" y="714"/>
      <point x="388" y="714" type="curve" smooth="yes"/>
      <point x="224" y="714" type="line" smooth="yes"/>
      <point x="106" y="714"/>
      <point x="30" y="644"/>
      <point x="30" y="514" type="curve"/>
    </contour>
    <contour>
      <point x="126" y="494" type="line"/>
      <point x="126" y="574"/>
      <point x="162" y="618"/>
      <point x="240" y="618" type="curve" smooth="yes"/>
      <point x="372" y="618" type="line" smooth="yes"/>
      <point x="450" y="618"/>
      <point x="486" y="574"/>
      <point x="486" y="494" type="curve" smooth="yes"/>
      <point x="486" y="206" type="line" smooth="yes"/>
      <point x="486" y="126"/>
      <point x="450" y="82"/>
      <point x="372" y="82" type="curve" smooth="yes"/>
      <point x="240" y="82" type="line" smooth="yes"/>
      <point x="162" y="82"/>
      <point x="126" y="126"/>
      <point x="126" y="206" type="curve"/>
    </contour>
  </outline>
</glyph>
<glyph name="dagger.cap" format="1">
  <advance width="612"/>
  <outline>
    <contour>
      <point x="252" y="0" type="line"/>
      <point x="360" y="0" type="line"/>
      <point x="360" y="422" type="line"/>
      <point x="528" y="422" type="line"/>
      <point x="528" y="528" type="line"/>
      <point x="360" y="528" type="line"/>
      <point x="360" y="700" type="line"/>
      <point x="252" y="700" type="line"/>
      <point x="252" y="528" type="line"/>
      <point x="84" y="528" type="line"/>
      <point x="84" y="422" type="line"/>
      <point x="252" y="422" type="line"/>
    </contour>
  </outline>
</glyph>
<glyph name="dollar.cap" format="1">
  <advance width="612"/>
  <outline>
    <contour>
      <point x="370" y="792" type="line"/>
      <point x="256" y="792" type="line"/>
      <point x="256" y="711" type="line"/>
      <point x="136" y="695"/>
      <point x="60" y="615"/>
      <point x="60" y="514" type="curve" smooth="yes"/>
      <point x="60" y="508" type="line" smooth="yes"/>
      <point x="60" y="391"/>
      <point x="140" y="338"/>
      <point x="256" y="310" type="curve"/>
      <point x="256" y="114" type="line"/>
      <point x="193" y="132"/>
      <point x="162" y="181"/>
      <point x="162" y="248" type="curve" smooth="yes"/>
      <point x="162" y="272" type="line"/>
      <point x="36" y="272" type="line"/>
      <point x="36" y="242" type="line" smooth="yes"/>
      <point x="36" y="113"/>
      <point x="111" y="11"/>
      <point x="256" y="-10" type="curve"/>
      <point x="256" y="-92" type="line"/>
      <point x="370" y="-92" type="line"/>
      <point x="370" y="-10" type="line"/>
      <point x="495" y="6"/>
      <point x="570" y="85"/>
      <point x="570" y="196" type="curve" smooth="yes"/>
      <point x="570" y="208" type="line" smooth="yes"/>
      <point x="570" y="317"/>
      <point x="499" y="381"/>
      <point x="370" y="410" type="curve"/>
      <point x="370" y="580" type="line"/>
      <point x="409" y="561"/>
      <point x="432" y="526"/>
      <point x="432" y="486" type="curve" smooth="yes"/>
      <point x="432" y="462" type="line"/>
      <point x="558" y="462" type="line"/>
      <point x="558" y="498" type="line" smooth="yes"/>
      <point x="558" y="595"/>
      <point x="492" y="684"/>
      <point x="370" y="708" type="curve"/>
    </contour>
    <contour>
      <point x="444" y="196" type="curve" smooth="yes"/>
      <point x="444" y="156"/>
      <point x="418" y="124"/>
      <point x="370" y="112" type="curve"/>
      <point x="370" y="284" type="line"/>
      <point x="425" y="263"/>
      <point x="444" y="233"/>
    </contour>
    <contour>
      <point x="186" y="514" type="curve" smooth="yes"/>
      <point x="186" y="552"/>
      <point x="213" y="578"/>
      <point x="256" y="588" type="curve"/>
      <point x="256" y="437" type="line"/>
      <point x="206" y="456"/>
      <point x="186" y="481"/>
    </contour>
  </outline>
</glyph>
<glyph name="eight.tosn" format="1">
  <advance width="612"/>
  <outline>
    <contour>
      <point x="306" y="-14" type="curve"/>
      <point x="462" y="-14"/>
      <point x="561" y="66"/>
      <point x="561" y="182" type="curve" smooth="yes"/>
      <point x="561" y="188" type="line" smooth="yes"/>
      <point x="561" y="288"/>
      <point x="500" y="335"/>
      <point x="437" y="354" type="curve"/>
      <point x="437" y="372" type="line"/>
      <point x="494" y="393"/>
      <point x="543" y="440"/>
      <point x="543" y="526" type="curve" smooth="yes"/>
      <point x="543" y="532" type="line" smooth="yes"/>
      <point x="543" y="648"/>
      <point x="428" y="714"/>
      <point x="306" y="714" type="curve"/>
      <point x="184" y="714"/>
      <point x="69" y="648"/>
      <point x="69" y="532" type="curve" smooth="yes"/>
      <point x="69" y="526" type="line" smooth="yes"/>
      <point x="69" y="440"/>
      <point x="118" y="393"/>
      <point x="175" y="372" type="curve"/>
      <point x="175" y="354" type="line"/>
      <point x="112" y="335"/>
      <point x="51" y="288"/>
      <point x="51" y="188" type="curve" smooth="yes"/>
      <point x="51" y="182" type="line" smooth="yes"/>
      <point x="51" y="66"/>
      <point x="150" y="-13"/>
    </contour>
    <contour>
      <point x="306" y="112" type="curve"/>
      <point x="228" y="112"/>
      <point x="183" y="152"/>
      <point x="183" y="206" type="curve" smooth="yes"/>
      <point x="183" y="260"/>
      <point x="228" y="300"/>
      <point x="306" y="300" type="curve" smooth="yes"/>
      <point x="384" y="300"/>
      <point x="429" y="260"/>
      <point x="429" y="206" type="curve"/>
      <point x="429" y="152"/>
      <point x="384" y="112"/>
    </contour>
    <contour>
      <point x="306" y="588" type="curve"/>
      <point x="366" y="588"/>
      <point x="411" y="554"/>
      <point x="411" y="507" type="curve"/>
      <point x="411" y="460"/>
      <point x="366" y="426"/>
      <point x="306" y="426" type="curve" smooth="yes"/>
      <point x="246" y="426"/>
      <point x="201" y="460"/>
      <point x="201" y="507" type="curve" smooth="yes"/>
      <point x="201" y="554"/>
      <point x="246" y="588"/>
    </contour>
  </outline>
</glyph>
<glyph name="five.tosn" format="1">
  <advance width="612"/>
  <outline>
    <contour>
      <point x="64" y="126" type="line"/>
      <point x="64" y="496" type="line"/>
      <point x="526" y="496" type="line"/>
      <point x="526" y="370" type="line"/>
      <point x="194" y="370" type="line"/>
      <point x="194" y="198" type="line"/>
      <point x="212" y="198" type="line"/>
      <point x="230" y="250"/>
      <point x="284" y="294"/>
      <point x="370" y="294" type="curve" smooth="yes"/>
      <point x="500" y="294"/>
      <point x="574" y="200"/>
      <point x="574" y="66" type="curve" smooth="yes"/>
      <point x="574" y="60" type="line" smooth="yes"/>
      <point x="574" y="-82"/>
      <point x="490" y="-200"/>
      <point x="320" y="-200" type="curve" smooth="yes"/>
      <point x="158" y="-200"/>
      <point x="66" y="-108"/>
      <point x="52" y="18" type="curve"/>
      <point x="186" y="48" type="line"/>
      <point x="194" y="-18"/>
      <point x="232" y="-74"/>
      <point x="320" y="-74" type="curve" smooth="yes"/>
      <point x="400" y="-74"/>
      <point x="442" y="-24"/>
      <point x="442" y="52" type="curve" smooth="yes"/>
      <point x="442" y="128"/>
      <point x="406" y="168"/>
      <point x="350" y="168" type="curve" smooth="yes"/>
      <point x="311" y="168"/>
      <point x="286" y="148"/>
      <point x="280" y="126" type="curve"/>
    </contour>
  </outline>
</glyph>
<glyph name="florin.cap" format="1">
  <advance width="612"/>
  <outline>
    <contour>
      <point x="101" y="342" type="line"/>
      <point x="242" y="342" type="line"/>
      <point x="242" y="150" type="line" smooth="yes"/>
      <point x="242" y="131"/>
      <point x="234" y="120"/>
      <point x="215" y="120" type="curve" smooth="yes"/>
      <point x="60" y="120" type="line"/>
      <point x="60" y="0" type="line"/>
      <point x="267" y="0" type="line" smooth="yes"/>
      <point x="324" y="0"/>
      <point x="368" y="45"/>
      <point x="368" y="102" type="curve" smooth="yes"/>
      <point x="368" y="342" type="line"/>
      <point x="513" y="342" type="line"/>
      <point x="513" y="462" type="line"/>
      <point x="368" y="462" type="line"/>
      <point x="368" y="550" type="line" smooth="yes"/>
      <point x="368" y="569"/>
      <point x="376" y="580"/>
      <point x="395" y="580" type="curve" smooth="yes"/>
      <point x="565" y="580" type="line"/>
      <point x="565" y="700" type="line"/>
      <point x="343" y="700" type="line" smooth="yes"/>
      <point x="286" y="700"/>
      <point x="242" y="655"/>
      <point x="242" y="598" type="curve" smooth="yes"/>
      <point x="242" y="462" type="line"/>
      <point x="101" y="462" type="line"/>
    </contour>
  </outline>
</glyph>
<glyph name="four.tosn" format="1">
  <advance width="612"/>
  <outline>
    <contour>
      <point x="234" y="496" type="line"/>
      <point x="234" y="496"/>
      <point x="486" y="496"/>
      <point x="486" y="496" type="curve"/>
      <point x="486" y="496"/>
      <point x="486" y="126"/>
      <point x="486" y="126" type="curve"/>
      <point x="486" y="126"/>
      <point x="576" y="126"/>
      <point x="576" y="126" type="curve"/>
      <point x="576" y="126"/>
      <point x="576" y="0"/>
      <point x="576" y="0" type="curve"/>
      <point x="576" y="0"/>
      <point x="486" y="0"/>
      <point x="486" y="0" type="curve"/>
      <point x="486" y="0"/>
      <point x="486" y="-194"/>
      <point x="486" y="-194" type="curve"/>
      <point x="486" y="-194"/>
      <point x="354" y="-194"/>
      <point x="354" y="-194" type="curve"/>
      <point x="354" y="-194"/>
      <point x="354" y="0"/>
      <point x="354" y="0" type="curve"/>
      <point x="354" y="0"/>
      <point x="46" y="0"/>
      <point x="46" y="0" type="curve"/>
      <point x="46" y="186" type="line"/>
    </contour>
    <contour>
      <point x="160" y="144" type="line"/>
      <point x="160" y="126" type="line"/>
      <point x="160" y="126"/>
      <point x="354" y="126"/>
      <point x="354" y="126" type="curve"/>
      <point x="354" y="126"/>
      <point x="354" y="430"/>
      <point x="354" y="430" type="curve"/>
      <point x="354" y="430"/>
      <point x="336" y="430"/>
      <point x="336" y="430" type="curve"/>
    </contour>
  </outline>
</glyph>
<glyph name="iogonek.alt" format="1">
  <advance width="612"/>
  <outline>
    <contour>
      <point x="352" y="-170" type="curve"/>
      <point x="427" y="-170" type="line"/>
      <point x="427" y="-86" type="line"/>
      <point x="386" y="-86" type="line" smooth="yes"/>
      <point x="372" y="-86"/>
      <point x="363" y="-78"/>
      <point x="363" y="-64" type="curve" smooth="yes"/>
      <point x="363" y="-62"/>
      <point x="363" y="-61"/>
      <point x="364" y="-56" type="curve" smooth="yes"/>
      <point x="377" y="0" type="line"/>
      <point x="427" y="0" type="line"/>
      <point x="427" y="496" type="line"/>
      <point x="127" y="496" type="line"/>
      <point x="127" y="376" type="line"/>
      <point x="301" y="376" type="line"/>
      <point x="301" y="42" type="line"/>
      <point x="275" y="-72" type="line" smooth="yes"/>
      <point x="273" y="-81"/>
      <point x="272" y="-88"/>
      <point x="272" y="-95" type="curve" smooth="yes"/>
      <point x="272" y="-144"/>
      <point x="312" y="-170"/>
    </contour>
    <contour>
      <point x="458" y="643" type="curve" smooth="yes"/>
      <point x="458" y="696"/>
      <point x="415" y="738"/>
      <point x="363" y="738" type="curve" smooth="yes"/>
      <point x="311" y="738"/>
      <point x="268" y="696"/>
      <point x="268" y="643" type="curve" smooth="yes"/>
      <point x="268" y="590"/>
      <point x="311" y="548"/>
      <point x="363" y="548" type="curve" smooth="yes"/>
      <point x="415" y="548"/>
      <point x="458" y="590"/>
    </contour>
  </outline>
</glyph>
<glyph name="j.alt" format="1">
  <advance width="612"/>
  <outline>
    <contour>
      <point x="114" y="376" type="line"/>
      <point x="318" y="376" type="line"/>
      <point x="318" y="-200" type="line"/>
      <point x="444" y="-200" type="line"/>
      <point x="444" y="496" type="line"/>
      <point x="114" y="496" type="line"/>
    </contour>
    <contour>
      <point x="474" y="643" type="curve" smooth="yes"/>
      <point x="474" y="696"/>
      <point x="431" y="738"/>
      <point x="379" y="738" type="curve" smooth="yes"/>
      <point x="327" y="738"/>
      <point x="284" y="696"/>
      <point x="284" y="643" type="curve" smooth="yes"/>
      <point x="284" y="590"/>
      <point x="327" y="548"/>
      <point x="379" y="548" type="curve" smooth="yes"/>
      <point x="431" y="548"/>
      <point x="474" y="590"/>
    </contour>
  </outline>
</glyph>
<glyph name="lcaron.alt" format="1">
  <advance width="612"/>
  <outline>
    <contour>
      <point x="550" y="613" type="line" smooth="yes"/>
      <point x="550" y="660"/>
      <point x="510" y="700"/>
      <point x="463" y="700" type="curve" smooth="yes"/>
      <point x="416" y="700"/>
      <point x="376" y="660"/>
      <point x="376" y="613" type="curve" smooth="yes"/>
      <point x="376" y="566"/>
      <point x="416" y="526"/>
      <point x="463" y="526" type="curve" smooth="yes"/>
      <point x="472" y="526" type="line"/>
      <point x="472" y="514" type="line" smooth="yes"/>
      <point x="472" y="495"/>
      <point x="464" y="484"/>
      <point x="445" y="484" type="curve" smooth="yes"/>
      <point x="400" y="484" type="line"/>
      <point x="400" y="406" type="line"/>
      <point x="460" y="406" type="line" smooth="yes"/>
      <point x="511" y="406"/>
      <point x="550" y="445"/>
      <point x="550" y="496" type="curve" smooth="yes"/>
    </contour>
    <component base="l.alt" xOffset="-34"/>
  </outline>
</glyph>
<glyph name="nine.tosn" format="1">
  <advance width="612"/>
  <outline>
    <contour>
      <point x="69" y="-36" type="line"/>
      <point x="93" y="-142"/>
      <point x="188" y="-200"/>
      <point x="310" y="-200" type="curve" smooth="yes"/>
      <point x="458" y="-200"/>
      <point x="555" y="-114"/>
      <point x="555" y="42" type="curve" smooth="yes"/>
      <point x="555" y="279" type="line" smooth="yes"/>
      <point x="555" y="416"/>
      <point x="448" y="510"/>
      <point x="308" y="510" type="curve" smooth="yes"/>
      <point x="156" y="510"/>
      <point x="57" y="408"/>
      <point x="57" y="274" type="curve" smooth="yes"/>
      <point x="57" y="262" type="line" smooth="yes"/>
      <point x="57" y="126"/>
      <point x="148" y="34"/>
      <point x="268" y="34" type="curve" smooth="yes"/>
      <point x="346" y="34"/>
      <point x="386" y="66"/>
      <point x="405" y="112" type="curve"/>
      <point x="423" y="112" type="line"/>
      <point x="423" y="40" type="line" smooth="yes"/>
      <point x="423" y="-28"/>
      <point x="380" y="-76"/>
      <point x="306" y="-76" type="curve" smooth="yes"/>
      <point x="242" y="-76"/>
      <point x="206" y="-40"/>
      <point x="194" y="6" type="curve"/>
    </contour>
    <contour>
      <point x="306" y="384" type="curve"/>
      <point x="374" y="384"/>
      <point x="423" y="340"/>
      <point x="423" y="272" type="curve" smooth="yes"/>
      <point x="423" y="204"/>
      <point x="374" y="160"/>
      <point x="306" y="160" type="curve" smooth="yes"/>
      <point x="238" y="160"/>
      <point x="189" y="204"/>
      <point x="189" y="272" type="curve" smooth="yes"/>
      <point x="189" y="340"/>
      <point x="238" y="384"/>
    </contour>
  </outline>
</glyph>
<glyph name="one.tosn" format="1">
  <advance width="612"/>
  <outline>
    <contour>
      <point x="82" y="126" type="line"/>
      <point x="82" y="0" type="line"/>
      <point x="562" y="0" type="line"/>
      <point x="562" y="126" type="line"/>
      <point x="400" y="126" type="line"/>
      <point x="400" y="496" type="line"/>
      <point x="148" y="496" type="line"/>
      <point x="70" y="286" type="line"/>
      <point x="70" y="274" type="line"/>
      <point x="196" y="274" type="line"/>
      <point x="250" y="430" type="line"/>
      <point x="268" y="430" type="line"/>
      <point x="268" y="126" type="line"/>
    </contour>
  </outline>
</glyph>
<glyph name="r.alt" format="1">
  <advance width="612"/>
  <outline>
    <contour>
      <point x="34" y="376" type="line"/>
      <point x="136" y="376" type="line"/>
      <point x="136" y="0" type="line"/>
      <point x="262" y="0" type="line"/>
      <point x="262" y="280" type="line" smooth="yes"/>
      <point x="262" y="352"/>
      <point x="296" y="392"/>
      <point x="352" y="392" type="curve" smooth="yes"/>
      <point x="408" y="392"/>
      <point x="436" y="356"/>
      <point x="436" y="302" type="curve" smooth="yes"/>
      <point x="436" y="288" type="line"/>
      <point x="566" y="300" type="line"/>
      <point x="566" y="322" type="line" smooth="yes"/>
      <point x="566" y="448"/>
      <point x="500" y="510"/>
      <point x="402" y="510" type="curve" smooth="yes"/>
      <point x="340" y="510"/>
      <point x="292" y="478"/>
      <point x="274" y="424" type="curve"/>
      <point x="256" y="424" type="line"/>
      <point x="256" y="496" type="line"/>
      <point x="34" y="496" type="line"/>
    </contour>
  </outline>
</glyph>
<glyph name="section.cap" format="1">
  <advance width="612"/>
  <outline>
    <contour>
      <point x="126" y="390" type="curve" smooth="yes"/>
      <point x="126" y="294"/>
      <point x="194" y="245"/>
      <point x="305" y="225" type="curve" smooth="yes"/>
      <point x="375" y="212"/>
      <point x="398" y="192"/>
      <point x="398" y="152" type="curve" smooth="yes"/>
      <point x="398" y="110"/>
      <point x="368" y="88"/>
      <point x="313" y="88" type="curve" smooth="yes"/>
      <point x="244" y="88"/>
      <point x="212" y="128"/>
      <point x="212" y="186" type="curve" smooth="yes"/>
      <point x="212" y="198" type="line"/>
      <point x="104" y="198" type="line"/>
      <point x="104" y="184" type="line" smooth="yes"/>
      <point x="104" y="70"/>
      <point x="176" y="-14"/>
      <point x="314" y="-14" type="curve" smooth="yes"/>
      <point x="438" y="-14"/>
      <point x="508" y="56"/>
      <point x="508" y="156" type="curve" smooth="yes"/>
      <point x="508" y="164" type="line" smooth="yes"/>
      <point x="508" y="191"/>
      <point x="502" y="217"/>
      <point x="490" y="238" type="curve"/>
      <point x="502" y="262"/>
      <point x="508" y="289"/>
      <point x="508" y="324" type="curve" smooth="yes"/>
      <point x="508" y="412"/>
      <point x="456" y="466"/>
      <point x="337" y="487" type="curve" smooth="yes"/>
      <point x="251" y="502"/>
      <point x="236" y="528"/>
      <point x="236" y="556" type="curve" smooth="yes"/>
      <point x="236" y="590"/>
      <point x="264" y="612"/>
      <point x="309" y="612" type="curve" smooth="yes"/>
      <point x="369" y="612"/>
      <point x="392" y="578"/>
      <point x="392" y="538" type="curve" smooth="yes"/>
      <point x="392" y="526" type="line"/>
      <point x="500" y="526" type="line"/>
      <point x="500" y="548" type="line" smooth="yes"/>
      <point x="500" y="638"/>
      <point x="432" y="714"/>
      <point x="306" y="714" type="curve" smooth="yes"/>
      <point x="204" y="714"/>
      <point x="126" y="657"/>
      <point x="126" y="556" type="curve" smooth="yes"/>
      <point x="126" y="550" type="line" smooth="yes"/>
      <point x="126" y="519"/>
      <point x="133" y="494"/>
      <point x="147" y="472" type="curve"/>
      <point x="134" y="450"/>
      <point x="126" y="422"/>
    </contour>
    <contour>
      <point x="337" y="323" type="curve" smooth="yes"/>
      <point x="249" y="338"/>
      <point x="237" y="365"/>
      <point x="237" y="390" type="curve" smooth="yes"/>
      <point x="237" y="396"/>
      <point x="238" y="402"/>
      <point x="240" y="406" type="curve"/>
      <point x="259" y="399"/>
      <point x="281" y="393"/>
      <point x="305" y="389" type="curve" smooth="yes"/>
      <point x="375" y="376"/>
      <point x="395" y="355"/>
      <point x="395" y="320" type="curve" smooth="yes"/>
      <point x="395" y="316"/>
      <point x="395" y="312"/>
      <point x="394" y="309" type="curve"/>
      <point x="376" y="315"/>
      <point x="359" y="319"/>
    </contour>
  </outline>
</glyph>
<glyph name="six.tosn" format="1">
  <advance width="612"/>
  <outline>
    <contour>
      <point x="543" y="520" type="line"/>
      <point x="525" y="644"/>
      <point x="438" y="714"/>
      <point x="304" y="714" type="curve" smooth="yes"/>
      <point x="170" y="714"/>
      <point x="57" y="622"/>
      <point x="57" y="472" type="curve" smooth="yes"/>
      <point x="57" y="217" type="line" smooth="yes"/>
      <point x="57" y="78"/>
      <point x="168" y="-14"/>
      <point x="306" y="-14" type="curve" smooth="yes"/>
      <point x="458" y="-14"/>
      <point x="555" y="86"/>
      <point x="555" y="228" type="curve" smooth="yes"/>
      <point x="555" y="240" type="line" smooth="yes"/>
      <point x="555" y="378"/>
      <point x="464" y="462"/>
      <point x="348" y="462" type="curve" smooth="yes"/>
      <point x="282" y="462"/>
      <point x="230" y="430"/>
      <point x="207" y="384" type="curve"/>
      <point x="189" y="384" type="line"/>
      <point x="189" y="474" type="line" smooth="yes"/>
      <point x="189" y="542"/>
      <point x="234" y="588"/>
      <point x="304" y="588" type="curve" smooth="yes"/>
      <point x="375" y="588"/>
      <point x="408" y="548"/>
      <point x="413" y="500" type="curve"/>
    </contour>
    <contour>
      <point x="306" y="112" type="curve"/>
      <point x="238" y="112"/>
      <point x="189" y="156"/>
      <point x="189" y="224" type="curve"/>
      <point x="189" y="292"/>
      <point x="238" y="336"/>
      <point x="306" y="336" type="curve" smooth="yes"/>
      <point x="374" y="336"/>
      <point x="423" y="292"/>
      <point x="423" y="224" type="curve" smooth="yes"/>
      <point x="423" y="156"/>
      <point x="374" y="112"/>
    </contour>
  </outline>
</glyph>
<glyph name="three.tosn" format="1">
  <advance width="612"/>
  <outline>
    <contour>
      <point x="234" y="114" type="line"/>
      <point x="234" y="306" type="line"/>
      <point x="396" y="352" type="line"/>
      <point x="396" y="370" type="line"/>
      <point x="72" y="370" type="line"/>
      <point x="72" y="496" type="line"/>
      <point x="510" y="496" type="line"/>
      <point x="510" y="284" type="line"/>
      <point x="342" y="234" type="line"/>
      <point x="342" y="216" type="line"/>
      <point x="360" y="216" type="line" smooth="yes"/>
      <point x="460" y="216"/>
      <point x="546" y="144"/>
      <point x="546" y="24" type="curve" smooth="yes"/>
      <point x="546" y="18" type="line" smooth="yes"/>
      <point x="546" y="-108"/>
      <point x="460" y="-200"/>
      <point x="308" y="-200" type="curve" smooth="yes"/>
      <point x="154" y="-200"/>
      <point x="56" y="-104"/>
      <point x="48" y="42" type="curve"/>
      <point x="180" y="66" type="line"/>
      <point x="186" y="-24"/>
      <point x="230" y="-74"/>
      <point x="314" y="-74" type="curve" smooth="yes"/>
      <point x="380" y="-74"/>
      <point x="414" y="-34"/>
      <point x="414" y="24" type="curve" smooth="yes"/>
      <point x="414" y="86"/>
      <point x="374" y="114"/>
      <point x="312" y="114" type="curve" smooth="yes"/>
    </contour>
  </outline>
</glyph>
<glyph name="two.tosn" format="1">
  <advance width="612"/>
  <outline>
    <contour>
      <point x="212" y="126" type="line"/>
      <point x="212" y="132" type="line" smooth="yes"/>
      <point x="212" y="169"/>
      <point x="264" y="174"/>
      <point x="351" y="184" type="curve" smooth="yes"/>
      <point x="492" y="200"/>
      <point x="534" y="258"/>
      <point x="534" y="342" type="curve" smooth="yes"/>
      <point x="534" y="432"/>
      <point x="452" y="510"/>
      <point x="314" y="510" type="curve" smooth="yes"/>
      <point x="206" y="510"/>
      <point x="116" y="462"/>
      <point x="76" y="366" type="curve"/>
      <point x="186" y="316" type="line"/>
      <point x="206" y="366"/>
      <point x="252" y="390"/>
      <point x="310" y="390" type="curve" smooth="yes"/>
      <point x="364" y="390"/>
      <point x="402" y="372"/>
      <point x="402" y="342" type="curve" smooth="yes"/>
      <point x="402" y="314"/>
      <point x="386" y="297"/>
      <point x="274" y="288" type="curve" smooth="yes"/>
      <point x="144" y="277"/>
      <point x="80" y="226"/>
      <point x="80" y="112" type="curve" smooth="yes"/>
      <point x="80" y="0" type="line"/>
      <point x="528" y="0" type="line"/>
      <point x="528" y="126" type="line"/>
    </contour>
  </outline>
</glyph>
<glyph name="uni0123.alt" format="1">
  <advance width="612"/>
  <outline>
    <contour>
      <point x="211" y="661" type="line"/>
      <point x="211" y="614"/>
      <point x="251" y="574"/>
      <point x="298" y="574" type="curve" smooth="yes"/>
      <point x="345" y="574"/>
      <point x="385" y="614"/>
      <point x="385" y="661" type="curve" smooth="yes"/>
      <point x="385" y="708"/>
      <point x="345" y="748"/>
      <point x="298" y="748" type="curve" smooth="yes"/>
      <point x="289" y="748" type="line"/>
      <point x="289" y="760" type="line" smooth="yes"/>
      <point x="289" y="779"/>
      <point x="297" y="790"/>
      <point x="316" y="790" type="curve" smooth="yes"/>
      <point x="361" y="790" type="line"/>
      <point x="361" y="868" type="line"/>
      <point x="301" y="868" type="line" smooth="yes"/>
      <point x="250" y="868"/>
      <point x="211" y="829"/>
      <point x="211" y="778" type="curve"/>
    </contour>
    <component base="g.alt"/>
  </outline>
</glyph>
<glyph name="uni0157.alt" format="1">
  <advance width="612"/>
  <outline>
    <contour>
      <point x="286" y="-131" type="line" smooth="yes"/>
      <point x="286" y="-84"/>
      <point x="246" y="-44"/>
      <point x="199" y="-44" type="curve" smooth="yes"/>
      <point x="152" y="-44"/>
      <point x="112" y="-84"/>
      <point x="112" y="-131" type="curve" smooth="yes"/>
      <point x="112" y="-178"/>
      <point x="152" y="-218"/>
      <point x="199" y="-218" type="curve" smooth="yes"/>
      <point x="208" y="-218" type="line"/>
      <point x="208" y="-230" type="line" smooth="yes"/>
      <point x="208" y="-249"/>
      <point x="200" y="-260"/>
      <point x="181" y="-260" type="curve" smooth="yes"/>
      <point x="136" y="-260" type="line"/>
      <point x="136" y="-338" type="line"/>
      <point x="196" y="-338" type="line" smooth="yes"/>
      <point x="247" y="-338"/>
      <point x="286" y="-299"/>
      <point x="286" y="-248" type="curve" smooth="yes"/>
    </contour>
    <component base="r.alt"/>
  </outline>
</glyph>
